<svg width="56" viewBox="0 0 56 56" fill="none" xmlns="http://www.w3.org/2000/svg">
<path d="M26.85 37.45L19.9 44.35C19.7 44.5833 19.4417 44.6917 19.125 44.675C18.8083 44.6583 18.55 44.55 18.35 44.35C18.1167 44.1167 18 43.85 18 43.55C18 43.25 18.1167 42.9667 18.35 42.7L26.85 34.2V29.15H21.8L13.35 37.55C13.15 37.7833 12.8917 37.9 12.575 37.9C12.2583 37.9 12 37.8 11.8 37.6C11.5667 37.3667 11.4417 37.0917 11.425 36.775C11.4083 36.4583 11.5333 36.1833 11.8 35.95L18.55 29.15H9.6C9.3 29.15 9.04167 29.0417 8.825 28.825C8.60833 28.6083 8.5 28.3333 8.5 28C8.5 27.7 8.60833 27.4333 8.825 27.2C9.04167 26.9667 9.31667 26.85 9.65 26.85H18.55L11.65 19.95C11.4167 19.75 11.3 19.4917 11.3 19.175C11.3 18.8583 11.4167 18.5833 11.65 18.35C11.8833 18.1167 12.15 18 12.45 18C12.75 18 13.0333 18.1167 13.3 18.35L21.8 26.85H26.85V21.8L18.45 13.4C18.2167 13.2 18.1083 12.9417 18.125 12.625C18.1417 12.3083 18.25 12.0333 18.45 11.8C18.6833 11.5667 18.95 11.45 19.25 11.45C19.55 11.45 19.8333 11.5667 20.1 11.8L26.85 18.5V9.65C26.85 9.35 26.9583 9.08333 27.175 8.85C27.3917 8.61667 27.6667 8.5 28 8.5C28.3 8.5 28.5667 8.61667 28.8 8.85C29.0333 9.08333 29.15 9.35 29.15 9.65V18.5L36.05 11.65C36.25 11.4167 36.5083 11.3 36.825 11.3C37.1417 11.3 37.4167 11.4167 37.65 11.65C37.85 11.8833 37.95 12.1583 37.95 12.475C37.95 12.7917 37.85 13.0667 37.65 13.3L29.15 21.8V26.85H34.2L42.65 18.45C42.85 18.25 43.1083 18.15 43.425 18.15C43.7417 18.15 44.0167 18.25 44.25 18.45C44.4833 18.6833 44.6 18.9583 44.6 19.275C44.6 19.5917 44.4833 19.8667 44.25 20.1L37.5 26.85H46.35C46.65 26.85 46.9167 26.9667 47.15 27.2C47.3833 27.4333 47.5 27.7 47.5 28C47.5 28.3333 47.3833 28.6083 47.15 28.825C46.9167 29.0417 46.65 29.15 46.35 29.15H37.5L44.3 36.1C44.5333 36.3 44.65 36.5583 44.65 36.875C44.65 37.1917 44.5333 37.45 44.3 37.65C44.1 37.8833 43.8417 38 43.525 38C43.2083 38 42.9333 37.8833 42.7 37.65L34.2 29.15H29.15V34.2L37.65 42.8C37.8833 43 38 43.2583 38 43.575C38 43.8917 37.8833 44.15 37.65 44.35C37.45 44.6167 37.1917 44.75 36.875 44.75C36.5583 44.75 36.2833 44.6333 36.05 44.4L29.15 37.45V46.4C29.15 46.7 29.0333 46.9583 28.8 47.175C28.5667 47.3917 28.3 47.5 28 47.5C27.6667 47.5 27.3917 47.3917 27.175 47.175C26.9583 46.9583 26.85 46.6833 26.85 46.35V37.45Z" fill="currentColor"/>
</svg>
