<svg width="56" viewBox="0 0 56 56" fill="none" xmlns="http://www.w3.org/2000/svg">
<path d="M22.15 35.25L39.6 30.5C40.1333 30.3333 40.5333 30.0833 40.8 29.75C41.0667 29.4167 41.1167 28.9833 40.95 28.45C40.8167 27.95 40.5417 27.6083 40.125 27.425C39.7083 27.2417 39.2667 27.2 38.8 27.3L33.65 28.7L25.9 21.2C25.7667 21.0333 25.6 20.925 25.4 20.875C25.2 20.825 24.9833 20.8167 24.75 20.85C24.3167 20.9833 24.0167 21.225 23.85 21.575C23.6833 21.925 23.7167 22.3167 23.95 22.75L28.15 30.15L22.5 31.65L20.2 29.85C20.1 29.7833 19.9917 29.7333 19.875 29.7C19.7583 29.6667 19.6333 29.6833 19.5 29.75C19.3 29.8167 19.1583 29.95 19.075 30.15C18.9917 30.35 19 30.5667 19.1 30.8L21.25 34.85C21.35 35.0167 21.4833 35.1417 21.65 35.225C21.8167 35.3083 21.9833 35.3167 22.15 35.25ZM11.25 43C10.6167 43 10.0833 42.7833 9.65 42.35C9.21667 41.9167 9 41.3833 9 40.75V33.8C10.2333 33.3667 11.2417 32.6333 12.025 31.6C12.8083 30.5667 13.2 29.3667 13.2 28C13.2 26.6333 12.8083 25.425 12.025 24.375C11.2417 23.325 10.2333 22.6 9 22.2V15.25C9 14.6167 9.21667 14.0833 9.65 13.65C10.0833 13.2167 10.6167 13 11.25 13H44.75C45.3833 13 45.9167 13.2167 46.35 13.65C46.7833 14.0833 47 14.6167 47 15.25V40.75C47 41.3833 46.7833 41.9167 46.35 42.35C45.9167 42.7833 45.3833 43 44.75 43H11.25ZM11.25 40.75H44.75V15.25H11.25V20.6C12.55 21.4333 13.5833 22.4917 14.35 23.775C15.1167 25.0583 15.5 26.4667 15.5 28C15.5 29.5333 15.1167 30.9417 14.35 32.225C13.5833 33.5083 12.55 34.5667 11.25 35.4V40.75Z" fill="currentColor"/>
</svg>
