<svg width="56" transform="scale(1 -1)" viewBox="0 0 56 56" fill="none" xmlns="http://www.w3.org/2000/svg"  >
<path d="M28.1 37.5C28.4333 37.5 28.7083 37.3917 28.925 37.175C29.1417 36.9583 29.25 36.6833 29.25 36.35V27.1C29.25 26.8 29.1417 26.5417 28.925 26.325C28.7083 26.1083 28.4333 26 28.1 26C27.7667 26 27.5 26.1083 27.3 26.325C27.1 26.5417 27 26.8167 27 27.15V36.4C27 36.7 27.1083 36.9583 27.325 37.175C27.5417 37.3917 27.8 37.5 28.1 37.5ZM28 22.8C28.3667 22.8 28.6833 22.675 28.95 22.425C29.2167 22.175 29.35 21.85 29.35 21.45C29.35 21.0833 29.2167 20.7667 28.95 20.5C28.6833 20.2333 28.3667 20.1 28 20.1C27.6 20.1 27.275 20.2333 27.025 20.5C26.775 20.7667 26.65 21.0833 26.65 21.45C26.65 21.85 26.7833 22.175 27.05 22.425C27.3167 22.675 27.6333 22.8 28 22.8ZM28 47C25.3333 47 22.8417 46.5167 20.525 45.55C18.2083 44.5833 16.1917 43.2417 14.475 41.525C12.7583 39.8083 11.4167 37.7917 10.45 35.475C9.48333 33.1583 9 30.6667 9 28C9 25.3333 9.48333 22.85 10.45 20.55C11.4167 18.25 12.7583 16.2417 14.475 14.525C16.1917 12.8083 18.2083 11.4583 20.525 10.475C22.8417 9.49167 25.3333 9 28 9C30.6667 9 33.15 9.49167 35.45 10.475C37.75 11.4583 39.7583 12.8083 41.475 14.525C43.1917 16.2417 44.5417 18.25 45.525 20.55C46.5083 22.85 47 25.3333 47 28C47 30.6667 46.5083 33.1583 45.525 35.475C44.5417 37.7917 43.1917 39.8083 41.475 41.525C39.7583 43.2417 37.75 44.5833 35.45 45.55C33.15 46.5167 30.6667 47 28 47Z" fill="currentColor"/>
</svg>
