<svg width="56" viewBox="0 0 56 56" fill="none" xmlns="http://www.w3.org/2000/svg">
<path d="M28.15 30.4C28.45 30.4 28.7083 30.2917 28.925 30.075C29.1417 29.8583 29.25 29.5833 29.25 29.25V19C29.25 18.7 29.1417 18.45 28.925 18.25C28.7083 18.05 28.4333 17.95 28.1 17.95C27.7667 17.95 27.5 18.0583 27.3 18.275C27.1 18.4917 27 18.75 27 19.05V29.3C27 29.6 27.1083 29.8583 27.325 30.075C27.5417 30.2917 27.8167 30.4 28.15 30.4ZM28 37.45C28.4 37.45 28.725 37.325 28.975 37.075C29.225 36.825 29.35 36.5 29.35 36.1C29.35 35.7 29.225 35.375 28.975 35.125C28.725 34.875 28.4 34.75 28 34.75C27.6 34.75 27.275 34.875 27.025 35.125C26.775 35.375 26.65 35.7 26.65 36.1C26.65 36.5 26.775 36.825 27.025 37.075C27.275 37.325 27.6 37.45 28 37.45ZM28 47C25.3333 47 22.8417 46.5167 20.525 45.55C18.2083 44.5833 16.1917 43.2417 14.475 41.525C12.7583 39.8083 11.4167 37.7917 10.45 35.475C9.48333 33.1583 9 30.6667 9 28C9 25.3333 9.48333 22.85 10.45 20.55C11.4167 18.25 12.7583 16.2417 14.475 14.525C16.1917 12.8083 18.2083 11.4583 20.525 10.475C22.8417 9.49167 25.3333 9 28 9C30.6667 9 33.15 9.49167 35.45 10.475C37.75 11.4583 39.7583 12.8083 41.475 14.525C43.1917 16.2417 44.5417 18.25 45.525 20.55C46.5083 22.85 47 25.3333 47 28C47 30.6667 46.5083 33.1583 45.525 35.475C44.5417 37.7917 43.1917 39.8083 41.475 41.525C39.7583 43.2417 37.75 44.5833 35.45 45.55C33.15 46.5167 30.6667 47 28 47ZM28 44.75C32.6 44.75 36.5417 43.1083 39.825 39.825C43.1083 36.5417 44.75 32.6 44.75 28C44.75 23.4 43.1083 19.4583 39.825 16.175C36.5417 12.8917 32.6 11.25 28 11.25C23.4 11.25 19.4583 12.8917 16.175 16.175C12.8917 19.4583 11.25 23.4 11.25 28C11.25 32.6 12.8917 36.5417 16.175 39.825C19.4583 43.1083 23.4 44.75 28 44.75Z" fill="currentColor"/>
</svg>
