<svg width="56" viewBox="0 0 56 56" fill="none" xmlns="http://www.w3.org/2000/svg">
<path d="M15.35 44.4499C14.2833 44.4499 13.3833 44.0833 12.65 43.3499C11.9167 42.6166 11.55 41.7166 11.55 40.65V17.2499C11.55 16.2166 12.025 15.4999 12.975 15.0999C13.925 14.6999 14.7667 14.8666 15.5 15.5999L17.6 17.6999L15.9 19.3999L17.05 20.4999L18.75 18.8499L23.95 24.0499L22.25 25.7499L23.4 26.8499L25.05 25.1999L30.4 30.4999L28.7 32.1999L29.85 33.2999L31.5 31.6499L36.75 36.8499L35.05 38.5499L36.2 39.65L37.9 37.9999L40 40.15C40.8 40.9499 40.9917 41.8666 40.575 42.9C40.1583 43.9333 39.4 44.4499 38.3 44.4499H15.35ZM15.15 41.4499H35.9L14.55 20.0999V40.8499C14.55 41.0166 14.6083 41.1583 14.725 41.275C14.8417 41.3916 14.9833 41.4499 15.15 41.4499Z" fill="currentColor"/>
</svg>
