<svg width="56" viewBox="0 0 56 56" fill="none" xmlns="http://www.w3.org/2000/svg">
<path d="M33.05 26.75C32.4833 26.75 32.0083 26.5583 31.625 26.175C31.2417 25.7917 31.05 25.3167 31.05 24.75C31.05 24.1833 31.2417 23.7083 31.625 23.325C32.0083 22.9417 32.4667 22.75 33 22.75C33.6 22.75 34.0917 22.9417 34.475 23.325C34.8583 23.7083 35.05 24.1833 35.05 24.75C35.05 25.3167 34.8583 25.7917 34.475 26.175C34.0917 26.5583 33.6167 26.75 33.05 26.75ZM22.95 26.75C22.3833 26.75 21.9 26.5583 21.5 26.175C21.1 25.7917 20.9 25.3167 20.9 24.75C20.9 24.1833 21.1 23.7083 21.5 23.325C21.9 22.9417 22.3833 22.75 22.95 22.75C23.5167 22.75 23.9917 22.9417 24.375 23.325C24.7583 23.7083 24.95 24.1833 24.95 24.75C24.95 25.3167 24.7583 25.7917 24.375 26.175C23.9917 26.5583 23.5167 26.75 22.95 26.75ZM28 37C26.3 37 24.7333 36.5583 23.3 35.675C21.8667 34.7917 20.7333 33.6167 19.9 32.15H36.1C35.2667 33.6167 34.1333 34.7917 32.7 35.675C31.2667 36.5583 29.7 37 28 37ZM28 45C25.6667 45 23.4667 44.55 21.4 43.65C19.3333 42.75 17.5333 41.5333 16 40C14.4667 38.4667 13.25 36.6667 12.35 34.6C11.45 32.5333 11 30.3333 11 28C11 25.6667 11.45 23.4667 12.35 21.4C13.25 19.3333 14.4667 17.5333 16 16C17.5333 14.4667 19.3333 13.25 21.4 12.35C23.4667 11.45 25.6667 11 28 11C30.3333 11 32.5333 11.45 34.6 12.35C36.6667 13.25 38.4667 14.4667 40 16C41.5333 17.5333 42.75 19.3333 43.65 21.4C44.55 23.4667 45 25.6667 45 28C45 30.3333 44.55 32.5333 43.65 34.6C42.75 36.6667 41.5333 38.4667 40 40C38.4667 41.5333 36.6667 42.75 34.6 43.65C32.5333 44.55 30.3333 45 28 45ZM28 42.75C32.0333 42.75 35.5 41.3167 38.4 38.45C41.3 35.5833 42.75 32.1333 42.75 28.1C42.75 24.0333 41.3167 20.5167 38.45 17.55C35.5833 14.5833 32.0667 13.1 27.9 13.1C27.5 13.1 27.15 13.1083 26.85 13.125C26.55 13.1417 26.2167 13.1667 25.85 13.2C25.7833 13.4667 25.7333 13.7583 25.7 14.075C25.6667 14.3917 25.65 14.6667 25.65 14.9C25.65 15.7667 25.95 16.5 26.55 17.1C27.15 17.7 27.9 18 28.8 18C29.2 18 29.5167 17.9667 29.75 17.9C29.9833 17.8333 30.2333 17.8 30.5 17.8C30.7333 17.8 30.9417 17.875 31.125 18.025C31.3083 18.175 31.4 18.3833 31.4 18.65C31.4 19.0833 31.175 19.425 30.725 19.675C30.275 19.925 29.6167 20.05 28.75 20.05C27.3167 20.05 26.1083 19.5583 25.125 18.575C24.1417 17.5917 23.65 16.3667 23.65 14.9C23.65 14.7333 23.6583 14.5333 23.675 14.3C23.6917 14.0667 23.7333 13.8667 23.8 13.7C20.7667 14.7 18.25 16.4667 16.25 19C14.25 21.5333 13.25 24.5 13.25 27.9C13.25 31.9667 14.7 35.4583 17.6 38.375C20.5 41.2917 23.9667 42.75 28 42.75Z" fill="currentColor"/>
</svg>
