<svg width="40" viewBox="0 0 40 40" fill="none" xmlns="http://www.w3.org/2000/svg">
<path d="M22.583 28.667L14.833 20.917C14.6943 20.7777 14.5973 20.6317 14.542 20.479C14.486 20.3263 14.458 20.1667 14.458 20C14.458 19.8053 14.486 19.6387 14.542 19.5C14.5973 19.3613 14.6943 19.2223 14.833 19.083L22.625 11.25C22.8197 11.0553 23.0627 10.958 23.354 10.958C23.646 10.958 23.903 11.0553 24.125 11.25C24.3197 11.472 24.417 11.729 24.417 12.021C24.417 12.3123 24.3057 12.5693 24.083 12.792L16.875 20L24.125 27.208C24.3197 27.4027 24.417 27.639 24.417 27.917C24.417 28.1943 24.3197 28.4443 24.125 28.667C23.903 28.889 23.646 29 23.354 29C23.0627 29 22.8057 28.889 22.583 28.667Z" fill="currentColor"/>
</svg>
