<svg  viewBox="0 0 28 34" fill="none" xmlns="http://www.w3.org/2000/svg">
<path d="M3.458 33.667C2.68067 33.667 2.021 33.396 1.479 32.854C0.937667 32.3127 0.667 31.653 0.667 30.875V10.042C0.667 8.51401 1.139 7.18067 2.083 6.04201C3.02767 4.90267 4.22233 4.18034 5.667 3.87501V0.333008H10.125V3.66701H17.875V0.333008H22.333V3.87501C23.7777 4.18034 24.9723 4.90267 25.917 6.04201C26.861 7.18067 27.333 8.51401 27.333 10.042V30.875C27.333 31.653 27.0623 32.3127 26.521 32.854C25.979 33.396 25.3193 33.667 24.542 33.667H3.458ZM3.458 30.875H24.542V10.042C24.542 9.04201 24.1947 8.19467 23.5 7.50001C22.8053 6.80534 21.958 6.45801 20.958 6.45801H7.042C6.06933 6.45801 5.229 6.80534 4.521 7.50001C3.81233 8.19467 3.458 9.04201 3.458 10.042V30.875ZM19.292 23.375H22.042V17.292H5.958V20.042H19.292V23.375ZM3.458 30.875H24.542H3.458Z" fill="currentColor"/>
</svg>
