<svg width="32" viewBox="0 0 32 32" fill="none" xmlns="http://www.w3.org/2000/svg">
<path d="M23.9997 8.00008H21.333C21.333 5.05341 18.9463 2.66675 15.9997 2.66675C13.053 2.66675 10.6663 5.05341 10.6663 8.00008H7.99967C6.53301 8.00008 5.33301 9.20008 5.33301 10.6667V26.6667C5.33301 28.1334 6.53301 29.3334 7.99967 29.3334H23.9997C25.4663 29.3334 26.6663 28.1334 26.6663 26.6667V10.6667C26.6663 9.20008 25.4663 8.00008 23.9997 8.00008ZM15.9997 5.33341C17.4663 5.33341 18.6663 6.53341 18.6663 8.00008H13.333C13.333 6.53341 14.533 5.33341 15.9997 5.33341ZM23.9997 26.6667H7.99967V10.6667H10.6663V13.3334C10.6663 14.0667 11.2663 14.6667 11.9997 14.6667C12.733 14.6667 13.333 14.0667 13.333 13.3334V10.6667H18.6663V13.3334C18.6663 14.0667 19.2663 14.6667 19.9997 14.6667C20.733 14.6667 21.333 14.0667 21.333 13.3334V10.6667H23.9997V26.6667Z" fill="currentColor"/>
</svg>
