<svg width="24" viewBox="0 0 24 24" fill="none" xmlns="http://www.w3.org/2000/svg">
<path d="M9 11.875C8.75 11.875 8.54167 11.7917 8.375 11.625C8.20833 11.4583 8.125 11.25 8.125 11C8.125 10.75 8.20833 10.5417 8.375 10.375C8.54167 10.2083 8.75 10.125 9 10.125C9.25 10.125 9.45833 10.2083 9.625 10.375C9.79167 10.5417 9.875 10.75 9.875 11C9.875 11.25 9.79167 11.4583 9.625 11.625C9.45833 11.7917 9.25 11.875 9 11.875ZM15 11.875C14.75 11.875 14.5417 11.7917 14.375 11.625C14.2083 11.4583 14.125 11.25 14.125 11C14.125 10.75 14.2083 10.5417 14.375 10.375C14.5417 10.2083 14.75 10.125 15 10.125C15.25 10.125 15.4583 10.2083 15.625 10.375C15.7917 10.5417 15.875 10.75 15.875 11C15.875 11.25 15.7917 11.4583 15.625 11.625C15.4583 11.7917 15.25 11.875 15 11.875ZM5.3 21.5C4.8 21.5 4.375 21.325 4.025 20.975C3.675 20.625 3.5 20.2 3.5 19.7V15.7C3.5 15.4333 3.575 15.1793 3.725 14.938C3.875 14.696 4.09167 14.5083 4.375 14.375H4.5V10C4.5 8.96667 4.696 7.99567 5.088 7.087C5.47933 6.179 6.01667 5.38333 6.7 4.7C7.38333 4.01667 8.17933 3.479 9.088 3.087C9.996 2.69567 10.9667 2.5 12 2.5C13.0333 2.5 14.0043 2.69567 14.913 3.087C15.821 3.479 16.6167 4.01667 17.3 4.7C17.9833 5.38333 18.521 6.179 18.913 7.087C19.3043 7.99567 19.5 8.96667 19.5 10V14.375H19.6C19.9 14.5083 20.125 14.696 20.275 14.938C20.425 15.1793 20.5 15.4333 20.5 15.7V19.7C20.5 20.2 20.325 20.625 19.975 20.975C19.625 21.325 19.2 21.5 18.7 21.5H5.3ZM5 15.7V19.7C5 19.7833 5.02933 19.8543 5.088 19.913C5.146 19.971 5.21667 20 5.3 20H7.25V15.7H5ZM8.75 20H11.25V15.7H8.75V20ZM6 14.2H11.25V4.05C9.81667 4.21667 8.58333 4.854 7.55 5.962C6.51667 7.07067 6 8.41667 6 10V14.2ZM12.75 14.2H18V10C18 8.41667 17.4833 7.07067 16.45 5.962C15.4167 4.854 14.1833 4.21667 12.75 4.05V14.2ZM12.75 20H15.25V15.7H12.75V20ZM16.75 20H18.7C18.7833 20 18.8543 19.971 18.913 19.913C18.971 19.8543 19 19.7833 19 19.7V15.7H16.75V20Z" fill="currentColor"/>
</svg>
