<svg width="56" viewBox="0 0 56 56" fill="none" xmlns="http://www.w3.org/2000/svg">
<path d="M13.9 47C13.1 47 12.4167 46.7167 11.85 46.15C11.2833 45.5833 11 44.9 11 44.1V15.15C11 14.3833 11.2833 13.7083 11.85 13.125C12.4167 12.5417 13.1 12.25 13.9 12.25H17.6V10C17.6 9.66667 17.7167 9.375 17.95 9.125C18.1833 8.875 18.4667 8.75 18.8 8.75C19.1667 8.75 19.475 8.875 19.725 9.125C19.975 9.375 20.1 9.66667 20.1 10V12.25H36V9.95C36 9.61667 36.1167 9.33333 36.35 9.1C36.5833 8.86667 36.8667 8.75 37.2 8.75C37.5667 8.75 37.8667 8.86667 38.1 9.1C38.3333 9.33333 38.45 9.63333 38.45 10V12.25H42.1C42.9 12.25 43.5833 12.5417 44.15 13.125C44.7167 13.7083 45 14.3833 45 15.15V44.1C45 44.9 44.7167 45.5833 44.15 46.15C43.5833 46.7167 42.9 47 42.1 47H13.9ZM13.9 44.75H42.1C42.3 44.75 42.4583 44.6917 42.575 44.575C42.6917 44.4583 42.75 44.3 42.75 44.1V24.25H13.25V44.1C13.25 44.3 13.3083 44.4583 13.425 44.575C13.5417 44.6917 13.7 44.75 13.9 44.75ZM13.25 22H42.75V15.15C42.75 14.9833 42.6917 14.8417 42.575 14.725C42.4583 14.6083 42.3 14.55 42.1 14.55H13.9C13.7 14.55 13.5417 14.6083 13.425 14.725C13.3083 14.8417 13.25 14.9833 13.25 15.15V22Z" fill="currentColor"/>
</svg>
