<svg width="24" viewBox="0 0 24 24" fill="none" xmlns="http://www.w3.org/2000/svg">
<path d="M12 13.771C11.792 13.771 11.6113 13.691 11.458 13.531C11.3053 13.3717 11.229 13.1947 11.229 13C11.229 12.792 11.3053 12.608 11.458 12.448C11.6113 12.288 11.792 12.208 12 12.208C12.208 12.208 12.3887 12.288 12.542 12.448C12.6947 12.608 12.771 12.792 12.771 13C12.771 13.1947 12.6947 13.3717 12.542 13.531C12.3887 13.691 12.208 13.771 12 13.771ZM8.66699 13.771C8.45833 13.771 8.27766 13.691 8.12499 13.531C7.97233 13.3717 7.89599 13.1947 7.89599 13C7.89599 12.792 7.97233 12.608 8.12499 12.448C8.27766 12.288 8.45833 12.208 8.66699 12.208C8.87499 12.208 9.05533 12.288 9.20799 12.448C9.36133 12.608 9.43799 12.792 9.43799 13C9.43799 13.1947 9.36133 13.3717 9.20799 13.531C9.05533 13.691 8.87499 13.771 8.66699 13.771ZM15.333 13.771C15.125 13.771 14.9447 13.691 14.792 13.531C14.6387 13.3717 14.562 13.1947 14.562 13C14.562 12.792 14.6387 12.608 14.792 12.448C14.9447 12.288 15.125 12.208 15.333 12.208C15.5417 12.208 15.7223 12.288 15.875 12.448C16.0277 12.608 16.104 12.792 16.104 13C16.104 13.1947 16.0277 13.3717 15.875 13.531C15.7223 13.691 15.5417 13.771 15.333 13.771ZM12 17.042C11.792 17.042 11.6113 16.962 11.458 16.802C11.3053 16.642 11.229 16.465 11.229 16.271C11.229 16.0623 11.3053 15.8783 11.458 15.719C11.6113 15.559 11.792 15.479 12 15.479C12.208 15.479 12.3887 15.559 12.542 15.719C12.6947 15.8783 12.771 16.0623 12.771 16.271C12.771 16.465 12.6947 16.642 12.542 16.802C12.3887 16.962 12.208 17.042 12 17.042ZM8.66699 17.042C8.45833 17.042 8.27766 16.962 8.12499 16.802C7.97233 16.642 7.89599 16.465 7.89599 16.271C7.89599 16.0623 7.97233 15.8783 8.12499 15.719C8.27766 15.559 8.45833 15.479 8.66699 15.479C8.87499 15.479 9.05533 15.559 9.20799 15.719C9.36133 15.8783 9.43799 16.0623 9.43799 16.271C9.43799 16.465 9.36133 16.642 9.20799 16.802C9.05533 16.962 8.87499 17.042 8.66699 17.042ZM15.333 17.042C15.125 17.042 14.9447 16.962 14.792 16.802C14.6387 16.642 14.562 16.465 14.562 16.271C14.562 16.0623 14.6387 15.8783 14.792 15.719C14.9447 15.559 15.125 15.479 15.333 15.479C15.5417 15.479 15.7223 15.559 15.875 15.719C16.0277 15.8783 16.104 16.0623 16.104 16.271C16.104 16.465 16.0277 16.642 15.875 16.802C15.7223 16.962 15.5417 17.042 15.333 17.042ZM6.49999 19.917C6.05533 19.917 5.68033 19.764 5.37499 19.458C5.06966 19.1527 4.91699 18.7777 4.91699 18.333V7.417C4.91699 6.97234 5.06966 6.59734 5.37499 6.292C5.68033 5.986 6.05533 5.833 6.49999 5.833H7.49999V4.667C7.49999 4.48634 7.56599 4.32667 7.69799 4.188C7.82999 4.04867 7.98633 3.979 8.16699 3.979C8.36099 3.979 8.52399 4.04867 8.65599 4.188C8.78799 4.32667 8.85399 4.48634 8.85399 4.667V5.833H15.167V4.646C15.167 4.47934 15.2363 4.32667 15.375 4.188C15.5137 4.04867 15.6663 3.979 15.833 3.979C16.0137 3.979 16.17 4.04867 16.302 4.188C16.434 4.32667 16.5 4.47934 16.5 4.646V5.833H17.5C17.9447 5.833 18.3197 5.986 18.625 6.292C18.9303 6.59734 19.083 6.97234 19.083 7.417V18.333C19.083 18.7777 18.9303 19.1527 18.625 19.458C18.3197 19.764 17.9447 19.917 17.5 19.917H6.49999ZM6.49999 18.583H17.5C17.5693 18.583 17.6283 18.5587 17.677 18.51C17.7257 18.462 17.75 18.403 17.75 18.333V10.625H6.24999V18.333C6.24999 18.403 6.27433 18.462 6.32299 18.51C6.37166 18.5587 6.43066 18.583 6.49999 18.583Z" fill="currentColor"/>
</svg>
