<svg width="24" viewBox="0 0 24 24" fill="none" xmlns="http://www.w3.org/2000/svg">
<path d="M4.275 13.7248L6.4 11.5998L4.275 9.4748L2.15 11.5998L4.275 13.7248ZM17.625 13.3248L19.75 9.8998L21.9 13.3248H17.625ZM1.375 17.7998C1.125 17.7998 0.916667 17.7165 0.75 17.5498C0.583333 17.3831 0.5 17.1748 0.5 16.9248V16.5748C0.5 15.8915 0.846 15.3415 1.538 14.9248C2.22933 14.5081 3.13333 14.2998 4.25 14.2998C4.45 14.2998 4.64167 14.3081 4.825 14.3248C5.00833 14.3415 5.18333 14.3665 5.35 14.3998C5.16667 14.6831 5.02933 14.9915 4.938 15.3248C4.846 15.6581 4.8 16.0165 4.8 16.3998V17.7998H1.375ZM7.4 17.7998C7.15 17.7998 6.93767 17.7125 6.763 17.5378C6.58767 17.3625 6.5 17.1415 6.5 16.8748V16.4498C6.5 15.4831 7.004 14.7081 8.012 14.1248C9.02067 13.5415 10.35 13.2498 12 13.2498C13.65 13.2498 14.9793 13.5415 15.988 14.1248C16.996 14.7081 17.5 15.4831 17.5 16.4498V16.8748C17.5 17.1415 17.4127 17.3625 17.238 17.5378C17.0627 17.7125 16.85 17.7998 16.6 17.7998H7.4ZM19.2 17.7998V16.3998C19.2 16.0165 19.15 15.6581 19.05 15.3248C18.95 14.9915 18.8167 14.6831 18.65 14.3998C18.8167 14.3665 18.9917 14.3415 19.175 14.3248C19.3583 14.3081 19.55 14.2998 19.75 14.2998C20.8667 14.2998 21.7707 14.5081 22.462 14.9248C23.154 15.3415 23.5 15.8915 23.5 16.5748V16.9248C23.5 17.1748 23.4167 17.3831 23.25 17.5498C23.0833 17.7165 22.875 17.7998 22.625 17.7998H19.2ZM12 14.7498C10.95 14.7498 10.054 14.8915 9.312 15.1748C8.57067 15.4581 8.15833 15.7998 8.075 16.1998V16.2998H15.925V16.1998C15.825 15.7831 15.4083 15.4371 14.675 15.1618C13.9417 14.8871 13.05 14.7498 12 14.7498ZM12 12.4998C11.2833 12.4998 10.671 12.2458 10.163 11.7378C9.65433 11.2291 9.4 10.6165 9.4 9.8998C9.4 9.18314 9.65433 8.57047 10.163 8.0618C10.671 7.5538 11.2833 7.2998 12 7.2998C12.7167 7.2998 13.3293 7.5538 13.838 8.0618C14.346 8.57047 14.6 9.18314 14.6 9.8998C14.6 10.6165 14.346 11.2291 13.838 11.7378C13.3293 12.2458 12.7167 12.4998 12 12.4998ZM12 8.7998C11.6833 8.7998 11.421 8.9038 11.213 9.1118C11.0043 9.32047 10.9 9.58314 10.9 9.8998C10.9 10.2165 11.0043 10.4791 11.213 10.6878C11.421 10.8958 11.6833 10.9998 12 10.9998C12.3167 10.9998 12.5793 10.8958 12.788 10.6878C12.996 10.4791 13.1 10.2165 13.1 9.8998C13.1 9.5998 12.996 9.34147 12.788 9.1248C12.5793 8.90814 12.3167 8.7998 12 8.7998Z" fill="currentColor"/>
</svg>
