<svg width="48" viewBox="0 0 48 48" fill="none" xmlns="http://www.w3.org/2000/svg">
<path d="M12.208 37.625C11.9307 37.625 11.6877 37.5207 11.479 37.312C11.271 37.104 11.167 36.861 11.167 36.583V34.875H10.458C9.34733 34.875 8.41 34.486 7.646 33.708C6.882 32.9307 6.5 32.0003 6.5 30.917V21.667C6.5 20.4443 6.896 19.4997 7.688 18.833C8.47933 18.1663 9.361 17.833 10.333 17.833V14.708C10.333 13.5973 10.7013 12.6807 11.438 11.958C12.174 11.236 13.0837 10.875 14.167 10.875H33.833C34.9443 10.875 35.861 11.236 36.583 11.958C37.3057 12.6807 37.667 13.5973 37.667 14.708V17.833C38.6943 17.833 39.59 18.1733 40.354 18.854C41.118 19.5347 41.5 20.4723 41.5 21.667V30.917C41.5 32.0003 41.118 32.9307 40.354 33.708C39.59 34.486 38.6527 34.875 37.542 34.875H36.833V36.583C36.833 36.861 36.736 37.104 36.542 37.312C36.3473 37.5207 36.0973 37.625 35.792 37.625C35.514 37.625 35.2707 37.5207 35.062 37.312C34.854 37.104 34.75 36.861 34.75 36.583V34.875H13.292V36.583C13.292 36.861 13.1877 37.104 12.979 37.312C12.771 37.5207 12.514 37.625 12.208 37.625ZM10.458 32.75H37.542C38.042 32.75 38.4793 32.5693 38.854 32.208C39.2293 31.8473 39.417 31.417 39.417 30.917V21.667C39.417 21.167 39.2503 20.7503 38.917 20.417C38.5837 20.0837 38.167 19.917 37.667 19.917C37.139 19.917 36.7153 20.0837 36.396 20.417C36.0767 20.7503 35.917 21.167 35.917 21.667V28.25H12.083V21.667C12.083 21.167 11.9233 20.7503 11.604 20.417C11.2847 20.0837 10.861 19.917 10.333 19.917C9.833 19.917 9.41633 20.0837 9.083 20.417C8.74967 20.7503 8.583 21.167 8.583 21.667V30.917C8.583 31.417 8.77067 31.8473 9.146 32.208C9.52067 32.5693 9.958 32.75 10.458 32.75ZM14.167 26.167H33.833V21.667C33.833 20.9443 33.9997 20.3123 34.333 19.771C34.6663 19.229 35.083 18.8053 35.583 18.5V14.708C35.583 14.1807 35.4163 13.7573 35.083 13.438C34.7497 13.118 34.333 12.958 33.833 12.958H14.167C13.667 12.958 13.2503 13.118 12.917 13.438C12.5837 13.7573 12.417 14.1807 12.417 14.708V18.5C12.917 18.8053 13.3337 19.229 13.667 19.771C14.0003 20.3123 14.167 20.9443 14.167 21.667V26.167Z" fill="currentColor"/>
</svg>
