<svg width="56" viewBox="0 0 56 56" fill="none" xmlns="http://www.w3.org/2000/svg">
<path d="M22.95 38.5C22.75 38.5 22.575 38.4667 22.425 38.4C22.275 38.3333 22.1167 38.2167 21.95 38.05L13.25 29.4C13.0167 29.1667 12.9 28.8917 12.9 28.575C12.9 28.2583 13.0167 27.9833 13.25 27.75C13.4833 27.5167 13.75 27.4 14.05 27.4C14.35 27.4 14.6167 27.5167 14.85 27.75L22.95 35.85L41.1 17.65C41.3333 17.45 41.6083 17.35 41.925 17.35C42.2417 17.35 42.5167 17.45 42.75 17.65C42.9833 17.9167 43.1 18.2 43.1 18.5C43.1 18.8 42.9833 19.0667 42.75 19.3L23.95 38.05C23.8167 38.2167 23.6667 38.3333 23.5 38.4C23.3333 38.4667 23.15 38.5 22.95 38.5Z" fill="currentColor"/>
</svg>
