<svg width="24" viewBox="0 0 24 24" fill="none" xmlns="http://www.w3.org/2000/svg">
<path d="M9 14.25C8.65 14.25 8.35433 14.129 8.113 13.887C7.871 13.6457 7.75 13.35 7.75 13C7.75 12.65 7.871 12.3543 8.113 12.113C8.35433 11.871 8.65 11.75 9 11.75C9.35 11.75 9.64567 11.871 9.887 12.113C10.129 12.3543 10.25 12.65 10.25 13C10.25 13.35 10.129 13.6457 9.887 13.887C9.64567 14.129 9.35 14.25 9 14.25ZM15 14.25C14.65 14.25 14.3543 14.129 14.113 13.887C13.871 13.6457 13.75 13.35 13.75 13C13.75 12.65 13.871 12.3543 14.113 12.113C14.3543 11.871 14.65 11.75 15 11.75C15.35 11.75 15.6457 11.871 15.887 12.113C16.129 12.3543 16.25 12.65 16.25 13C16.25 13.35 16.129 13.6457 15.887 13.887C15.6457 14.129 15.35 14.25 15 14.25ZM12 20C14.2333 20 16.125 19.225 17.675 17.675C19.225 16.125 20 14.2333 20 12C20 11.6 19.975 11.2123 19.925 10.837C19.875 10.4623 19.7833 10.1 19.65 9.75C19.3 9.83333 18.95 9.896 18.6 9.938C18.25 9.97933 17.8833 10 17.5 10C15.9833 10 14.55 9.675 13.2 9.025C11.85 8.375 10.7 7.46667 9.75 6.3C9.21667 7.6 8.45433 8.72933 7.463 9.688C6.471 10.646 5.31667 11.3667 4 11.85V12C4 14.2333 4.775 16.125 6.325 17.675C7.875 19.225 9.76667 20 12 20ZM12 21.5C10.6833 21.5 9.446 21.25 8.288 20.75C7.12933 20.25 6.125 19.575 5.275 18.725C4.425 17.875 3.75 16.8707 3.25 15.712C2.75 14.554 2.5 13.3167 2.5 12C2.5 10.6833 2.75 9.44567 3.25 8.287C3.75 7.129 4.425 6.125 5.275 5.275C6.125 4.425 7.12933 3.75 8.288 3.25C9.446 2.75 10.6833 2.5 12 2.5C13.3167 2.5 14.5543 2.75 15.713 3.25C16.871 3.75 17.875 4.425 18.725 5.275C19.575 6.125 20.25 7.129 20.75 8.287C21.25 9.44567 21.5 10.6833 21.5 12C21.5 13.3167 21.25 14.554 20.75 15.712C20.25 16.8707 19.575 17.875 18.725 18.725C17.875 19.575 16.871 20.25 15.713 20.75C14.5543 21.25 13.3167 21.5 12 21.5ZM10.175 4.225C10.9417 5.625 11.996 6.68733 13.338 7.412C14.6793 8.13733 16.0667 8.5 17.5 8.5C17.7667 8.5 18.0293 8.48733 18.288 8.462C18.546 8.43733 18.8083 8.39167 19.075 8.325C18.4083 7.00833 17.4417 5.95833 16.175 5.175C14.9083 4.39167 13.5167 4 12 4C11.6667 4 11.354 4.02067 11.062 4.062C10.7707 4.104 10.475 4.15833 10.175 4.225ZM4.275 10.1C5.225 9.61667 6.121 8.925 6.963 8.025C7.80433 7.125 8.35 6.04167 8.6 4.775C7.5 5.275 6.575 5.98733 5.825 6.912C5.075 7.83733 4.55833 8.9 4.275 10.1Z" fill="currentColor"/>
</svg>
