<svg width="24" viewBox="0 0 24 24" fill="none"
  xmlns="http://www.w3.org/2000/svg">
  <path d="M14.354 15.312C14.4793 15.4373 14.632 15.5 14.812 15.5C14.9927 15.5 15.1527 15.4307 15.292 15.292C15.4447 15.1387 15.521 14.9753 15.521 14.802C15.521 14.6287 15.4447 14.4723 15.292 14.333L12.667 11.708V8.52101C12.667 8.35434 12.6043 8.20501 12.479 8.07301C12.3543 7.94101 12.1947 7.87501 12 7.87501C11.8193 7.87501 11.663 7.94101 11.531 8.07301C11.399 8.20501 11.333 8.36134 11.333 8.54201V11.958C11.333 12.0413 11.3503 12.1283 11.385 12.219C11.4203 12.309 11.4793 12.3957 11.562 12.479L14.354 15.312ZM12 19.917C10.9027 19.917 9.87134 19.7087 8.90601 19.292C7.94067 18.8753 7.10401 18.3127 6.39601 17.604C5.68734 16.896 5.12467 16.0593 4.70801 15.094C4.29134 14.1287 4.08301 13.0973 4.08301 12C4.08301 10.9027 4.29134 9.87134 4.70801 8.90601C5.12467 7.94067 5.68734 7.10401 6.39601 6.39601C7.10401 5.68734 7.94067 5.12467 8.90601 4.70801C9.87134 4.29134 10.9027 4.08301 12 4.08301C13.0973 4.08301 14.1287 4.29134 15.094 4.70801C16.0593 5.12467 16.896 5.68734 17.604 6.39601C18.3127 7.10401 18.8753 7.94067 19.292 8.90601C19.7087 9.87134 19.917 10.9027 19.917 12C19.917 13.0973 19.7087 14.1287 19.292 15.094C18.8753 16.0593 18.3127 16.896 17.604 17.604C16.896 18.3127 16.0593 18.8753 15.094 19.292C14.1287 19.7087 13.0973 19.917 12 19.917ZM12 18.583C13.8193 18.583 15.3713 17.9407 16.656 16.656C17.9407 15.3713 18.583 13.8193 18.583 12C18.583 10.1807 17.9407 8.62867 16.656 7.34401C15.3713 6.05934 13.8193 5.41701 12 5.41701C10.1807 5.41701 8.62867 6.05934 7.34401 7.34401C6.05934 8.62867 5.41701 10.1807 5.41701 12C5.41701 13.8193 6.05934 15.3713 7.34401 16.656C8.62867 17.9407 10.1807 18.583 12 18.583Z" fill="currentColor"/>
</svg>
