<svg width="40" viewBox="0 0 40 40" fill="none" xmlns="http://www.w3.org/2000/svg">
<path d="M20 21.458L11.25 30.208C11.0553 30.4027 10.8193 30.507 10.542 30.521C10.264 30.535 10.014 30.4307 9.792 30.208C9.56933 29.986 9.458 29.736 9.458 29.458C9.458 29.1807 9.56933 28.9447 9.792 28.75L18.542 20L9.792 11.25C9.59733 11.0553 9.493 10.8193 9.479 10.542C9.465 10.264 9.56933 10.014 9.792 9.79201C10.014 9.56934 10.264 9.45801 10.542 9.45801C10.8193 9.45801 11.0553 9.56934 11.25 9.79201L20 18.542L28.75 9.79201C28.9447 9.59734 29.1807 9.49301 29.458 9.47901C29.736 9.46501 29.986 9.56934 30.208 9.79201C30.4307 10.014 30.542 10.264 30.542 10.542C30.542 10.8193 30.4307 11.0553 30.208 11.25L21.458 20L30.208 28.75C30.4027 28.9447 30.507 29.1807 30.521 29.458C30.535 29.736 30.4307 29.986 30.208 30.208C29.986 30.4307 29.736 30.542 29.458 30.542C29.1807 30.542 28.9447 30.4307 28.75 30.208L20 21.458Z" fill="currentColor"/>
</svg>
