<svg width="24" viewBox="0 0 24 24" fill="none" xmlns="http://www.w3.org/2000/svg">
<path d="M4.85 21V11.4L4.575 11.125C4.39167 10.9417 4.25 10.725 4.15 10.475C4.05 10.225 4 9.96667 4 9.7C4 9.43333 4.05 9.17933 4.15 8.938C4.25 8.696 4.39167 8.48333 4.575 8.3L7.85 5H11.85L15.85 1L17.9 3.05C18.5667 3.71667 19.0833 4.47067 19.45 5.312C19.8167 6.154 20 7.05 20 8C20 8.95 19.8167 9.846 19.45 10.688C19.0833 11.5293 18.5667 12.2833 17.9 12.95L15.85 15V21H4.85ZM6.85 19H13.85V14.175L16.475 11.55C16.9583 11.0667 17.3333 10.525 17.6 9.925C17.8667 9.325 18 8.68333 18 8C18 7.33333 17.8623 6.7 17.587 6.1C17.3123 5.5 16.9417 4.95833 16.475 4.475L15.85 3.825L12.675 7H8.675L8.1 7.575L9.775 9.25C10.2417 9.71667 10.6043 10.254 10.863 10.862C11.121 11.4707 11.25 12.1083 11.25 12.775C11.25 13.4417 11.125 14.0793 10.875 14.688C10.625 15.296 10.2583 15.8417 9.775 16.325L6.85 13.4V19Z" fill="currentColor"/>
</svg>
