<svg width="20" viewBox="0 0 20 20" fill="none" xmlns="http://www.w3.org/2000/svg">
<path d="M10 15.646C10.1667 15.646 10.3057 15.587 10.417 15.469C10.5277 15.351 10.583 15.2087 10.583 15.042V14.625C11.375 14.5137 11.9897 14.2393 12.427 13.802C12.8643 13.3647 13.083 12.7987 13.083 12.104C13.083 11.4233 12.8817 10.8713 12.479 10.448C12.0763 10.024 11.4513 9.65234 10.604 9.33301C9.71534 9.04167 9.13567 8.78467 8.86501 8.56201C8.59367 8.34001 8.45801 8.04868 8.45801 7.68801C8.45801 7.29868 8.60401 6.98601 8.89601 6.75001C9.18734 6.51401 9.56934 6.39601 10.042 6.39601C10.3333 6.39601 10.59 6.44801 10.812 6.55201C11.0347 6.65601 11.2293 6.80534 11.396 7.00001C11.5207 7.13867 11.6527 7.23234 11.792 7.28101C11.9307 7.32967 12.0627 7.32634 12.188 7.27101C12.368 7.20167 12.4893 7.09067 12.552 6.93801C12.6147 6.78468 12.6043 6.64567 12.521 6.52101C12.299 6.18767 12.0177 5.92034 11.677 5.71901C11.337 5.51767 10.9863 5.39601 10.625 5.35401V4.93801C10.625 4.77134 10.5693 4.63234 10.458 4.52101C10.3473 4.40967 10.2087 4.35401 10.042 4.35401C9.87534 4.35401 9.73301 4.40967 9.61501 4.52101C9.49701 4.63234 9.43801 4.77134 9.43801 4.93801V5.37501C8.75734 5.49967 8.21901 5.77734 7.82301 6.20801C7.42701 6.63867 7.22901 7.13201 7.22901 7.68801C7.22901 8.28468 7.41301 8.77767 7.78101 9.16701C8.14901 9.55567 8.77067 9.90967 9.64601 10.229C10.5767 10.5763 11.1843 10.875 11.469 11.125C11.7537 11.375 11.896 11.7013 11.896 12.104C11.896 12.5627 11.7257 12.917 11.385 13.167C11.045 13.417 10.625 13.542 10.125 13.542C9.72234 13.542 9.37167 13.4447 9.07301 13.25C8.77434 13.0553 8.52067 12.7847 8.31201 12.438C8.22934 12.2987 8.11134 12.1943 7.95801 12.125C7.80534 12.0557 7.65267 12.0487 7.50001 12.104C7.33334 12.1733 7.21867 12.288 7.15601 12.448C7.09334 12.608 7.11067 12.7713 7.20801 12.938C7.43067 13.382 7.72601 13.7393 8.09401 14.01C8.46201 14.2813 8.89601 14.4723 9.39601 14.583V15.062C9.39601 15.2287 9.45501 15.3677 9.57301 15.479C9.69101 15.5903 9.83334 15.646 10 15.646ZM10 17.917C8.90267 17.917 7.87134 17.7087 6.90601 17.292C5.94067 16.8753 5.10401 16.3127 4.39601 15.604C3.68734 14.896 3.12467 14.0593 2.70801 13.094C2.29134 12.1287 2.08301 11.0973 2.08301 10C2.08301 8.90267 2.29134 7.87134 2.70801 6.90601C3.12467 5.94067 3.68734 5.10401 4.39601 4.39601C5.10401 3.68734 5.94067 3.12467 6.90601 2.70801C7.87134 2.29134 8.90267 2.08301 10 2.08301C11.0973 2.08301 12.1287 2.29134 13.094 2.70801C14.0593 3.12467 14.896 3.68734 15.604 4.39601C16.3127 5.10401 16.8753 5.94067 17.292 6.90601C17.7087 7.87134 17.917 8.90267 17.917 10C17.917 11.0973 17.7087 12.1287 17.292 13.094C16.8753 14.0593 16.3127 14.896 15.604 15.604C14.896 16.3127 14.0593 16.8753 13.094 17.292C12.1287 17.7087 11.0973 17.917 10 17.917ZM10 16.583C11.8193 16.583 13.3713 15.9407 14.656 14.656C15.9407 13.3713 16.583 11.8193 16.583 10C16.583 8.18067 15.9407 6.62867 14.656 5.34401C13.3713 4.05934 11.8193 3.41701 10 3.41701C8.18067 3.41701 6.62867 4.05934 5.34401 5.34401C4.05934 6.62867 3.41701 8.18067 3.41701 10C3.41701 11.8193 4.05934 13.3713 5.34401 14.656C6.62867 15.9407 8.18067 16.583 10 16.583Z" fill="currentColor"/>
</svg>
