<svg width="14" viewBox="0 0 14 20" fill="none" xmlns="http://www.w3.org/2000/svg">
<path d="M7 19.0752C6.88333 19.0752 6.771 19.0585 6.663 19.0252C6.55433 18.9919 6.45833 18.9252 6.375 18.8252L0.85 13.3002C0.7 13.1669 0.625 12.9959 0.625 12.7872C0.625 12.5792 0.7 12.4002 0.85 12.2502C1 12.1169 1.17933 12.0502 1.388 12.0502C1.596 12.0502 1.775 12.1169 1.925 12.2502L6.25 16.6002V1.2002C6.25 0.983529 6.321 0.804195 6.463 0.662195C6.60433 0.520862 6.78333 0.450195 7 0.450195C7.21667 0.450195 7.396 0.520862 7.538 0.662195C7.67933 0.804195 7.75 0.983529 7.75 1.2002V16.6002L12.1 12.2502C12.2333 12.1169 12.4043 12.0459 12.613 12.0372C12.821 12.0292 13 12.1002 13.15 12.2502C13.3 12.4002 13.375 12.5792 13.375 12.7872C13.375 12.9959 13.3 13.1669 13.15 13.3002L7.625 18.8252C7.54167 18.9252 7.446 18.9919 7.338 19.0252C7.22933 19.0585 7.11667 19.0752 7 19.0752Z" fill="currentColor"/>
</svg>
