<svg viewBox="0 0 29 30" fill="none" xmlns="http://www.w3.org/2000/svg">
<path d="M18.333 30C17.9443 30 17.618 29.861 17.354 29.583C17.09 29.3057 16.958 28.9863 16.958 28.625C16.958 28.2083 17.09 27.868 17.354 27.604C17.618 27.34 17.9443 27.208 18.333 27.208C19.861 27.208 21.1667 26.9027 22.25 26.292C23.3333 25.6807 23.875 24.9723 23.875 24.167C23.875 23.611 23.5417 23.076 22.875 22.562C22.2083 22.0487 21.3057 21.6253 20.167 21.292L22.292 19.167C23.764 19.6943 24.861 20.3887 25.583 21.25C26.3057 22.1113 26.667 23.0837 26.667 24.167C26.667 26.0277 25.8127 27.465 24.104 28.479C22.396 29.493 20.4723 30 18.333 30ZM4.208 17.583C2.764 17.1663 1.70167 16.576 1.021 15.812C0.340333 15.0487 0 14.2223 0 13.333C0 12.3057 0.382 11.396 1.146 10.604C1.91 9.81267 3.542 8.94467 6.042 8C7.84733 7.278 9.007 6.72933 9.521 6.354C10.035 5.97933 10.292 5.542 10.292 5.042C10.292 4.43067 9.99333 3.90267 9.396 3.458C8.79867 3.014 7.889 2.792 6.667 2.792C5.94433 2.792 5.326 2.88233 4.812 3.063C4.29867 3.243 3.83367 3.54133 3.417 3.958C3.167 4.208 2.85433 4.354 2.479 4.396C2.10433 4.43733 1.764 4.333 1.458 4.083C1.12467 3.833 0.944333 3.52767 0.917 3.167C0.889 2.80567 1 2.47233 1.25 2.167C1.75 1.55567 2.47933 1.04167 3.438 0.625C4.396 0.208333 5.47233 0 6.667 0C8.58367 0 10.1253 0.451333 11.292 1.354C12.4587 2.25667 13.042 3.486 13.042 5.042C13.042 6.15267 12.646 7.118 11.854 7.938C11.0627 8.75733 9.48633 9.62533 7.125 10.542C5.347 11.236 4.18033 11.7707 3.625 12.146C3.06967 12.5207 2.792 12.9163 2.792 13.333C2.792 13.7223 3.09067 14.0907 3.688 14.438C4.28467 14.7847 5.18033 15.111 6.375 15.417L4.208 17.583ZM25.917 11.667L20 5.75L21.833 3.917C22.389 3.361 23.028 3.083 23.75 3.083C24.472 3.083 25.097 3.361 25.625 3.917L27.75 6.042C28.3053 6.56933 28.583 7.19433 28.583 7.917C28.583 8.639 28.3053 9.27767 27.75 9.833L25.917 11.667ZM4.458 27.208H6.375L19.958 13.625L18.042 11.708L4.458 25.292V27.208ZM1.667 30V24.083L18.042 7.708L23.958 13.625L7.583 30H1.667ZM18.042 11.708L19.958 13.625L18.042 11.708Z" fill="currentColor"/>
</svg>
