<svg width="24" viewBox="0 0 24 24" fill="none" xmlns="http://www.w3.org/2000/svg">
<path d="M3 1.99951L5.01 20.2295C5.13 21.2295 5.97 21.9995 7 21.9995H17C18.03 21.9995 18.87 21.2295 18.99 20.2295L21 1.99951H3ZM17 19.9995L7 20.0095L5.89 9.99951H18.1L17 19.9995ZM18.33 7.99951H5.67L5.23 3.99951H18.76L18.33 7.99951ZM12 18.9995C13.66 18.9995 15 17.6595 15 15.9995C15 13.9995 12 10.5995 12 10.5995C12 10.5995 9 13.9995 9 15.9995C9 17.6595 10.34 18.9995 12 18.9995ZM12 13.9095C12.59 14.8195 13 15.6395 13 15.9995C13 16.5495 12.55 16.9995 12 16.9995C11.45 16.9995 11 16.5495 11 15.9995C11 15.6295 11.41 14.8095 12 13.9095Z" fill="currentColor"/>
</svg>
