<svg width="24" viewBox="0 0 24 24" fill="none" xmlns="http://www.w3.org/2000/svg">
<path d="M6.41797 14.0001C6.41797 12.9027 6.71997 11.7464 7.32397 10.5311C7.92797 9.31574 8.79964 8.16641 9.93897 7.08307C10.3136 6.73574 10.685 6.60741 11.053 6.69807C11.421 6.78807 11.605 7.05541 11.605 7.50007V7.64607C11.605 8.10407 11.7926 8.51041 12.168 8.86507C12.5426 9.21907 12.994 9.39607 13.522 9.39607C13.758 9.39607 13.9663 9.36474 14.147 9.30207C14.3276 9.23941 14.4873 9.14574 14.626 9.02107C14.7646 8.88174 14.928 8.80874 15.116 8.80207C15.3033 8.79541 15.4593 8.84741 15.584 8.95807C16.1953 9.52741 16.685 10.2671 17.053 11.1771C17.421 12.0871 17.598 13.0211 17.584 13.9791C17.57 15.0904 17.2783 16.0871 16.709 16.9691C16.1396 17.8511 15.355 18.5211 14.355 18.9791C14.605 18.7011 14.796 18.3921 14.928 18.0521C15.06 17.7121 15.126 17.3614 15.126 17.0001C15.126 16.6387 15.0636 16.2777 14.939 15.9171C14.8136 15.5557 14.619 15.2294 14.355 14.9381L12.001 12.2501L9.64697 14.9381C9.39697 15.2294 9.20597 15.5521 9.07397 15.9061C8.94197 16.2607 8.87597 16.6254 8.87597 17.0001C8.87597 17.3747 8.9453 17.7357 9.08397 18.0831C9.2233 18.4304 9.42497 18.7431 9.68897 19.0211C8.68897 18.5764 7.89364 17.9027 7.30297 17.0001C6.71297 16.0974 6.41797 15.0974 6.41797 14.0001ZM12.001 13.9171L13.522 15.6461C13.7026 15.8407 13.8346 16.0524 13.918 16.2811C14.0013 16.5104 14.043 16.7501 14.043 17.0001C14.043 17.5694 13.845 18.0521 13.449 18.4481C13.053 18.8441 12.5703 19.0421 12.001 19.0421C11.4316 19.0421 10.949 18.8441 10.553 18.4481C10.157 18.0521 9.95897 17.5694 9.95897 17.0001C9.95897 16.7501 10.0006 16.5104 10.084 16.2811C10.1673 16.0524 10.2993 15.8407 10.48 15.6461L12.001 13.9171Z" fill="currentColor"/>
</svg>
