<svg width="20" viewBox="0 0 20 20" fill="none" xmlns="http://www.w3.org/2000/svg">
<path d="M7.354 14.229C7.20133 14.0763 7.125 13.9167 7.125 13.75C7.125 13.5833 7.20133 13.4237 7.354 13.271L10.625 9.99999L7.354 6.72899C7.20133 6.57633 7.125 6.41666 7.125 6.24999C7.125 6.08333 7.20133 5.92366 7.354 5.77099C7.50667 5.61833 7.66633 5.54199 7.833 5.54199C7.99967 5.54199 8.15933 5.61833 8.312 5.77099L11.979 9.43799C12.0623 9.52066 12.125 9.61066 12.167 9.70799C12.2083 9.80533 12.229 9.90266 12.229 9.99999C12.229 10.0973 12.2083 10.1947 12.167 10.292C12.125 10.3893 12.0623 10.4793 11.979 10.562L8.312 14.229C8.15933 14.3817 7.99967 14.458 7.833 14.458C7.66633 14.458 7.50667 14.3817 7.354 14.229Z" fill="currentColor"/>
</svg>
