<svg width="56" viewBox="0 0 56 56" fill="none" xmlns="http://www.w3.org/2000/svg">
<path d="M9.65 41C8.88333 41 8.20833 40.7083 7.625 40.125C7.04167 39.5417 6.75 38.8667 6.75 38.1V17.9C6.75 17.1333 7.04167 16.4583 7.625 15.875C8.20833 15.2917 8.88333 15 9.65 15H29.9C30.6667 15 31.3333 15.2917 31.9 15.875C32.4667 16.4583 32.75 17.1333 32.75 17.9V38.1C32.75 38.8667 32.4667 39.5417 31.9 40.125C31.3333 40.7083 30.6667 41 29.9 41H9.65ZM9.65 38.75H29.9C30.0667 38.75 30.2083 38.6917 30.325 38.575C30.4417 38.4583 30.5 38.3 30.5 38.1V17.9C30.5 17.7 30.4417 17.5417 30.325 17.425C30.2083 17.3083 30.0667 17.25 29.9 17.25H9.65C9.48333 17.25 9.34167 17.3083 9.225 17.425C9.10833 17.5417 9.05 17.7 9.05 17.9V38.1C9.05 38.3 9.10833 38.4583 9.225 38.575C9.34167 38.6917 9.48333 38.75 9.65 38.75ZM39.85 41C39.5167 41 39.25 40.8917 39.05 40.675C38.85 40.4583 38.75 40.1833 38.75 39.85V16.1C38.75 15.8 38.8583 15.5417 39.075 15.325C39.2917 15.1083 39.5667 15 39.9 15C40.2 15 40.4583 15.1083 40.675 15.325C40.8917 15.5417 41 15.8167 41 16.15V39.9C41 40.2 40.8917 40.4583 40.675 40.675C40.4583 40.8917 40.1833 41 39.85 41ZM48.1 41C47.7667 41 47.4917 40.8917 47.275 40.675C47.0583 40.4583 46.95 40.1833 46.95 39.85V16.1C46.95 15.8 47.0667 15.5417 47.3 15.325C47.5333 15.1083 47.8 15 48.1 15C48.4333 15 48.7083 15.1083 48.925 15.325C49.1417 15.5417 49.25 15.8167 49.25 16.15V39.9C49.25 40.2 49.1333 40.4583 48.9 40.675C48.6667 40.8917 48.4 41 48.1 41ZM13.1 33.9H26.35C26.55 33.9 26.7 33.8 26.8 33.6C26.9 33.4 26.8833 33.2167 26.75 33.05L23.2 28.35C23.1 28.1833 22.9583 28.1 22.775 28.1C22.5917 28.1 22.4333 28.1833 22.3 28.35L18.65 33.1L16.15 29.7C16.0167 29.5667 15.8667 29.5 15.7 29.5C15.5333 29.5 15.3833 29.5667 15.25 29.7L12.7 33.1C12.5333 33.2667 12.5 33.4417 12.6 33.625C12.7 33.8083 12.8667 33.9 13.1 33.9Z" fill="currentColor"/>
</svg>
