<svg width="144" viewBox="0 0 144 44" fill="none" xmlns="http://www.w3.org/2000/svg">
<g clip-path="url(#clip0_4175_21843)">
<mask id="mask0_4175_21843" style="mask-type:luminance" maskUnits="userSpaceOnUse" x="-11" y="-11" width="166" height="65">
<path d="M-10.4004 -10.3965H154.933V53.6035H-10.4004V-10.3965Z" fill="white"/>
</mask>
<g mask="url(#mask0_4175_21843)">
<path d="M138.933 42.9355H5.59994C2.6666 42.9355 0.266602 40.5355 0.266602 37.6022V5.60222C0.266602 2.66889 2.6666 0.268888 5.59994 0.268888H138.933C141.867 0.268888 144.267 2.66889 144.267 5.60222V37.6022C144.267 40.5355 141.867 42.9355 138.933 42.9355Z" fill="black"/>
<path d="M138.933 0.268888H5.59994C2.6666 0.268888 0.266602 2.66889 0.266602 5.60222V37.6022C0.266602 40.5355 2.6666 42.9355 5.59994 42.9355H138.933C141.867 42.9355 144.267 40.5355 144.267 37.6022V5.60222C144.267 2.66889 141.867 0.268888 138.933 0.268888ZM138.933 1.12222C141.404 1.12222 143.413 3.13182 143.413 5.60222V37.6022C143.413 40.0726 141.404 42.0822 138.933 42.0822H5.59994C3.12954 42.0822 1.11994 40.0726 1.11994 37.6022V5.60222C1.11994 3.13182 3.12954 1.12222 5.59994 1.12222H138.933Z" fill="#A6A6A6"/>
<path d="M114.332 32.2695H116.322V18.9351H114.332V32.2695ZM132.259 23.7383L129.978 29.5196H129.909L127.541 23.7383H125.397L128.948 31.8183L126.925 36.3132H129L134.473 23.7383H132.259ZM120.972 30.7548C120.319 30.7548 119.41 30.4295 119.41 29.622C119.41 28.5937 120.542 28.1991 121.52 28.1991C122.395 28.1991 122.808 28.3879 123.339 28.6449C123.184 29.8801 122.121 30.7548 120.972 30.7548ZM121.212 23.4471C119.771 23.4471 118.277 24.0817 117.661 25.4887L119.427 26.2257C119.805 25.4887 120.508 25.2476 121.246 25.2476C122.275 25.2476 123.322 25.8652 123.339 26.9639V27.1004C122.978 26.8945 122.207 26.5863 121.263 26.5863C119.359 26.5863 117.42 27.6327 117.42 29.5879C117.42 31.3724 118.981 32.5223 120.731 32.5223C122.069 32.5223 122.808 31.9217 123.271 31.2177H123.339V32.2471H125.26V27.1345C125.26 24.7676 123.493 23.4471 121.212 23.4471ZM108.911 25.3617H106.08V20.7911H108.911C110.399 20.7911 111.244 22.0231 111.244 23.0759C111.244 24.1095 110.399 25.3617 108.911 25.3617ZM108.86 18.9351H104.091V32.2695H106.08V27.2177H108.86C111.066 27.2177 113.234 25.6199 113.234 23.0759C113.234 20.5319 111.066 18.9351 108.86 18.9351ZM82.8535 30.7569C81.4785 30.7569 80.3276 29.606 80.3276 28.0252C80.3276 26.4273 81.4785 25.2583 82.8535 25.2583C84.2113 25.2583 85.2759 26.4273 85.2759 28.0252C85.2759 29.606 84.2113 30.7569 82.8535 30.7569ZM85.1393 24.4849H85.07C84.6231 23.9527 83.7644 23.4716 82.6817 23.4716C80.4129 23.4716 78.334 25.4641 78.334 28.0252C78.334 30.5681 80.4129 32.5447 82.6817 32.5447C83.7644 32.5447 84.6231 32.0636 85.07 31.5132H85.1393V32.1671C85.1393 33.9025 84.2113 34.8305 82.7159 34.8305C81.4956 34.8305 80.7393 33.9537 80.43 33.2145L78.6945 33.9367C79.1927 35.1399 80.5164 36.6172 82.7159 36.6172C85.0529 36.6172 87.0294 35.2423 87.0294 31.8919V23.7457H85.1393V24.4849ZM88.4044 32.2695H90.398V18.934H88.4044V32.2695ZM93.3356 27.8705C93.2844 26.118 94.6935 25.2241 95.7068 25.2241C96.4983 25.2241 97.1681 25.6188 97.3911 26.1863L93.3356 27.8705ZM99.5223 26.358C99.1447 25.3447 97.9927 23.4716 95.6385 23.4716C93.3015 23.4716 91.3601 25.3095 91.3601 28.0081C91.3601 30.5511 93.2844 32.5447 95.8615 32.5447C97.9415 32.5447 99.1447 31.2732 99.6428 30.534L98.0961 29.5025C97.5809 30.2588 96.8759 30.7569 95.8615 30.7569C94.8481 30.7569 94.126 30.2929 93.662 29.3831L99.7281 26.8732L99.5223 26.358ZM51.1937 24.8636V26.7879H55.7985C55.6609 27.8705 55.3004 28.6609 54.7511 29.2103C54.0801 29.8812 53.0316 30.6204 51.1937 30.6204C48.3575 30.6204 46.1409 28.3345 46.1409 25.4993C46.1409 22.6631 48.3575 20.3783 51.1937 20.3783C52.7233 20.3783 53.8401 20.9799 54.6647 21.7532L56.0225 20.3953C54.8705 19.2956 53.342 18.4529 51.1937 18.4529C47.31 18.4529 44.0449 21.6156 44.0449 25.4993C44.0449 29.3831 47.31 32.5447 51.1937 32.5447C53.2897 32.5447 54.8705 31.8567 56.1079 30.5681C57.3804 29.2967 57.7751 27.51 57.7751 26.0657C57.7751 25.6188 57.7409 25.2071 57.6716 24.8636H51.1937ZM63.0113 30.7569C61.6364 30.7569 60.4503 29.6231 60.4503 28.0081C60.4503 26.3751 61.6364 25.2583 63.0113 25.2583C64.3852 25.2583 65.5713 26.3751 65.5713 28.0081C65.5713 29.6231 64.3852 30.7569 63.0113 30.7569ZM63.0113 23.4716C60.5015 23.4716 58.4567 25.3788 58.4567 28.0081C58.4567 30.6204 60.5015 32.5447 63.0113 32.5447C65.5201 32.5447 67.5649 30.6204 67.5649 28.0081C67.5649 25.3788 65.5201 23.4716 63.0113 23.4716ZM72.9452 30.7569C71.5703 30.7569 70.3841 29.6231 70.3841 28.0081C70.3841 26.3751 71.5703 25.2583 72.9452 25.2583C74.3201 25.2583 75.5052 26.3751 75.5052 28.0081C75.5052 29.6231 74.3201 30.7569 72.9452 30.7569ZM72.9452 23.4716C70.4364 23.4716 68.3916 25.3788 68.3916 28.0081C68.3916 30.6204 70.4364 32.5447 72.9452 32.5447C75.454 32.5447 77.4988 30.6204 77.4988 28.0081C77.4988 25.3788 75.454 23.4716 72.9452 23.4716Z" fill="white"/>
</g>
<path d="M11.3971 8.30812C11.0878 8.63666 10.9043 9.14653 10.9043 9.80679V33.3972C10.9043 34.0585 11.0878 34.5673 11.3971 34.8959L11.476 34.9727L24.692 21.7577V21.602V21.4452L11.476 8.23026L11.3971 8.30812Z" fill="url(#paint0_linear_4175_21843)"/>
<path d="M24.6924 21.448V21.6048V21.7605L29.0967 26.168L29.1969 26.1114L34.4161 23.1461C35.9063 22.2981 35.9063 20.9114 34.4161 20.0656L29.1969 17.0992L29.0977 17.0426L24.6924 21.448Z" fill="url(#paint1_linear_4175_21843)"/>
<path d="M11.3965 34.8994C11.8882 35.4189 12.7 35.484 13.6141 34.9656L29.196 26.1112L24.6914 21.6056L11.3965 34.8994Z" fill="url(#paint2_linear_4175_21843)"/>
<path d="M11.3975 8.30867L24.6924 21.6025L29.1969 17.0969L13.6151 8.24361C13.1863 7.99934 12.7799 7.88414 12.4193 7.88414C12.0097 7.88414 11.6588 8.03241 11.3975 8.30867Z" fill="url(#paint3_linear_4175_21843)"/>
<mask id="mask1_4175_21843" style="mask-type:luminance" maskUnits="userSpaceOnUse" x="11" y="26" width="19" height="10">
<path d="M11.3965 26.0138H29.1954V35.3252H11.3965V26.0138Z" fill="white"/>
</mask>
<g mask="url(#mask1_4175_21843)">
<g opacity="0.199997">
<path d="M29.0957 26.0149L13.613 34.8117C12.7469 35.3045 11.9725 35.2715 11.4754 34.8235L11.3965 34.9035L11.4754 34.9803C11.9725 35.4283 12.7469 35.4603 13.613 34.9675L29.1949 26.1141L29.0957 26.0149Z" fill="black"/>
</g>
</g>
<mask id="mask2_4175_21843" style="mask-type:luminance" maskUnits="userSpaceOnUse" x="10" y="33" width="2" height="2">
<path d="M10.9033 33.2411H11.4764V34.8955H10.9033V33.2411Z" fill="white"/>
</mask>
<g mask="url(#mask2_4175_21843)">
<g opacity="0.119995">
<path d="M11.3972 34.7388C11.0868 34.4103 10.9033 33.9004 10.9033 33.2401V33.3959C10.9033 34.0561 11.0868 34.566 11.3972 34.8945L11.4772 34.8156L11.3972 34.7388Z" fill="black"/>
</g>
</g>
<mask id="mask3_4175_21843" style="mask-type:luminance" maskUnits="userSpaceOnUse" x="29" y="21" width="7" height="6">
<path d="M29.0967 21.6014H35.5332V26.1064H29.0967V21.6014Z" fill="white"/>
</mask>
<g mask="url(#mask3_4175_21843)">
<g opacity="0.119995">
<path d="M34.4151 22.9844L29.0967 26.0063L29.1959 26.1055L34.4151 23.1401C35.1607 22.7167 35.5329 22.1588 35.5329 21.6009C35.47 22.1055 35.0913 22.6004 34.4151 22.9844Z" fill="black"/>
</g>
</g>
<mask id="mask4_4175_21843" style="mask-type:luminance" maskUnits="userSpaceOnUse" x="10" y="7" width="26" height="15">
<path d="M10.9033 7.88663H35.5331V21.6045H10.9033V7.88663Z" fill="white"/>
</mask>
<g mask="url(#mask4_4175_21843)">
<g opacity="0.25">
<path d="M13.6137 8.40129L34.4148 20.22C35.0911 20.604 35.4708 21.0989 35.5327 21.6045C35.5337 21.0466 35.1604 20.4877 34.4148 20.0642L13.6137 8.24556C12.1225 7.39863 10.9033 8.10156 10.9033 9.80929V9.96503C10.9033 8.25836 12.1225 7.55436 13.6137 8.40129Z" fill="white"/>
</g>
</g>
<path d="M45.1817 13.3496H46.3166C47.0558 13.3496 47.6414 13.1384 48.0734 12.7149C48.5054 12.2915 48.7209 11.6984 48.7209 10.9357C48.7209 10.1795 48.5054 9.58854 48.0734 9.16188C47.6414 8.73628 47.0558 8.52294 46.3166 8.52294H45.1817V13.3496ZM44.3604 14.1357V7.73574H46.3166C47.3001 7.73574 48.0873 8.03228 48.6772 8.62534C49.267 9.21841 49.5614 9.98854 49.5614 10.9357C49.5614 11.884 49.267 12.6541 48.6772 13.2461C48.0873 13.8403 47.3001 14.1357 46.3166 14.1357H44.3604Z" fill="white"/>
<path d="M45.1817 13.3496H46.3166C47.0558 13.3496 47.6414 13.1384 48.0734 12.7149C48.5054 12.2915 48.7209 11.6984 48.7209 10.9357C48.7209 10.1795 48.5054 9.58854 48.0734 9.16188C47.6414 8.73628 47.0558 8.52294 46.3166 8.52294H45.1817V13.3496ZM44.3604 14.1357V7.73574H46.3166C47.3001 7.73574 48.0873 8.03228 48.6772 8.62534C49.267 9.21841 49.5614 9.98854 49.5614 10.9357C49.5614 11.884 49.267 12.6541 48.6772 13.2461C48.0873 13.8403 47.3001 14.1357 46.3166 14.1357H44.3604Z" stroke="white" stroke-width="0.237037" stroke-miterlimit="10"/>
<path d="M50.7158 7.73574H51.5382V14.1357H50.7158V7.73574Z" fill="white" stroke="white" stroke-width="0.237037" stroke-miterlimit="10"/>
<path d="M54.8089 14.2793C54.3438 14.2793 53.8905 14.1278 53.4468 13.8238C53.002 13.5198 52.7108 13.0942 52.5742 12.5449L53.3252 12.242C53.4148 12.5929 53.5972 12.8894 53.8745 13.1305C54.1529 13.3716 54.4633 13.4932 54.8089 13.4932C55.1662 13.4932 55.4724 13.3993 55.7252 13.2116C55.979 13.0238 56.1049 12.7689 56.1049 12.4468C56.1049 12.0894 55.979 11.8142 55.7252 11.6201C55.4724 11.427 55.0713 11.2468 54.523 11.0793C53.9566 10.9012 53.5278 10.6697 53.2356 10.387C52.9444 10.1033 52.7972 9.7417 52.7972 9.3001C52.7972 8.84143 52.9796 8.4425 53.3433 8.1033C53.707 7.7641 54.1806 7.59343 54.7641 7.59343C55.307 7.59343 55.7476 7.7289 56.0868 7.99983C56.427 8.27183 56.6478 8.5673 56.7481 8.88943L55.9982 9.20196C55.9438 9.00036 55.8116 8.81156 55.6004 8.63876C55.3892 8.46703 55.1161 8.38063 54.7822 8.38063C54.4665 8.38063 54.1966 8.4681 53.9737 8.6441C53.7497 8.8201 53.6377 9.03876 53.6377 9.3001C53.6377 9.53903 53.7412 9.74063 53.946 9.90383C54.1529 10.0681 54.4548 10.2153 54.8537 10.3465C55.1694 10.4478 55.4329 10.546 55.6452 10.642C55.8564 10.7369 56.0718 10.8638 56.2884 11.0217C56.506 11.1796 56.6692 11.3758 56.7801 11.6116C56.89 11.8473 56.9454 12.1193 56.9454 12.4297C56.9454 12.739 56.8814 13.0164 56.7534 13.2606C56.6254 13.5049 56.4548 13.699 56.2436 13.842C56.0313 13.9849 55.8052 14.0937 55.5598 14.1673C55.3156 14.242 55.0649 14.2793 54.8089 14.2793Z" fill="white"/>
<path d="M54.8089 14.2793C54.3438 14.2793 53.8905 14.1278 53.4468 13.8238C53.002 13.5198 52.7108 13.0942 52.5742 12.5449L53.3252 12.242C53.4148 12.5929 53.5972 12.8894 53.8745 13.1305C54.1529 13.3716 54.4633 13.4932 54.8089 13.4932C55.1662 13.4932 55.4724 13.3993 55.7252 13.2116C55.979 13.0238 56.1049 12.7689 56.1049 12.4468C56.1049 12.0894 55.979 11.8142 55.7252 11.6201C55.4724 11.427 55.0713 11.2468 54.523 11.0793C53.9566 10.9012 53.5278 10.6697 53.2356 10.387C52.9444 10.1033 52.7972 9.7417 52.7972 9.3001C52.7972 8.84143 52.9796 8.4425 53.3433 8.1033C53.707 7.7641 54.1806 7.59343 54.7641 7.59343C55.307 7.59343 55.7476 7.7289 56.0868 7.99983C56.427 8.27183 56.6478 8.5673 56.7481 8.88943L55.9982 9.20196C55.9438 9.00036 55.8116 8.81156 55.6004 8.63876C55.3892 8.46703 55.1161 8.38063 54.7822 8.38063C54.4665 8.38063 54.1966 8.4681 53.9737 8.6441C53.7497 8.8201 53.6377 9.03876 53.6377 9.3001C53.6377 9.53903 53.7412 9.74063 53.946 9.90383C54.1529 10.0681 54.4548 10.2153 54.8537 10.3465C55.1694 10.4478 55.4329 10.546 55.6452 10.642C55.8564 10.7369 56.0718 10.8638 56.2884 11.0217C56.506 11.1796 56.6692 11.3758 56.7801 11.6116C56.89 11.8473 56.9454 12.1193 56.9454 12.4297C56.9454 12.739 56.8814 13.0164 56.7534 13.2606C56.6254 13.5049 56.4548 13.699 56.2436 13.842C56.0313 13.9849 55.8052 14.0937 55.5598 14.1673C55.3156 14.242 55.0649 14.2793 54.8089 14.2793Z" stroke="white" stroke-width="0.237037" stroke-miterlimit="10"/>
<path d="M58.9473 10.7565H60.3244C60.67 10.7565 60.9473 10.6413 61.1553 10.4088C61.3644 10.1763 61.4678 9.92028 61.4678 9.63974C61.4678 9.35921 61.3644 9.10321 61.1553 8.87068C60.9473 8.63814 60.67 8.52188 60.3244 8.52188H58.9473V10.7565ZM58.9473 14.1357H58.126V7.73574H60.3062C60.8481 7.73574 61.3185 7.91601 61.7142 8.27654C62.111 8.63708 62.3084 9.09148 62.3084 9.63974C62.3084 10.188 62.111 10.6424 61.7142 11.0019C61.3185 11.3635 60.8481 11.5437 60.3062 11.5437H58.9473V14.1357Z" fill="white"/>
<path d="M58.9473 10.7565H60.3244C60.67 10.7565 60.9473 10.6413 61.1553 10.4088C61.3644 10.1763 61.4678 9.92028 61.4678 9.63974C61.4678 9.35921 61.3644 9.10321 61.1553 8.87068C60.9473 8.63814 60.67 8.52188 60.3244 8.52188H58.9473V10.7565ZM58.9473 14.1357H58.126V7.73574H60.3062C60.8481 7.73574 61.3185 7.91601 61.7142 8.27654C62.111 8.63708 62.3084 9.09148 62.3084 9.63974C62.3084 10.188 62.111 10.6424 61.7142 11.0019C61.3185 11.3635 60.8481 11.5437 60.3062 11.5437H58.9473V14.1357Z" stroke="white" stroke-width="0.237037" stroke-miterlimit="10"/>
<path d="M64.4932 12.7732C64.9668 13.2532 65.546 13.4921 66.2319 13.4921C66.9167 13.4921 67.497 13.2532 67.9706 12.7732C68.4442 12.2932 68.682 11.6809 68.682 10.9364C68.682 10.1918 68.4442 9.5785 67.9706 9.09956C67.497 8.61956 66.9167 8.37956 66.2319 8.37956C65.546 8.37956 64.9668 8.61956 64.4932 9.09956C64.0207 9.5785 63.7828 10.1918 63.7828 10.9364C63.7828 11.6809 64.0207 12.2932 64.4932 12.7732ZM68.5786 13.3086C67.9492 13.9561 67.1674 14.2793 66.2319 14.2793C65.2964 14.2793 64.5146 13.9561 63.8863 13.3086C63.257 12.6622 62.9434 11.8718 62.9434 10.9364C62.9434 10.0009 63.257 9.20943 63.8863 8.56303C64.5146 7.91663 65.2964 7.59236 66.2319 7.59236C67.162 7.59236 67.9418 7.9177 68.5743 8.5673C69.2058 9.2169 69.5215 10.0062 69.5215 10.9364C69.5215 11.8718 69.2068 12.6622 68.5786 13.3086Z" fill="white"/>
<path d="M64.4932 12.7732C64.9668 13.2532 65.546 13.4921 66.2319 13.4921C66.9167 13.4921 67.497 13.2532 67.9706 12.7732C68.4442 12.2932 68.682 11.6809 68.682 10.9364C68.682 10.1918 68.4442 9.5785 67.9706 9.09956C67.497 8.61956 66.9167 8.37956 66.2319 8.37956C65.546 8.37956 64.9668 8.61956 64.4932 9.09956C64.0207 9.5785 63.7828 10.1918 63.7828 10.9364C63.7828 11.6809 64.0207 12.2932 64.4932 12.7732ZM68.5786 13.3086C67.9492 13.9561 67.1674 14.2793 66.2319 14.2793C65.2964 14.2793 64.5146 13.9561 63.8863 13.3086C63.257 12.6622 62.9434 11.8718 62.9434 10.9364C62.9434 10.0009 63.257 9.20943 63.8863 8.56303C64.5146 7.91663 65.2964 7.59236 66.2319 7.59236C67.162 7.59236 67.9418 7.9177 68.5743 8.5673C69.2058 9.2169 69.5215 10.0062 69.5215 10.9364C69.5215 11.8718 69.2068 12.6622 68.5786 13.3086Z" stroke="white" stroke-width="0.237037" stroke-miterlimit="10"/>
<path d="M70.6758 14.1357V7.73574H71.6774L74.7867 12.7139H74.823L74.7867 11.4808V7.73574H75.6102V14.1357H74.7515L71.4971 8.91548H71.4619L71.4971 10.1496V14.1357H70.6758Z" fill="white"/>
<path d="M70.6758 14.1357V7.73574H71.6774L74.7867 12.7139H74.823L74.7867 11.4808V7.73574H75.6102V14.1357H74.7515L71.4971 8.91548H71.4619L71.4971 10.1496V14.1357H70.6758Z" stroke="white" stroke-width="0.237037" stroke-miterlimit="10"/>
<path d="M77.8443 7.23548H77.1285L77.5947 6.09094H78.4885L77.8443 7.23548ZM77.0752 7.73574H77.8976V14.1357H77.0752V7.73574Z" fill="white"/>
<path d="M77.8443 7.23548H77.1285L77.5947 6.09094H78.4885L77.8443 7.23548ZM77.0752 7.73574H77.8976V14.1357H77.0752V7.73574Z" stroke="white" stroke-width="0.237037" stroke-miterlimit="10"/>
<path d="M80.9451 14.1357L78.6934 7.73574H79.6043L81.3568 12.9293H81.392L83.216 7.73574H84.127L81.8038 14.1357H80.9451Z" fill="white"/>
<path d="M80.9451 14.1357L78.6934 7.73574H79.6043L81.3568 12.9293H81.392L83.216 7.73574H84.127L81.8038 14.1357H80.9451Z" stroke="white" stroke-width="0.237037" stroke-miterlimit="10"/>
<path d="M88.7942 8.52383H85.88V10.5526H88.5083V11.3217H85.88V13.3505H88.7942V14.1377H85.0576V7.7377H88.7942V8.52383Z" fill="white"/>
<path d="M88.7942 8.52383H85.88V10.5526H88.5083V11.3217H85.88V13.3505H88.7942V14.1377H85.0576V7.7377H88.7942V8.52383Z" stroke="white" stroke-width="0.237037" stroke-miterlimit="10"/>
<path d="M90.0811 14.1357V7.73574H90.9035V13.3496H93.6736V14.1357H90.0811Z" fill="white"/>
<path d="M90.0811 14.1357V7.73574H90.9035V13.3496H93.6736V14.1357H90.0811Z" stroke="white" stroke-width="0.237037" stroke-miterlimit="10"/>
<path d="M96.8564 14.1357V7.73574H97.858L100.968 12.7139H101.004L100.968 11.4808V7.73574H101.791V14.1357H100.932L97.6788 8.91548H97.6426L97.6788 10.1496V14.1357H96.8564Z" fill="white"/>
<path d="M96.8564 14.1357V7.73574H97.858L100.968 12.7139H101.004L100.968 11.4808V7.73574H101.791V14.1357H100.932L97.6788 8.91548H97.6426L97.6788 10.1496V14.1357H96.8564Z" stroke="white" stroke-width="0.237037" stroke-miterlimit="10"/>
<path d="M104.403 12.7732C104.877 13.2532 105.456 13.4921 106.142 13.4921C106.827 13.4921 107.407 13.2532 107.881 12.7732C108.354 12.2932 108.592 11.6809 108.592 10.9364C108.592 10.1918 108.354 9.5785 107.881 9.09956C107.407 8.61956 106.827 8.37956 106.142 8.37956C105.456 8.37956 104.877 8.61956 104.403 9.09956C103.931 9.5785 103.693 10.1918 103.693 10.9364C103.693 11.6809 103.931 12.2932 104.403 12.7732ZM108.489 13.3086C107.859 13.9561 107.078 14.2793 106.142 14.2793C105.207 14.2793 104.425 13.9561 103.796 13.3086C103.167 12.6622 102.854 11.8718 102.854 10.9364C102.854 10.0009 103.167 9.20943 103.796 8.56303C104.425 7.91663 105.207 7.59236 106.142 7.59236C107.072 7.59236 107.852 7.9177 108.484 8.5673C109.116 9.2169 109.432 10.0062 109.432 10.9364C109.432 11.8718 109.117 12.6622 108.489 13.3086Z" fill="white"/>
<path d="M104.403 12.7732C104.877 13.2532 105.456 13.4921 106.142 13.4921C106.827 13.4921 107.407 13.2532 107.881 12.7732C108.354 12.2932 108.592 11.6809 108.592 10.9364C108.592 10.1918 108.354 9.5785 107.881 9.09956C107.407 8.61956 106.827 8.37956 106.142 8.37956C105.456 8.37956 104.877 8.61956 104.403 9.09956C103.931 9.5785 103.693 10.1918 103.693 10.9364C103.693 11.6809 103.931 12.2932 104.403 12.7732ZM108.489 13.3086C107.859 13.9561 107.078 14.2793 106.142 14.2793C105.207 14.2793 104.425 13.9561 103.796 13.3086C103.167 12.6622 102.854 11.8718 102.854 10.9364C102.854 10.0009 103.167 9.20943 103.796 8.56303C104.425 7.91663 105.207 7.59236 106.142 7.59236C107.072 7.59236 107.852 7.9177 108.484 8.5673C109.116 9.2169 109.432 10.0062 109.432 10.9364C109.432 11.8718 109.117 12.6622 108.489 13.3086Z" stroke="white" stroke-width="0.237037" stroke-miterlimit="10"/>
</g>
<defs>
<linearGradient id="paint0_linear_4175_21843" x1="23.5195" y1="9.55795" x2="5.61825" y2="27.4592" gradientUnits="userSpaceOnUse">
<stop stop-color="#00A0FF"/>
<stop offset="0.00657445" stop-color="#00A1FF"/>
<stop offset="0.2601" stop-color="#00BEFF"/>
<stop offset="0.5122" stop-color="#00D2FF"/>
<stop offset="0.7604" stop-color="#00DFFF"/>
<stop offset="1" stop-color="#00E3FF"/>
</linearGradient>
<linearGradient id="paint1_linear_4175_21843" x1="36.3568" y1="21.6053" x2="10.5468" y2="21.6053" gradientUnits="userSpaceOnUse">
<stop stop-color="#FFE000"/>
<stop offset="0.4087" stop-color="#FFBD00"/>
<stop offset="0.7754" stop-color="#FFA500"/>
<stop offset="1" stop-color="#FF9C00"/>
</linearGradient>
<linearGradient id="paint2_linear_4175_21843" x1="26.7479" y1="24.0537" x2="2.4724" y2="48.3292" gradientUnits="userSpaceOnUse">
<stop stop-color="#FF3A44"/>
<stop offset="1" stop-color="#C31162"/>
</linearGradient>
<linearGradient id="paint3_linear_4175_21843" x1="8.05061" y1="0.456067" x2="18.8906" y2="11.2961" gradientUnits="userSpaceOnUse">
<stop stop-color="#32A071"/>
<stop offset="0.0685" stop-color="#2DA771"/>
<stop offset="0.4762" stop-color="#15CF74"/>
<stop offset="0.8009" stop-color="#06E775"/>
<stop offset="1" stop-color="#00F076"/>
</linearGradient>
<clipPath id="clip0_4175_21843">
<rect width="144" height="43.2" fill="white"/>
</clipPath>
</defs>
</svg>
