<svg width="24" viewBox="0 0 24 24" fill="none" xmlns="http://www.w3.org/2000/svg">
<path d="M10.854 12.417C10.5207 12.417 10.25 12.292 10.042 12.042C9.83333 11.792 9.75666 11.5003 9.81199 11.167L9.99999 9.938C10.0833 9.45133 10.316 9.04833 10.698 8.729C11.08 8.40967 11.514 8.25 12 8.25C12.5 8.25 12.941 8.40967 13.323 8.729C13.705 9.04833 13.9377 9.45133 14.021 9.938L14.208 11.167C14.264 11.5003 14.1877 11.792 13.979 12.042C13.771 12.292 13.5003 12.417 13.167 12.417H10.854ZM11.167 11.083H12.854L12.708 10.167C12.6807 10.0003 12.601 9.86133 12.469 9.75C12.337 9.63867 12.1807 9.583 12 9.583C11.8333 9.583 11.684 9.63867 11.552 9.75C11.42 9.86133 11.34 10.0003 11.312 10.167L11.167 11.083ZM4.89599 13.208C4.60399 13.222 4.35399 13.1667 4.14599 13.042C3.93733 12.9167 3.80533 12.722 3.74999 12.458C3.72199 12.3333 3.71499 12.2153 3.72899 12.104C3.74299 11.9933 3.77066 11.8893 3.81199 11.792C3.81199 11.8053 3.80533 11.7773 3.79199 11.708C3.74999 11.6527 3.71533 11.5867 3.68799 11.51C3.65999 11.434 3.63899 11.3543 3.62499 11.271C3.59699 11.1043 3.61433 10.9583 3.67699 10.833C3.73966 10.7083 3.81966 10.5903 3.91699 10.479C3.93099 10.479 3.94466 10.4653 3.95799 10.438C3.98599 10.2013 4.08666 9.99967 4.25999 9.833C4.43399 9.66633 4.63899 9.583 4.87499 9.583C4.91699 9.583 5.03499 9.611 5.22899 9.667C5.24299 9.667 5.26399 9.66 5.29199 9.646C5.36133 9.57667 5.44466 9.528 5.54199 9.5C5.63933 9.472 5.74333 9.458 5.85399 9.458C5.99266 9.458 6.11766 9.48233 6.22899 9.531C6.34033 9.57967 6.42366 9.64567 6.47899 9.729C6.49299 9.729 6.50333 9.73267 6.50999 9.74C6.51733 9.74667 6.52799 9.75 6.54199 9.75C6.70866 9.764 6.86133 9.816 6.99999 9.906C7.13866 9.99667 7.24266 10.1183 7.31199 10.271C7.32599 10.3683 7.33299 10.455 7.33299 10.531C7.33299 10.6077 7.31933 10.6877 7.29199 10.771C7.29199 10.757 7.29866 10.7847 7.31199 10.854C7.39599 10.9513 7.45866 11.045 7.49999 11.135C7.54133 11.2257 7.56199 11.3333 7.56199 11.458C7.56199 11.486 7.52733 11.618 7.45799 11.854V11.958C7.47199 11.972 7.48599 12.0693 7.49999 12.25C7.49999 12.514 7.38899 12.7397 7.16699 12.927C6.94433 13.1143 6.67333 13.208 6.35399 13.208H4.89599ZM18.396 13.229C17.9793 13.229 17.625 13.0833 17.333 12.792C17.0417 12.5 16.896 12.1457 16.896 11.729C16.896 11.5763 16.9167 11.434 16.958 11.302C17 11.17 17.0557 11.0417 17.125 10.917L16.604 10.458C16.4793 10.3607 16.4587 10.2357 16.542 10.083C16.6253 9.93033 16.7433 9.854 16.896 9.854H18.417C18.8337 9.854 19.1877 10 19.479 10.292C19.771 10.5833 19.917 10.9373 19.917 11.354V11.729C19.917 12.1457 19.7677 12.5 19.469 12.792C19.1703 13.0833 18.8127 13.229 18.396 13.229ZM3.18799 16.833C2.97933 16.833 2.79866 16.7567 2.64599 16.604C2.49333 16.4513 2.41699 16.2707 2.41699 16.062V15.729C2.41699 15.1457 2.71533 14.67 3.31199 14.302C3.90933 13.934 4.68033 13.75 5.62499 13.75C5.76366 13.75 5.90599 13.7533 6.05199 13.76C6.19799 13.7673 6.34033 13.7847 6.47899 13.812C6.29833 14.076 6.15933 14.3643 6.06199 14.677C5.96533 14.9897 5.91699 15.3197 5.91699 15.667V16.833H3.18799ZM8.20799 16.833C7.99999 16.833 7.81599 16.7533 7.65599 16.594C7.49666 16.434 7.41699 16.243 7.41699 16.021V15.708C7.41699 14.9027 7.83699 14.257 8.67699 13.771C9.51766 13.285 10.6253 13.042 12 13.042C13.3747 13.042 14.4823 13.285 15.323 13.771C16.163 14.257 16.583 14.9027 16.583 15.708V16.021C16.583 16.243 16.5033 16.434 16.344 16.594C16.184 16.7533 16 16.833 15.792 16.833H8.20799ZM18.083 16.833V15.667C18.083 15.3197 18.0347 14.9897 17.938 14.677C17.8407 14.3643 17.7017 14.076 17.521 13.812C17.6597 13.7847 17.802 13.7673 17.948 13.76C18.094 13.7533 18.2363 13.75 18.375 13.75C19.3197 13.75 20.0907 13.934 20.688 14.302C21.2847 14.67 21.583 15.1457 21.583 15.729V16.062C21.583 16.2707 21.5067 16.4513 21.354 16.604C21.2013 16.7567 21.0207 16.833 20.812 16.833H18.083ZM12 14.375C11.208 14.375 10.5273 14.4723 9.95799 14.667C9.38866 14.861 9.02766 15.111 8.87499 15.417V15.5H15.125V15.417C14.9723 15.111 14.6113 14.861 14.042 14.667C13.4727 14.4723 12.792 14.375 12 14.375Z" fill="currentColor"/>
</svg>
