<svg width="56" viewBox="0 0 56 56" fill="none" xmlns="http://www.w3.org/2000/svg">
<path d="M27.6 44.65C27.8 44.65 28.0333 44.6 28.3 44.5C28.5667 44.4 28.7833 44.2667 28.95 44.1L45.3 27.75C45.7667 27.2833 46.125 26.7667 46.375 26.2C46.625 25.6333 46.75 25.05 46.75 24.45C46.75 23.85 46.625 23.25 46.375 22.65C46.125 22.05 45.7667 21.5167 45.3 21.05L36.9 12.65C36.4333 12.1833 35.9167 11.8333 35.35 11.6C34.7833 11.3667 34.2 11.25 33.6 11.25C33 11.25 32.4167 11.3667 31.85 11.6C31.2833 11.8333 30.7667 12.1833 30.3 12.65L28.9 14.05L32.85 18.05C33.25 18.45 33.5917 18.9333 33.875 19.5C34.1583 20.0667 34.3 20.6833 34.3 21.35C34.3 22.45 33.8833 23.4167 33.05 24.25C32.2167 25.0833 31.25 25.5 30.15 25.5C29.4167 25.5 28.8 25.3917 28.3 25.175C27.8 24.9583 27.3333 24.65 26.9 24.25L23.2 20.5L14.25 29.45C14.0833 29.6167 13.95 29.825 13.85 30.075C13.75 30.325 13.7 30.5667 13.7 30.8C13.7 31.3 13.8583 31.7 14.175 32C14.4917 32.3 14.8833 32.45 15.35 32.45C15.6167 32.45 15.875 32.3917 16.125 32.275C16.375 32.1583 16.5667 32.0333 16.7 31.9L23.35 25.25L24.95 26.85L18.35 33.45C18.15 33.65 18.0083 33.8667 17.925 34.1C17.8417 34.3333 17.8 34.5833 17.8 34.85C17.8 35.2833 17.9667 35.6667 18.3 36C18.6333 36.3333 19.0167 36.5 19.45 36.5C19.7167 36.5 19.9667 36.45 20.2 36.35C20.4333 36.25 20.6333 36.1167 20.8 35.95L27.65 29.05L29.25 30.65L22.4 37.5C22.2667 37.6667 22.1417 37.8833 22.025 38.15C21.9083 38.4167 21.85 38.6667 21.85 38.9C21.85 39.3667 22.0167 39.7667 22.35 40.1C22.6833 40.4333 23.0833 40.6 23.55 40.6C23.7833 40.6 24.0167 40.55 24.25 40.45C24.4833 40.35 24.6833 40.2167 24.85 40.05L31.75 33.15L33.35 34.75L26.45 41.65C26.2833 41.8167 26.15 42.0333 26.05 42.3C25.95 42.5667 25.9 42.8 25.9 43C25.9 43.5333 26.0583 43.9417 26.375 44.225C26.6917 44.5083 27.1 44.65 27.6 44.65ZM27.6 46.95C26.5333 46.95 25.6167 46.5583 24.85 45.775C24.0833 44.9917 23.6833 44.0167 23.65 42.85C22.5167 42.7833 21.5667 42.3917 20.8 41.675C20.0333 40.9583 19.6167 40 19.55 38.8C18.3833 38.7 17.4333 38.2833 16.7 37.55C15.9667 36.8167 15.5667 35.8667 15.5 34.7C14.3667 34.6333 13.4083 34.2417 12.625 33.525C11.8417 32.8083 11.45 31.8833 11.45 30.75C11.45 30.25 11.55 29.7333 11.75 29.2C11.95 28.6667 12.25 28.2 12.65 27.8L23.2 17.25L28.3 22.35C28.5333 22.6167 28.8167 22.825 29.15 22.975C29.4833 23.125 29.8167 23.2 30.15 23.2C30.6167 23.2 31.05 23.0083 31.45 22.625C31.85 22.2417 32.05 21.8 32.05 21.3C32.05 21.0333 31.9833 20.7667 31.85 20.5C31.7167 20.2333 31.5167 19.9667 31.25 19.7L24.25 12.65C23.7833 12.1833 23.2667 11.8333 22.7 11.6C22.1333 11.3667 21.5333 11.25 20.9 11.25C20.3 11.25 19.725 11.3667 19.175 11.6C18.625 11.8333 18.1167 12.1833 17.65 12.65L10.7 19.65C10.2 20.1167 9.84167 20.6417 9.625 21.225C9.40833 21.8083 9.28333 22.45 9.25 23.15C9.25 23.75 9.36667 24.3333 9.6 24.9C9.83333 25.4667 10.1333 25.9833 10.5 26.45L8.8 28.1C8.3 27.4667 7.875 26.7083 7.525 25.825C7.175 24.9417 7 24.0333 7 23.1C7 22.1333 7.175 21.2083 7.525 20.325C7.875 19.4417 8.4 18.6667 9.1 18L16 11.05C16.7 10.35 17.4667 9.83333 18.3 9.5C19.1333 9.16667 20.0167 9 20.95 9C21.8833 9 22.7667 9.16667 23.6 9.5C24.4333 9.83333 25.2 10.35 25.9 11.05L27.3 12.45L28.7 11.05C29.3667 10.35 30.125 9.83333 30.975 9.5C31.825 9.16667 32.7 9 33.6 9C34.5333 9 35.4167 9.16667 36.25 9.5C37.0833 9.83333 37.85 10.35 38.55 11.05L46.9 19.4C47.5667 20.0667 48.0833 20.85 48.45 21.75C48.8167 22.65 49 23.55 49 24.45C49 25.3833 48.8167 26.2667 48.45 27.1C48.0833 27.9333 47.5667 28.7 46.9 29.4L30.55 45.7C30.15 46.1333 29.6917 46.45 29.175 46.65C28.6583 46.85 28.1333 46.95 27.6 46.95Z" fill="currentColor"/>
</svg>
