<svg width="24" height="24" viewBox="0 0 24 24" fill="none" xmlns="http://www.w3.org/2000/svg">
<mask id="mask0_2154_1713" style="mask-type:alpha" maskUnits="userSpaceOnUse" x="2" y="2" width="20" height="20">
<rect x="2" y="2" width="20" height="20" fill="#D9D9D9"/>
</mask>
<g mask="url(#mask0_2154_1713)">
<path d="M7.333 19.0835C6.903 19.0835 6.53167 18.9275 6.219 18.6155C5.90633 18.3028 5.75 17.9312 5.75 17.5005V10.5005C5.75 10.2505 5.80567 10.0145 5.917 9.79248C6.02767 9.56982 6.18733 9.38215 6.396 9.22948L11.062 5.72948C11.354 5.50748 11.6667 5.39648 12 5.39648C12.3333 5.39648 12.646 5.50748 12.938 5.72948L17.604 9.22948C17.8127 9.38215 17.9723 9.56982 18.083 9.79248C18.1943 10.0145 18.25 10.2505 18.25 10.5005V17.5005C18.25 17.9312 18.0937 18.3028 17.781 18.6155C17.4683 18.9275 17.097 19.0835 16.667 19.0835H7.333ZM7.083 17.7505H16.917V10.3755L12 6.66748L7.083 10.3755V17.7505ZM8.917 15.6255H15.083V16.3965C15.083 16.4938 15.1213 16.5805 15.198 16.6565C15.274 16.7332 15.3607 16.7715 15.458 16.7715C15.5693 16.7715 15.6633 16.7332 15.74 16.6565C15.816 16.5805 15.854 16.4938 15.854 16.3965V13.7085C15.854 13.2778 15.7013 12.9135 15.396 12.6155C15.0907 12.3168 14.7293 12.1675 14.312 12.1675H12.042C11.9307 12.1675 11.8333 12.2092 11.75 12.2925C11.6667 12.3758 11.625 12.4728 11.625 12.5835V14.8545H8.917V11.7715C8.917 11.6742 8.87867 11.5872 8.802 11.5105C8.726 11.4345 8.63933 11.3965 8.542 11.3965C8.43067 11.3965 8.33667 11.4345 8.26 11.5105C8.184 11.5872 8.146 11.6742 8.146 11.7715V16.3965C8.146 16.4938 8.184 16.5805 8.26 16.6565C8.33667 16.7332 8.43067 16.7715 8.542 16.7715C8.63933 16.7715 8.726 16.7332 8.802 16.6565C8.87867 16.5805 8.917 16.4938 8.917 16.3965V15.6255ZM10.271 14.4585C10.535 14.4585 10.7607 14.3685 10.948 14.1885C11.1353 14.0078 11.229 13.7785 11.229 13.5005C11.229 13.2365 11.1353 13.0108 10.948 12.8235C10.7607 12.6362 10.535 12.5425 10.271 12.5425C9.993 12.5425 9.76367 12.6362 9.583 12.8235C9.40233 13.0108 9.312 13.2365 9.312 13.5005C9.312 13.7785 9.406 14.0078 9.594 14.1885C9.78133 14.3685 10.007 14.4585 10.271 14.4585Z" fill="#C15D31"/>
</g>
</svg>
