<svg width="24" viewBox="0 0 24 24" fill="none" xmlns="http://www.w3.org/2000/svg">
<path d="M7.00039 8.5C6.53372 8.5 6.13372 8.33333 5.80039 8C5.46706 7.66667 5.30039 7.26667 5.30039 6.8C5.30039 6.31667 5.46706 5.90833 5.80039 5.575C6.13372 5.24167 6.53372 5.075 7.00039 5.075C7.46706 5.075 7.86706 5.24167 8.20039 5.575C8.53372 5.90833 8.70039 6.31667 8.70039 6.8C8.70039 7.26667 8.53372 7.66667 8.20039 8C7.86706 8.33333 7.46706 8.5 7.00039 8.5ZM4.32539 21.5C3.82539 21.5 3.40039 21.325 3.05039 20.975C2.70039 20.625 2.52539 20.2 2.52539 19.7V13.4C2.52539 13.15 2.61306 12.9373 2.78839 12.762C2.96306 12.5873 3.17539 12.5 3.42539 12.5H5.42539V11.325C5.42539 10.8083 5.60039 10.375 5.95039 10.025C6.30039 9.675 6.73372 9.5 7.25039 9.5C7.53372 9.5 7.80039 9.55833 8.05039 9.675C8.30039 9.79167 8.51706 9.94167 8.70039 10.125L10.0504 11.65C10.1837 11.8 10.3337 11.9457 10.5004 12.087C10.6671 12.229 10.8504 12.3667 11.0504 12.5H20.5754C20.8254 12.5 21.0381 12.5873 21.2134 12.762C21.3881 12.9373 21.4754 13.15 21.4754 13.4V19.7C21.4754 20.2 21.3004 20.625 20.9504 20.975C20.6004 21.325 20.1754 21.5 19.6754 21.5H4.32539ZM19.0254 10.125C18.8087 10.125 18.6377 10.0457 18.5124 9.887C18.3877 9.729 18.3337 9.525 18.3504 9.275C18.3671 8.90833 18.3047 8.56267 18.1634 8.238C18.0214 7.91267 17.8004 7.6 17.5004 7.3C17.0504 6.85 16.7211 6.36667 16.5124 5.85C16.3044 5.33333 16.2171 4.79167 16.2504 4.225C16.2671 4.025 16.3421 3.854 16.4754 3.712C16.6087 3.57067 16.7754 3.5 16.9754 3.5C17.1921 3.5 17.3631 3.579 17.4884 3.737C17.6131 3.89567 17.6671 4.1 17.6504 4.35C17.6171 4.7 17.6711 5.03333 17.8124 5.35C17.9544 5.66667 18.1671 5.96667 18.4504 6.25C18.9004 6.7 19.2377 7.19567 19.4624 7.737C19.6877 8.279 19.7837 8.825 19.7504 9.375C19.7337 9.59167 19.6587 9.77067 19.5254 9.912C19.3921 10.054 19.2254 10.125 19.0254 10.125ZM15.0254 10.125C14.8087 10.125 14.6381 10.0457 14.5134 9.887C14.3881 9.729 14.3337 9.525 14.3504 9.275C14.3671 8.90833 14.3047 8.56267 14.1634 8.238C14.0214 7.91267 13.8004 7.6 13.5004 7.3C13.0504 6.85 12.7214 6.36667 12.5134 5.85C12.3047 5.33333 12.2171 4.79167 12.2504 4.225C12.2671 4.025 12.3421 3.854 12.4754 3.712C12.6087 3.57067 12.7754 3.5 12.9754 3.5C13.1921 3.5 13.3631 3.579 13.4884 3.737C13.6131 3.89567 13.6671 4.1 13.6504 4.35C13.6171 4.7 13.6671 5.03333 13.8004 5.35C13.9337 5.66667 14.1504 5.96667 14.4504 6.25C14.9004 6.71667 15.2381 7.21667 15.4634 7.75C15.6881 8.28333 15.7837 8.825 15.7504 9.375C15.7337 9.59167 15.6587 9.77067 15.5254 9.912C15.3921 10.054 15.2254 10.125 15.0254 10.125ZM17.5754 20H18.2004C18.4504 20 18.6627 19.9127 18.8374 19.738C19.0127 19.5627 19.1004 19.35 19.1004 19.1V14.9C19.1004 14.65 19.0127 14.4373 18.8374 14.262C18.6627 14.0873 18.4504 14 18.2004 14H17.5754C17.3254 14 17.1131 14.0873 16.9384 14.262C16.7631 14.4373 16.6754 14.65 16.6754 14.9V19.1C16.6754 19.35 16.7631 19.5627 16.9384 19.738C17.1131 19.9127 17.3254 20 17.5754 20ZM13.6504 20H14.2754C14.5254 20 14.7381 19.9127 14.9134 19.738C15.0881 19.5627 15.1754 19.35 15.1754 19.1V14.9C15.1754 14.65 15.0881 14.4373 14.9134 14.262C14.7381 14.0873 14.5254 14 14.2754 14H13.6504C13.4004 14 13.1877 14.0873 13.0124 14.262C12.8377 14.4373 12.7504 14.65 12.7504 14.9V19.1C12.7504 19.35 12.8377 19.5627 13.0124 19.738C13.1877 19.9127 13.4004 20 13.6504 20ZM9.72539 20H10.3504C10.6004 20 10.8131 19.9127 10.9884 19.738C11.1631 19.5627 11.2504 19.35 11.2504 19.1V14.9C11.2504 14.65 11.1631 14.4373 10.9884 14.262C10.8131 14.0873 10.6004 14 10.3504 14H9.72539C9.47539 14 9.26306 14.0873 9.08839 14.262C8.91306 14.4373 8.82539 14.65 8.82539 14.9V19.1C8.82539 19.35 8.91306 19.5627 9.08839 19.738C9.26306 19.9127 9.47539 20 9.72539 20ZM5.80039 20H6.42539C6.67539 20 6.88772 19.9127 7.06239 19.738C7.23772 19.5627 7.32539 19.35 7.32539 19.1V14.9C7.32539 14.65 7.23772 14.4373 7.06239 14.262C6.88772 14.0873 6.67539 14 6.42539 14H5.80039C5.55039 14 5.33806 14.0873 5.16339 14.262C4.98806 14.4373 4.90039 14.65 4.90039 14.9V19.1C4.90039 19.35 4.98806 19.5627 5.16339 19.738C5.33806 19.9127 5.55039 20 5.80039 20Z" fill="currentColor"/>
</svg>
