<svg width="24" viewBox="0 0 24 24" fill="none" xmlns="http://www.w3.org/2000/svg">
<path d="M5.37501 19.292C5.19434 19.292 5.03801 19.226 4.90601 19.094C4.77401 18.962 4.70801 18.8056 4.70801 18.625C4.70801 18.4443 4.77401 18.288 4.90601 18.156C5.03801 18.024 5.19434 17.958 5.37501 17.958H18.625C18.8057 17.958 18.962 18.024 19.094 18.156C19.226 18.288 19.292 18.4443 19.292 18.625C19.292 18.8056 19.226 18.962 19.094 19.094C18.962 19.226 18.8057 19.292 18.625 19.292H5.37501ZM17.688 15.062L5.29201 11.667C5.12534 11.611 4.98634 11.5066 4.87501 11.354C4.76367 11.2013 4.70801 11.0416 4.70801 10.875V8.12496C4.70801 7.90296 4.78801 7.73296 4.94801 7.61496C5.10801 7.49696 5.29901 7.4793 5.52101 7.56196C5.59034 7.57596 5.65634 7.6143 5.71901 7.67696C5.78101 7.73963 5.82601 7.81263 5.85401 7.89596L6.33301 9.33296L10.5 10.5V4.91696C10.5 4.65296 10.5937 4.44796 10.781 4.30196C10.9683 4.15596 11.201 4.11096 11.479 4.16696C11.5903 4.2083 11.7013 4.28096 11.812 4.38496C11.9233 4.48963 12 4.6043 12.042 4.72896L14.167 11.5L18.396 12.688C18.66 12.7573 18.8753 12.903 19.042 13.125C19.2087 13.347 19.292 13.604 19.292 13.896C19.292 14.3126 19.1287 14.639 18.802 14.875C18.4753 15.111 18.104 15.1733 17.688 15.062Z" fill="currentColor"/>
</svg>
