<svg width="24" viewBox="0 0 24 24" fill="none" xmlns="http://www.w3.org/2000/svg">
<path d="M8.84969 16.8246L11.9997 14.9246L15.1497 16.8496L14.3247 13.2496L17.0997 10.8496L13.4497 10.5246L11.9997 7.12461L10.5497 10.4996L6.89969 10.8246L9.67469 13.2496L8.84969 16.8246ZM11.9997 16.6996L8.09969 19.0246C7.96635 19.1079 7.82469 19.1453 7.67469 19.1366C7.52469 19.1286 7.39135 19.0829 7.27469 18.9996C7.15802 18.9163 7.06635 18.8039 6.99969 18.6626C6.93302 18.5206 6.92469 18.3663 6.97469 18.1996L7.99969 13.7996L4.57469 10.8246C4.44135 10.7079 4.35802 10.5746 4.32469 10.4246C4.29135 10.2746 4.29969 10.1329 4.34969 9.99961C4.39969 9.86628 4.47902 9.75361 4.58769 9.66161C4.69569 9.57028 4.83302 9.51628 4.99969 9.49961L9.52469 9.09961L11.2997 4.92461C11.3664 4.77461 11.4624 4.66194 11.5877 4.58661C11.7124 4.51194 11.8497 4.47461 11.9997 4.47461C12.1497 4.47461 12.2874 4.51194 12.4127 4.58661C12.5374 4.66194 12.633 4.77461 12.6997 4.92461L14.4747 9.09961L18.9997 9.49961C19.1664 9.51628 19.304 9.57028 19.4127 9.66161C19.5207 9.75361 19.5997 9.86628 19.6497 9.99961C19.6997 10.1329 19.708 10.2746 19.6747 10.4246C19.6414 10.5746 19.558 10.7079 19.4247 10.8246L15.9997 13.7996L17.0247 18.1996C17.0747 18.3663 17.0664 18.5206 16.9997 18.6626C16.933 18.8039 16.8414 18.9163 16.7247 18.9996C16.608 19.0829 16.4747 19.1286 16.3247 19.1366C16.1747 19.1453 16.033 19.1079 15.8997 19.0246L11.9997 16.6996Z" fill="currentColor"/>
</svg>
