<svg width="20" viewBox="0 0 20 20" fill="none" xmlns="http://www.w3.org/2000/svg">
<path d="M9.99999 9.833C10.4167 9.833 10.7707 9.68733 11.062 9.396C11.354 9.104 11.5 8.74967 11.5 8.333C11.5 7.91633 11.354 7.56233 11.062 7.271C10.7707 6.979 10.4167 6.833 9.99999 6.833C9.58333 6.833 9.22933 6.979 8.93799 7.271C8.64599 7.56233 8.49999 7.91633 8.49999 8.333C8.49999 8.74967 8.64599 9.104 8.93799 9.396C9.22933 9.68733 9.58333 9.833 9.99999 9.833ZM9.99999 16.375C11.708 14.861 12.9893 13.42 13.844 12.052C14.698 10.684 15.125 9.5 15.125 8.5C15.125 6.91667 14.632 5.639 13.646 4.667C12.66 3.69433 11.4447 3.208 9.99999 3.208C8.55533 3.208 7.33999 3.69433 6.35399 4.667C5.36799 5.639 4.87499 6.91667 4.87499 8.5C4.87499 9.5 5.30199 10.684 6.15599 12.052C7.01066 13.42 8.29199 14.861 9.99999 16.375ZM9.99999 17.833C9.88866 17.833 9.78466 17.8193 9.68799 17.792C9.59066 17.764 9.49333 17.7153 9.39599 17.646C7.42399 15.8407 5.95533 14.1843 4.98999 12.677C4.02466 11.1703 3.54199 9.778 3.54199 8.5C3.54199 6.472 4.18766 4.861 5.47899 3.667C6.77099 2.47233 8.27799 1.875 9.99999 1.875C11.722 1.875 13.229 2.47233 14.521 3.667C15.8123 4.861 16.458 6.472 16.458 8.5C16.458 9.778 15.9753 11.1703 15.01 12.677C14.0447 14.1843 12.576 15.8407 10.604 17.646C10.5207 17.7153 10.427 17.764 10.323 17.792C10.219 17.8193 10.1113 17.833 9.99999 17.833Z" fill="currentColor"/>
</svg>
