<svg width="113" viewBox="0 0 113 88" fill="none" xmlns="http://www.w3.org/2000/svg">
<path d="M66.6396 47.5684H66.6474C67.4885 47.5684 68.2352 47.3549 68.8128 47.0813C69.3896 46.803 69.8073 46.4803 70.0061 46.1989C70.137 46.0087 70.2197 45.7874 70.2197 45.5419C70.2197 45.3618 70.1791 45.1755 70.0911 44.9955C69.8767 44.5722 69.4309 44.3742 69.0318 44.3586C68.9616 44.3586 68.8845 44.3664 68.8143 44.3867C68.5976 44.4483 68.4488 44.5208 68.2968 44.5699C68.1424 44.6182 67.9772 44.6595 67.6935 44.665C67.2351 44.6548 66.9592 44.4841 66.776 44.2963C66.7433 44.2573 66.4573 43.9066 66.3489 43.4638C66.179 42.7319 66.1657 41.6984 66.1579 40.9688C66.1735 40.7085 66.1735 26.0197 66.1735 25.6221C66.1735 25.0757 65.8906 24.6431 65.5087 24.3851C65.1111 24.1194 64.624 23.9985 64.1392 23.9985C63.6543 23.9985 63.1469 24.1256 62.7447 24.3851C62.3534 24.6385 62.0596 25.0656 62.0596 25.5941V42.9876C62.0596 43.9549 62.3425 45.0859 63.0596 46.001C63.7736 46.9051 64.9412 47.5684 66.6396 47.5684Z" fill="#C15D31"/>
<path d="M78.7726 36.3326C77.5434 37.6959 75.8263 38.0903 74.0172 38.2758C74.0094 38.116 74.0094 37.957 74.0094 37.7941C74.0094 36.1962 74.2339 34.3941 75.0359 33.2624L75.0437 33.2546C76.0742 31.7806 77.1521 31.613 77.6572 31.5998H77.665C78.4897 31.613 79.333 32.1517 79.5747 33.4479C79.6137 33.6646 79.63 33.8735 79.63 34.08C79.63 34.9686 79.2917 35.7395 78.7742 36.3326H78.7726ZM83.1929 36.4948C83.5826 35.6982 83.7829 34.7885 83.7829 33.9615C83.7829 33.6989 83.765 33.4487 83.7237 33.2086C83.3277 30.9661 81.2411 29.2622 78.0251 29.2755C75.7803 29.2755 72.9041 30.1578 71.1433 32.8765C70.4683 33.9389 69.561 35.9694 69.561 38.5338C69.561 39.1472 69.6078 39.7872 69.731 40.4544C70.1176 42.4358 70.9734 44.2153 72.3242 45.4951C73.6672 46.7734 75.5098 47.5521 77.8139 47.5521H77.8193C79.0641 47.5521 80.2318 47.3354 81.1001 46.98C81.535 46.7968 81.9037 46.577 82.1718 46.3174C82.4423 46.0571 82.613 45.7453 82.613 45.3915C82.613 45.34 82.613 45.2831 82.5974 45.2293C82.507 44.626 82.0222 44.2293 81.4656 44.2324C81.3316 44.2324 81.185 44.2558 81.0533 44.3018C80.3674 44.5161 79.7103 44.6369 78.9004 44.6369C78.6791 44.6369 78.4398 44.626 78.1849 44.6089C76.4865 44.474 75.4833 43.4467 74.8777 42.4077C74.5815 41.8816 74.3859 41.3554 74.2721 40.9564C74.2206 40.7802 74.1816 40.6259 74.1559 40.5129C76.481 40.4123 78.4959 40.1449 80.3939 39.1309C81.3682 38.5868 82.5748 37.7107 83.1929 36.494V36.4948Z" fill="#C15D31"/>
<path d="M57.9337 28.354C59.1371 28.354 60.1114 27.3774 60.1114 26.1762C60.1114 24.9751 59.1371 24 57.9337 24C56.7302 24 55.7582 24.9751 55.7559 26.1762C55.759 27.3774 56.7302 28.354 57.9337 28.354Z" fill="#C15D31"/>
<path d="M32.4494 46.8802C32.836 47.146 33.3255 47.27 33.8127 47.27C34.2998 47.27 34.808 47.146 35.1993 46.8802C35.5968 46.6277 35.8899 46.2044 35.8899 45.6713C35.8899 45.6713 35.893 36.1604 35.893 36.1113C35.9234 35.3817 36.1144 34.3926 36.5501 33.6264C36.996 32.8438 37.6328 32.2998 38.6273 32.292C39.0864 32.292 39.4006 32.4362 39.6586 32.6661C40.0405 33.0137 40.2697 33.5937 40.3881 34.1868C40.5043 34.7745 40.5097 35.3544 40.5097 35.6919C40.5097 35.7668 40.5152 45.386 40.5152 45.644C40.5097 46.1982 40.8137 46.6316 41.226 46.8888C41.6384 47.1468 42.1567 47.2707 42.6696 47.2707C43.1825 47.2707 43.7234 47.1468 44.1365 46.8888C44.5621 46.6316 44.8739 46.2083 44.8708 45.6721V36.1043C44.9035 35.3724 45.0953 34.3926 45.5279 33.6272C45.9745 32.8446 46.6082 32.3005 47.6051 32.2928C48.0611 32.2928 48.376 32.4346 48.6332 32.6669C49.0206 33.0145 49.242 33.5944 49.3659 34.1876C49.4789 34.7776 49.4922 35.3552 49.4922 35.6927V45.6448C49.4922 46.199 49.7907 46.6324 50.2007 46.8896C50.613 47.1476 51.1282 47.2715 51.6473 47.2715C52.1665 47.2715 52.691 47.1476 53.1166 46.8896C53.5321 46.6324 53.8485 46.2091 53.8485 45.6729V36.2882C53.8431 33.9125 53.3816 32.1392 52.5086 30.9427C51.6403 29.7447 50.3433 29.1562 48.8226 29.1671C47.351 29.1671 46.2403 29.8733 45.4483 30.6824C44.9043 31.2343 44.5177 31.8352 44.2628 32.3146C43.8965 31.3582 43.3789 30.6216 42.7242 30.0931C41.9276 29.4641 40.9478 29.1671 39.8449 29.1671C37.9609 29.1703 36.6748 30.3145 35.886 31.3683V31.2709C35.8907 30.7268 35.6124 30.2966 35.2211 30.0331C34.8337 29.7704 34.3497 29.652 33.8571 29.652C33.3645 29.652 32.8625 29.7728 32.4704 30.0331C32.0745 30.2864 31.7775 30.7144 31.7853 31.2522V45.6448C31.7806 46.1912 32.0589 46.6238 32.4502 46.8818L32.4494 46.8802Z" fill="#C15D31"/>
<path d="M59.3228 30.0416C58.9385 29.7789 58.4482 29.6597 57.9564 29.6597C57.4646 29.6597 56.9688 29.7836 56.5729 30.0416C56.1753 30.2934 55.8901 30.7221 55.8916 31.2607V45.6525C55.8893 46.1981 56.1621 46.6346 56.5541 46.8903C56.9408 47.1553 57.4279 47.2816 57.9127 47.2816C58.3976 47.2816 58.9104 47.1553 59.3095 46.8903C59.7016 46.6369 59.9954 46.2145 59.9923 45.6806C59.9923 45.6806 59.9876 31.6753 59.9876 31.2778C59.9923 30.7338 59.7094 30.3066 59.3228 30.0408V30.0416Z" fill="#C15D31"/>
<path d="M96.1552 41.8598C96.1396 41.5885 96.0975 41.3328 96.0375 41.0951C95.7928 40.0982 95.2121 39.3429 94.4957 38.7388C93.4201 37.8284 92.0428 37.2329 90.9118 36.5813C90.3475 36.2578 89.8416 35.9211 89.4722 35.5431C89.1027 35.1681 88.8634 34.7574 88.7886 34.2476C88.7738 34.1556 88.7675 34.0582 88.7675 33.9608C88.7691 33.4362 88.9679 32.889 89.3966 32.4751C89.6234 32.253 90.3116 31.8064 91.2727 31.8064C92.4738 31.8064 93.4871 32.3333 94.0561 32.3333C94.6984 32.3395 95.2542 31.9677 95.4217 31.3457C95.4537 31.2233 95.4708 31.1025 95.4708 30.9762C95.4708 30.2638 94.8839 29.6122 94.0819 29.4095C94.0819 29.4095 93.3577 29.1648 91.8253 29.1648C89.6943 29.1648 87.9491 29.6917 86.7215 30.6099C85.4946 31.5289 84.7993 32.8547 84.8032 34.3739C84.8032 34.7956 84.8516 35.2274 84.9576 35.6693C85.4167 37.5478 87.2679 38.5634 88.9764 39.4793C89.8354 39.9306 90.6678 40.357 91.2976 40.8192C91.9306 41.2845 92.3367 41.7701 92.4177 42.3329C92.4333 42.4272 92.4419 42.5254 92.4419 42.6174C92.4388 43.1342 92.233 43.6127 91.7895 43.9877C91.3405 44.3563 90.6413 44.6182 89.6452 44.6377H89.5524C88.4674 44.6377 87.5399 44.3267 86.9296 44.0609C86.663 43.9339 86.3902 43.8715 86.1369 43.8715C85.4829 43.8622 84.9435 44.3057 84.8594 44.9448C84.8492 45.0072 84.8461 45.0688 84.8461 45.1335C84.8461 45.5894 85.0916 45.9745 85.4291 46.266C85.9342 46.7103 86.6537 47.0057 87.3388 47.2076C87.3388 47.2076 90.9625 48.8008 94.1372 46.4827C96.8053 44.5356 96.156 41.8598 96.156 41.8598H96.1552Z" fill="#C15D31"/>
<path d="M22.729 47.7197C20.6884 47.7197 19.149 47.0556 19.1334 47.0494C19.1233 47.0447 19.1132 47.0416 19.103 47.0385C18.0523 46.7282 17.2518 46.3354 16.7234 45.8708C16.4178 45.6066 16.0554 45.1717 16.0554 44.5956C16.0554 44.5161 16.06 44.4514 16.0694 44.3914C16.1606 43.6969 16.7265 43.216 17.4459 43.216H17.4685C17.7702 43.216 18.0874 43.2924 18.389 43.4366C19.5699 43.9503 20.7485 44.209 21.8997 44.209H22.0205C23.2591 44.1849 24.2747 43.8731 24.9637 43.308C25.5756 42.792 25.8991 42.1107 25.9038 41.3352C25.9038 41.2011 25.8921 41.0593 25.8687 40.9221C25.7596 40.1715 25.2654 39.4941 24.3145 38.795C23.5405 38.226 22.5529 37.7084 21.5076 37.1604L21.2722 37.0373C19.1623 35.9055 16.7678 34.621 16.1918 32.2631C16.0647 31.7292 16 31.1844 16 30.645C15.9953 28.7844 16.8418 27.1242 18.3836 25.9698C19.9784 24.7773 22.213 24.1475 24.8476 24.1475C26.7565 24.1475 27.6833 24.4483 27.6918 24.4507C27.6981 24.453 27.7043 24.4546 27.7105 24.4561C28.642 24.6915 29.3178 25.4414 29.3178 26.2387C29.3178 26.3744 29.2998 26.51 29.2624 26.6534C29.0847 27.3144 28.4947 27.7423 27.7612 27.7423H27.7425C27.4751 27.7423 27.0893 27.6316 26.6427 27.5038C25.9505 27.3058 25.0884 27.0587 24.1305 27.0587C22.828 27.0587 21.8755 27.6495 21.5186 27.9987C20.9464 28.5506 20.6284 29.3004 20.6261 30.1072C20.6261 30.2607 20.6362 30.3963 20.6565 30.5218C20.7555 31.1992 21.0602 31.7783 21.6129 32.3403C22.0486 32.7854 22.6589 33.2273 23.535 33.7293C23.9504 33.9686 24.3815 34.197 24.8382 34.4386C25.9809 35.0434 27.1618 35.6686 28.1439 36.5002C29.1619 37.3592 29.7886 38.3148 30.0598 39.4209C30.1385 39.7319 30.1869 40.0491 30.2048 40.3656C30.2056 40.3811 30.2079 40.396 30.2118 40.4115C30.2134 40.4193 30.4074 41.2572 30.1931 42.3765C29.9063 43.87 29.0652 45.1358 27.6926 46.1374C26.2545 47.1873 24.5834 47.7197 22.7283 47.7197H22.729Z" fill="#C15D31"/>
<path d="M16.2852 52.071H18.2759C19.0694 54.0166 20.8948 58.7611 21.898 61.4705H21.9276C22.9752 58.7611 24.7563 54.0173 25.5193 52.071H27.5101L23.0048 63.7449H20.8044L16.2852 52.071Z" fill="white"/>
<path d="M30.4146 52.071H32.3V63.7449H30.4146V52.071Z" fill="white"/>
<path d="M39.738 52.071H41.908L46.428 63.7449H44.4225C43.9883 62.6225 43.5394 61.5149 43.1052 60.3925H38.4659C38.0318 61.5149 37.6124 62.6225 37.179 63.7449H35.2031L39.738 52.071ZM42.4318 58.5818C41.9532 57.3394 41.399 55.9176 40.8152 54.3315H40.7856L39.1394 58.5818H42.4318Z" fill="white"/>
<path d="M48.2998 57.9529C48.2998 54.0619 51.0684 51.8311 54.1964 51.8311C56.6509 51.8311 58.7312 53.2084 59.4943 55.4228L57.7585 56.1258C57.1302 54.6145 55.8878 53.6113 54.1964 53.6113C52.0264 53.6113 50.2749 55.2427 50.2749 57.9521C50.2749 60.6615 52.0412 62.2173 54.4653 62.2173C56.3508 62.2173 57.6532 61.2297 57.9229 59.359H54.5253V57.8025H59.7788V58.3863C59.7788 62.0832 57.474 63.9991 54.2712 63.9991C50.6491 63.9991 48.2998 61.5298 48.2998 57.9529Z" fill="white"/>
<path d="M63.2065 52.071H70.7501V53.8069H65.0928V56.8904H70.4508V58.7011H65.0928V61.9935H70.8998V63.7449H63.2065V52.071Z" fill="white"/>
<path d="M74.4619 52.071H76.4378C78.3389 54.8397 80.2244 57.5639 82.1255 60.4821H82.1551V52.071H84.0406V63.7449H82.0647C80.194 61.0059 78.2781 58.3417 76.377 55.4679H76.3474V63.7449H74.4619V52.071Z" fill="white"/>
<path d="M87.3481 60.557L89.0996 59.9436C89.5634 61.6646 90.7162 62.2788 91.883 62.2788C93.0498 62.2788 94.0686 61.7402 94.0686 60.6022C94.0686 59.4642 92.9906 59.1353 91.943 58.8211L90.8954 58.4922C89.7426 58.1329 87.7371 57.3846 87.7371 55.1842C87.7371 52.9838 89.5634 51.8318 91.703 51.8318C93.8426 51.8318 95.2799 53.0438 95.6992 54.5708L93.9782 55.2739C93.604 54.2115 92.8106 53.538 91.6437 53.538C90.4769 53.538 89.713 54.1514 89.713 55.0346C89.713 56.1422 90.9999 56.5911 91.8682 56.8756L93.0802 57.2646C94.2027 57.6239 96.0889 58.1773 96.0889 60.3629C96.0889 62.5485 94.3679 63.9998 91.8986 63.9998C89.773 63.9998 87.9327 62.8774 87.3489 60.5578L87.3481 60.557Z" fill="white"/>
</svg>
