<svg width="32" viewBox="0 0 32 32" fill="none" xmlns="http://www.w3.org/2000/svg">
<path d="M19.625 19.975C19.475 19.8083 19.4 19.625 19.4 19.425C19.4 19.225 19.475 19.05 19.625 18.9L21.525 17H13.875C13.6583 17 13.4793 16.929 13.338 16.787C13.196 16.6457 13.125 16.4667 13.125 16.25C13.125 16.0333 13.196 15.854 13.338 15.712C13.4793 15.5707 13.6583 15.5 13.875 15.5H21.525L19.625 13.575C19.475 13.425 19.4 13.25 19.4 13.05C19.4 12.85 19.475 12.675 19.625 12.525C19.775 12.375 19.95 12.3 20.15 12.3C20.35 12.3 20.5167 12.3667 20.65 12.5L23.775 15.625C23.8583 15.7083 23.921 15.804 23.963 15.912C24.0043 16.0207 24.025 16.1333 24.025 16.25C24.025 16.3667 24.0043 16.479 23.963 16.587C23.921 16.6957 23.8583 16.7917 23.775 16.875L20.65 20C20.5 20.1667 20.3293 20.2417 20.138 20.225C19.946 20.2083 19.775 20.125 19.625 19.975ZM9.40001 25C8.90001 25 8.47501 24.825 8.12501 24.475C7.77501 24.125 7.60001 23.7 7.60001 23.2V9.3C7.60001 8.8 7.77501 8.375 8.12501 8.025C8.47501 7.675 8.90001 7.5 9.40001 7.5H15.375C15.575 7.5 15.75 7.57067 15.9 7.712C16.05 7.854 16.125 8.03333 16.125 8.25C16.125 8.46667 16.05 8.64567 15.9 8.787C15.75 8.929 15.575 9 15.375 9H9.40001C9.33334 9 9.26667 9.03333 9.20001 9.1C9.13334 9.16667 9.10001 9.23333 9.10001 9.3V23.2C9.10001 23.2667 9.13334 23.3333 9.20001 23.4C9.26667 23.4667 9.33334 23.5 9.40001 23.5H15.375C15.575 23.5 15.75 23.5707 15.9 23.712C16.05 23.854 16.125 24.0333 16.125 24.25C16.125 24.4667 16.05 24.646 15.9 24.788C15.75 24.9293 15.575 25 15.375 25H9.40001Z" fill="currentColor"/>
</svg>
