<svg width="32" viewBox="0 0 32 32" fill="none" xmlns="http://www.w3.org/2000/svg">
<path d="M16 20.75C16.2167 20.75 16.396 20.6793 16.538 20.538C16.6793 20.396 16.75 20.2167 16.75 20V16.75H20C20.2167 16.75 20.396 16.679 20.538 16.537C20.6793 16.3957 20.75 16.2167 20.75 16C20.75 15.7833 20.6793 15.604 20.538 15.462C20.396 15.3207 20.2167 15.25 20 15.25H16.75V12C16.75 11.7833 16.6793 11.6043 16.538 11.463C16.396 11.321 16.2167 11.25 16 11.25C15.7833 11.25 15.6043 11.321 15.463 11.463C15.321 11.6043 15.25 11.7833 15.25 12V15.25H12C11.7833 15.25 11.6043 15.3207 11.463 15.462C11.321 15.604 11.25 15.7833 11.25 16C11.25 16.2167 11.321 16.3957 11.463 16.537C11.6043 16.679 11.7833 16.75 12 16.75H15.25V20C15.25 20.2167 15.321 20.396 15.463 20.538C15.6043 20.6793 15.7833 20.75 16 20.75ZM16 25.5C14.6833 25.5 13.446 25.25 12.288 24.75C11.1293 24.25 10.125 23.575 9.275 22.725C8.425 21.875 7.75 20.8707 7.25 19.712C6.75 18.554 6.5 17.3167 6.5 16C6.5 14.6833 6.75 13.4457 7.25 12.287C7.75 11.129 8.425 10.125 9.275 9.275C10.125 8.425 11.1293 7.75 12.288 7.25C13.446 6.75 14.6833 6.5 16 6.5C17.3167 6.5 18.5543 6.75 19.713 7.25C20.871 7.75 21.875 8.425 22.725 9.275C23.575 10.125 24.25 11.129 24.75 12.287C25.25 13.4457 25.5 14.6833 25.5 16V23.7C25.5 24.2 25.325 24.625 24.975 24.975C24.625 25.325 24.2 25.5 23.7 25.5H16ZM16 24C18.2333 24 20.125 23.225 21.675 21.675C23.225 20.125 24 18.2333 24 16C24 13.7667 23.225 11.875 21.675 10.325C20.125 8.775 18.2333 8 16 8C13.7667 8 11.875 8.775 10.325 10.325C8.775 11.875 8 13.7667 8 16C8 18.2333 8.775 20.125 10.325 21.675C11.875 23.225 13.7667 24 16 24Z" fill="currentColor"/>
</svg>
