<svg width="24" viewBox="0 0 24 24" fill="none" xmlns="http://www.w3.org/2000/svg">
<path d="M13.958 18.854L9.54199 17.292L5.93799 18.708C5.68733 18.8053 5.45466 18.7777 5.23999 18.625C5.02466 18.4723 4.91699 18.264 4.91699 18V7.083C4.91699 6.90234 4.96533 6.74634 5.06199 6.615C5.15933 6.483 5.28466 6.389 5.43799 6.333L9.02099 5.125C9.20166 5.05567 9.37533 5.028 9.54199 5.042C9.70866 5.05534 9.88199 5.09 10.062 5.146L14.479 6.688L18.104 5.271C18.354 5.18767 18.5797 5.21534 18.781 5.354C18.9823 5.49267 19.083 5.694 19.083 5.958V16.938C19.083 17.118 19.0347 17.2707 18.938 17.396C18.8407 17.5207 18.7153 17.611 18.562 17.667L15 18.896C14.8333 18.9653 14.6633 18.9897 14.49 18.969C14.316 18.9483 14.1387 18.91 13.958 18.854ZM13.812 17.417V7.812L10.208 6.562V16.167L13.812 17.417ZM15.146 17.417L17.75 16.521V6.833L15.146 7.812V17.417ZM6.24999 17.146L8.87499 16.167V6.562L6.24999 7.458V17.146Z" fill="currentColor"/>
</svg>
