<svg width="24" viewBox="0 0 24 24" fill="none" xmlns="http://www.w3.org/2000/svg">
<path d="M7.49952 17.688C7.16619 17.688 6.88486 17.5697 6.65552 17.333C6.42619 17.097 6.31152 16.8193 6.31152 16.5C6.31152 16.1667 6.42986 15.8853 6.66652 15.656C6.90252 15.4267 7.18019 15.312 7.49952 15.312C7.83286 15.312 8.11419 15.4303 8.34352 15.667C8.57286 15.903 8.68752 16.1807 8.68752 16.5C8.68752 16.8333 8.56919 17.1147 8.33252 17.344C8.09652 17.5733 7.81886 17.688 7.49952 17.688ZM11.9995 17.688C11.6662 17.688 11.3849 17.5697 11.1555 17.333C10.9262 17.097 10.8115 16.8193 10.8115 16.5C10.8115 16.1667 10.9299 15.8853 11.1665 15.656C11.4025 15.4267 11.6802 15.312 11.9995 15.312C12.3329 15.312 12.6142 15.4303 12.8435 15.667C13.0729 15.903 13.1875 16.1807 13.1875 16.5C13.1875 16.8333 13.0692 17.1147 12.8325 17.344C12.5965 17.5733 12.3189 17.688 11.9995 17.688ZM16.4995 17.688C16.1662 17.688 15.8849 17.5697 15.6555 17.333C15.4262 17.097 15.3115 16.8193 15.3115 16.5C15.3115 16.1667 15.4299 15.8853 15.6665 15.656C15.9025 15.4267 16.1802 15.312 16.4995 15.312C16.8329 15.312 17.1142 15.4303 17.3435 15.667C17.5729 15.903 17.6875 16.1807 17.6875 16.5C17.6875 16.8333 17.5692 17.1147 17.3325 17.344C17.0965 17.5733 16.8189 17.688 16.4995 17.688ZM7.49952 13.188C7.16619 13.188 6.88486 13.0697 6.65552 12.833C6.42619 12.597 6.31152 12.3193 6.31152 12C6.31152 11.6667 6.42986 11.3853 6.66652 11.156C6.90252 10.9267 7.18019 10.812 7.49952 10.812C7.83286 10.812 8.11419 10.9303 8.34352 11.167C8.57286 11.403 8.68752 11.6807 8.68752 12C8.68752 12.3333 8.56919 12.6147 8.33252 12.844C8.09652 13.0733 7.81886 13.188 7.49952 13.188ZM11.9995 13.188C11.6662 13.188 11.3849 13.0697 11.1555 12.833C10.9262 12.597 10.8115 12.3193 10.8115 12C10.8115 11.6667 10.9299 11.3853 11.1665 11.156C11.4025 10.9267 11.6802 10.812 11.9995 10.812C12.3329 10.812 12.6142 10.9303 12.8435 11.167C13.0729 11.403 13.1875 11.6807 13.1875 12C13.1875 12.3333 13.0692 12.6147 12.8325 12.844C12.5965 13.0733 12.3189 13.188 11.9995 13.188ZM16.4995 13.188C16.1662 13.188 15.8849 13.0697 15.6555 12.833C15.4262 12.597 15.3115 12.3193 15.3115 12C15.3115 11.6667 15.4299 11.3853 15.6665 11.156C15.9025 10.9267 16.1802 10.812 16.4995 10.812C16.8329 10.812 17.1142 10.9303 17.3435 11.167C17.5729 11.403 17.6875 11.6807 17.6875 12C17.6875 12.3333 17.5692 12.6147 17.3325 12.844C17.0965 13.0733 16.8189 13.188 16.4995 13.188ZM7.49952 8.68801C7.16619 8.68801 6.88486 8.56968 6.65552 8.33301C6.42619 8.09701 6.31152 7.81935 6.31152 7.50001C6.31152 7.16668 6.42986 6.88535 6.66652 6.65601C6.90252 6.42668 7.18019 6.31201 7.49952 6.31201C7.83286 6.31201 8.11419 6.43035 8.34352 6.66701C8.57286 6.90301 8.68752 7.18068 8.68752 7.50001C8.68752 7.83335 8.56919 8.11468 8.33252 8.34401C8.09652 8.57335 7.81886 8.68801 7.49952 8.68801ZM11.9995 8.68801C11.6662 8.68801 11.3849 8.56968 11.1555 8.33301C10.9262 8.09701 10.8115 7.81935 10.8115 7.50001C10.8115 7.16668 10.9299 6.88535 11.1665 6.65601C11.4025 6.42668 11.6802 6.31201 11.9995 6.31201C12.3329 6.31201 12.6142 6.43035 12.8435 6.66701C13.0729 6.90301 13.1875 7.18068 13.1875 7.50001C13.1875 7.83335 13.0692 8.11468 12.8325 8.34401C12.5965 8.57335 12.3189 8.68801 11.9995 8.68801ZM16.4995 8.68801C16.1662 8.68801 15.8849 8.56968 15.6555 8.33301C15.4262 8.09701 15.3115 7.81935 15.3115 7.50001C15.3115 7.16668 15.4299 6.88535 15.6665 6.65601C15.9025 6.42668 16.1802 6.31201 16.4995 6.31201C16.8329 6.31201 17.1142 6.43035 17.3435 6.66701C17.5729 6.90301 17.6875 7.18068 17.6875 7.50001C17.6875 7.83335 17.5692 8.11468 17.3325 8.34401C17.0965 8.57335 16.8189 8.68801 16.4995 8.68801Z" fill="currentColor"/>
</svg>
