<svg width="26" height="16" viewBox="0 0 26 16" fill="none" xmlns="http://www.w3.org/2000/svg">
<path d="M16.4532 1.69287H9.52539V14.1393H16.4532V1.69287Z" fill="#FF6400"/>
<path d="M9.98686 7.91673C9.98686 5.38799 11.1756 3.14363 12.9998 1.69351C11.6573 0.63795 9.9638 0 8.11656 0C3.74058 0 0.199829 3.54075 0.199829 7.91673C0.199829 12.2927 3.74058 15.8335 8.11656 15.8335C9.9638 15.8335 11.6573 15.1955 12.9998 14.14C11.1731 12.7103 9.98686 10.4455 9.98686 7.91673Z" fill="#FF0707"/>
<path d="M25.7993 7.91673C25.7993 12.2927 22.2585 15.8335 17.8825 15.8335C16.0353 15.8335 14.3418 15.1955 12.9993 14.14C14.8465 12.6873 16.0122 10.4455 16.0122 7.91673C16.0122 5.38799 14.8234 3.14363 12.9993 1.69351C14.3392 0.63795 16.0327 0 17.88 0C22.2585 0 25.7993 3.56381 25.7993 7.91673Z" fill="#F79E1B"/>
</svg>
