<svg width="24" viewBox="0 0 24 24" fill="none" xmlns="http://www.w3.org/2000/svg">
<path d="M12.021 19.083C10.0623 19.083 8.39199 18.392 7.00999 17.01C5.62866 15.6287 4.93799 13.9587 4.93799 12C4.93799 10.4027 5.39965 8.99633 6.32299 7.781C7.24632 6.56567 8.48599 5.729 10.042 5.271C10.5553 5.13167 10.9303 5.18367 11.167 5.427C11.403 5.67033 11.41 6.042 11.188 6.542C11.0767 6.81933 10.9933 7.097 10.938 7.375C10.882 7.653 10.854 7.94467 10.854 8.25C10.854 9.61133 11.3333 10.771 12.292 11.729C13.25 12.6877 14.4097 13.167 15.771 13.167C16.1317 13.167 16.458 13.132 16.75 13.062C17.042 12.9927 17.3197 12.9163 17.583 12.833C18.111 12.639 18.4757 12.6427 18.677 12.844C18.8783 13.0453 18.9167 13.382 18.792 13.854C18.3893 15.354 17.594 16.6007 16.406 17.594C15.2187 18.5867 13.757 19.083 12.021 19.083ZM12.021 17.75C13.215 17.75 14.281 17.4373 15.219 16.812C16.1563 16.1873 16.8473 15.354 17.292 14.312C17.042 14.382 16.792 14.4307 16.542 14.458C16.292 14.486 16.035 14.5 15.771 14.5C14.035 14.5 12.5593 13.8923 11.344 12.677C10.1287 11.4617 9.52099 9.986 9.52099 8.25C9.52099 7.986 9.53466 7.729 9.56199 7.479C9.58999 7.229 9.63866 6.979 9.70799 6.729C8.66666 7.17367 7.83332 7.86467 7.20799 8.802C6.58332 9.73933 6.27099 10.8053 6.27099 12C6.27099 13.5973 6.82999 14.955 7.94799 16.073C9.06599 17.191 10.4237 17.75 12.021 17.75Z" fill="currentColor"/>
</svg>
