<svg width="12" height="7" viewBox="0 0 12 7" fill="none" xmlns="http://www.w3.org/2000/svg">
<path d="M11.1251 0.499988C11.2751 0.633321 11.3501 0.80432 11.3501 1.01299C11.3501 1.22099 11.2751 1.39999 11.1251 1.54999L6.6251 6.02499C6.54176 6.12499 6.44576 6.19599 6.3371 6.23799C6.2291 6.27932 6.11676 6.29999 6.0001 6.29999C5.88343 6.29999 5.77076 6.27932 5.6621 6.23799C5.5541 6.19599 5.45843 6.12499 5.3751 6.02499L0.850098 1.52499C0.716765 1.37499 0.650097 1.20432 0.650097 1.01299C0.650097 0.820986 0.725098 0.649987 0.875098 0.499987C1.0251 0.349987 1.2001 0.274986 1.4001 0.274986C1.6001 0.274986 1.7751 0.349987 1.9251 0.499987L6.0001 4.54999L10.1001 0.474988C10.2334 0.324988 10.4001 0.249988 10.6001 0.249988C10.8001 0.249988 10.9751 0.333321 11.1251 0.499988Z" fill="currentColor"/>
</svg>
