<svg width="56" viewBox="0 0 56 56" fill="none" xmlns="http://www.w3.org/2000/svg">
<path d="M27.95 41.85C28.25 41.85 28.5083 41.7417 28.725 41.525C28.9417 41.3083 29.05 41.05 29.05 40.75V39.35C30.8167 39.2167 32.3167 38.625 33.55 37.575C34.7833 36.525 35.4 35.1167 35.4 33.35C35.4 31.7167 34.925 30.4083 33.975 29.425C33.025 28.4417 31.3833 27.55 29.05 26.75C26.8833 26.0167 25.4417 25.3167 24.725 24.65C24.0083 23.9833 23.65 23.1 23.65 22C23.65 20.9333 24.0583 20.075 24.875 19.425C25.6917 18.775 26.7667 18.45 28.1 18.45C28.9667 18.45 29.725 18.6167 30.375 18.95C31.025 19.2833 31.5833 19.75 32.05 20.35C32.2167 20.55 32.4333 20.6917 32.7 20.775C32.9667 20.8583 33.2167 20.8333 33.45 20.7C33.75 20.5667 33.9417 20.3583 34.025 20.075C34.1083 19.7917 34.0667 19.5333 33.9 19.3C33.3333 18.5333 32.6417 17.9167 31.825 17.45C31.0083 16.9833 30.1167 16.7 29.15 16.6V15.25C29.15 14.95 29.0417 14.6917 28.825 14.475C28.6083 14.2583 28.35 14.15 28.05 14.15C27.75 14.15 27.4917 14.2583 27.275 14.475C27.0583 14.6917 26.95 14.95 26.95 15.25V16.6C25.2167 16.8333 23.875 17.45 22.925 18.45C21.975 19.45 21.5 20.6333 21.5 22C21.5 23.5667 21.925 24.8 22.775 25.7C23.625 26.6 25.2167 27.4833 27.55 28.35C29.85 29.25 31.375 30.0333 32.125 30.7C32.875 31.3667 33.25 32.25 33.25 33.35C33.25 34.6167 32.75 35.6167 31.75 36.35C30.75 37.0833 29.6167 37.45 28.35 37.45C27.2167 37.45 26.1833 37.1667 25.25 36.6C24.3167 36.0333 23.5833 35.2667 23.05 34.3C22.9167 34.0667 22.7417 33.9 22.525 33.8C22.3083 33.7 22.0833 33.6833 21.85 33.75C21.4833 33.8833 21.2417 34.0917 21.125 34.375C21.0083 34.6583 21.05 34.9333 21.25 35.2C21.9167 36.3 22.7083 37.175 23.625 37.825C24.5417 38.475 25.6167 38.95 26.85 39.25V40.8C26.85 41.1 26.9583 41.35 27.175 41.55C27.3917 41.75 27.65 41.85 27.95 41.85ZM28 47C25.3333 47 22.8417 46.5167 20.525 45.55C18.2083 44.5833 16.1917 43.2417 14.475 41.525C12.7583 39.8083 11.4167 37.7917 10.45 35.475C9.48333 33.1583 9 30.6667 9 28C9 25.3667 9.48333 22.8917 10.45 20.575C11.4167 18.2583 12.7583 16.2417 14.475 14.525C16.1917 12.8083 18.2083 11.4583 20.525 10.475C22.8417 9.49167 25.3333 9 28 9C30.6333 9 33.1083 9.49167 35.425 10.475C37.7417 11.4583 39.7583 12.8083 41.475 14.525C43.1917 16.2417 44.5417 18.25 45.525 20.55C46.5083 22.85 47 25.3333 47 28C47 30.6667 46.5083 33.1583 45.525 35.475C44.5417 37.7917 43.1917 39.8083 41.475 41.525C39.7583 43.2417 37.75 44.5833 35.45 45.55C33.15 46.5167 30.6667 47 28 47ZM28 44.75C32.7333 44.75 36.7083 43.1417 39.925 39.925C43.1417 36.7083 44.75 32.7333 44.75 28C44.75 23.2667 43.1417 19.2917 39.925 16.075C36.7083 12.8583 32.7333 11.25 28 11.25C23.2667 11.25 19.2917 12.8583 16.075 16.075C12.8583 19.2917 11.25 23.2667 11.25 28C11.25 32.7333 12.8583 36.7083 16.075 39.925C19.2917 43.1417 23.2667 44.75 28 44.75Z" fill="currentColor"/>
</svg>
