<svg width="56" viewBox="0 0 56 56" fill="none" xmlns="http://www.w3.org/2000/svg">
<path d="M28.0001 37L19.5001 42.1C19.2668 42.2333 19.0418 42.2917 18.8251 42.275C18.6084 42.2583 18.4001 42.1833 18.2001 42.05C18.0334 41.9167 17.9084 41.75 17.8251 41.55C17.7418 41.35 17.7334 41.1167 17.8001 40.85L20.0001 31.2L12.5501 24.65C12.3168 24.4833 12.1751 24.2917 12.1251 24.075C12.0751 23.8583 12.0834 23.6333 12.1501 23.4C12.2168 23.2 12.3418 23.0333 12.5251 22.9C12.7084 22.7667 12.9168 22.6833 13.1501 22.65L23.0501 21.8L26.9501 12.65C27.0501 12.4167 27.2001 12.2417 27.4001 12.125C27.6001 12.0083 27.8001 11.95 28.0001 11.95C28.2001 11.95 28.4001 12.0083 28.6001 12.125C28.8001 12.2417 28.9501 12.4167 29.0501 12.65L32.9501 21.8L42.8501 22.65C43.0834 22.6833 43.2918 22.7667 43.4751 22.9C43.6584 23.0333 43.7834 23.2 43.8501 23.4C43.9168 23.6333 43.9251 23.8583 43.8751 24.075C43.8251 24.2917 43.6834 24.4833 43.4501 24.65L36.0001 31.2L38.2501 40.85C38.2834 41.1167 38.2584 41.35 38.1751 41.55C38.0918 41.75 37.9668 41.9167 37.8001 42.05C37.6001 42.1833 37.3918 42.2583 37.1751 42.275C36.9584 42.2917 36.7334 42.2333 36.5001 42.1L28.0001 37Z" fill="currentColor"/>
</svg>
