<svg width="24" viewBox="0 0 24 24" fill="none" xmlns="http://www.w3.org/2000/svg">
<path fill-rule="evenodd" clip-rule="evenodd" d="M19.3098 2.48654C18.9527 2.12948 18.3858 2.12951 18.0287 2.48659L17.7839 2.73145L21.3256 6.27322L21.5705 6.02836C21.9018 5.69707 21.8978 5.07454 21.5139 4.69064L19.3098 2.48654ZM20.0631 1.73298C19.2898 0.959969 18.0484 0.960072 17.2753 1.73319L16.9396 2.06887C16.8752 2.05186 16.8105 2.04151 16.7479 2.03734C16.5279 2.02265 16.2503 2.07974 16.0319 2.29818L15.3537 2.97636C15.1353 3.1948 15.0782 3.47231 15.0929 3.69238C15.097 3.75489 15.1074 3.81954 15.1244 3.8839L4.89838 14.1099C4.88869 14.1196 4.87939 14.1296 4.87051 14.14C4.79762 14.2029 4.74184 14.2855 4.71138 14.3805L2.78974 20.3711C2.77055 20.431 2.76221 20.4933 2.76471 20.5553L2.73323 20.6533C2.67211 20.8434 2.72248 21.0518 2.86371 21.193C3.00494 21.3343 3.21341 21.3847 3.40355 21.3236L9.73328 19.2889C9.81386 19.263 9.8871 19.2183 9.94695 19.1585L20.1924 8.91298C20.2481 8.92405 20.3056 8.9299 20.3647 8.9299C20.6239 8.92991 20.8536 8.81704 21.024 8.64666L21.7022 7.96848C21.8726 7.79811 21.9854 7.56842 21.9854 7.30915C21.9854 7.25014 21.9796 7.19267 21.9686 7.13708L22.3239 6.78176C23.1229 5.98272 23.0137 4.68361 22.2673 3.93723L20.0631 1.73298ZM16.6911 3.14582L20.8546 7.30931L20.3647 7.79913L16.2013 3.63564L16.6911 3.14582ZM15.7869 4.7282L6.52554 13.9895C7.37949 14.1193 8.208 14.5186 8.8732 15.1838C9.52747 15.838 9.91695 16.6914 10.0263 17.5723L19.3286 8.26996L17.1433 6.08462L9.66438 13.5636C9.45633 13.7716 9.11902 13.7716 8.91097 13.5636C8.70292 13.3555 8.70292 13.0182 8.91097 12.8101L16.3899 5.33122L15.7869 4.7282ZM8.9792 18.3757C9.06278 17.4976 8.76159 16.579 8.11979 15.9372C7.43408 15.2515 6.52607 14.948 5.66386 15.018L4.53455 18.5312L5.49631 19.4929L8.9792 18.3757ZM4.34544 19.8489L4.16801 19.6714L4.08284 19.9364L4.34544 19.8489Z" fill="currentColor"/>
</svg>
