<svg width="32" viewBox="0 0 32 32" fill="none"
  xmlns="http://www.w3.org/2000/svg">
  <path d="M21.9997 17.3327C20.3997 17.3327 17.9063 17.786 15.9997 18.666C14.093 17.7727 11.5997 17.3327 9.99967 17.3327C7.10634 17.3327 1.33301 18.7727 1.33301 21.666V25.3327H30.6663V21.666C30.6663 18.7727 24.893 17.3327 21.9997 17.3327ZM16.6663 23.3327H3.33301V21.666C3.33301 20.946 6.74634 19.3327 9.99967 19.3327C13.253 19.3327 16.6663 20.946 16.6663 21.666V23.3327ZM28.6663 23.3327H18.6663V21.666C18.6663 21.0527 18.3997 20.5193 17.973 20.0393C19.1463 19.6393 20.5863 19.3327 21.9997 19.3327C25.253 19.3327 28.6663 20.946 28.6663 21.666V23.3327ZM9.99967 15.9993C12.573 15.9993 14.6663 13.906 14.6663 11.3327C14.6663 8.75935 12.573 6.66602 9.99967 6.66602C7.42634 6.66602 5.33301 8.75935 5.33301 11.3327C5.33301 13.906 7.42634 15.9993 9.99967 15.9993ZM9.99967 8.66602C11.4663 8.66602 12.6663 9.86602 12.6663 11.3327C12.6663 12.7993 11.4663 13.9993 9.99967 13.9993C8.53301 13.9993 7.33301 12.7993 7.33301 11.3327C7.33301 9.86602 8.53301 8.66602 9.99967 8.66602ZM21.9997 15.9993C24.573 15.9993 26.6663 13.906 26.6663 11.3327C26.6663 8.75935 24.573 6.66602 21.9997 6.66602C19.4263 6.66602 17.333 8.75935 17.333 11.3327C17.333 13.906 19.4263 15.9993 21.9997 15.9993ZM21.9997 8.66602C23.4663 8.66602 24.6663 9.86602 24.6663 11.3327C24.6663 12.7993 23.4663 13.9993 21.9997 13.9993C20.533 13.9993 19.333 12.7993 19.333 11.3327C19.333 9.86602 20.533 8.66602 21.9997 8.66602Z" fill="currentColor"/>
</svg>
