<svg width="56" viewBox="0 0 56 56" fill="none" xmlns="http://www.w3.org/2000/svg">
<path d="M28 27.35C26.0667 27.35 24.475 26.725 23.225 25.475C21.975 24.225 21.35 22.6334 21.35 20.7C21.35 18.7667 21.975 17.1834 23.225 15.95C24.475 14.7167 26.0667 14.1 28 14.1C29.9333 14.1 31.525 14.7167 32.775 15.95C34.025 17.1834 34.65 18.7667 34.65 20.7C34.65 22.6334 34.025 24.225 32.775 25.475C31.525 26.725 29.9333 27.35 28 27.35ZM40.7 42.6H15.3C14.6667 42.6 14.125 42.375 13.675 41.925C13.225 41.475 13 40.9334 13 40.3V38.8C13 37.7334 13.2833 36.8 13.85 36C14.4167 35.2 15.15 34.5834 16.05 34.15C18.1833 33.2167 20.225 32.5167 22.175 32.05C24.125 31.5834 26.0667 31.35 28 31.35C29.9333 31.35 31.875 31.5917 33.825 32.075C35.775 32.5584 37.8 33.2667 39.9 34.2C40.8333 34.6334 41.5833 35.2417 42.15 36.025C42.7167 36.8084 43 37.7334 43 38.8V40.3C43 40.9334 42.775 41.475 42.325 41.925C41.875 42.375 41.3333 42.6 40.7 42.6ZM15.25 40.35H40.75V38.8C40.75 38.3 40.5833 37.8084 40.25 37.325C39.9167 36.8417 39.4833 36.4667 38.95 36.2C36.9833 35.2334 35.125 34.5584 33.375 34.175C31.625 33.7917 29.8333 33.6 28 33.6C26.1667 33.6 24.3583 33.7917 22.575 34.175C20.7917 34.5584 18.9333 35.2334 17 36.2C16.5 36.4667 16.0833 36.8417 15.75 37.325C15.4167 37.8084 15.25 38.3 15.25 38.8V40.35ZM28 25.1C29.2333 25.1 30.2667 24.6834 31.1 23.85C31.9333 23.0167 32.35 21.9667 32.35 20.7C32.35 19.4667 31.9333 18.4334 31.1 17.6C30.2667 16.7667 29.2333 16.35 28 16.35C26.7667 16.35 25.7333 16.7667 24.9 17.6C24.0667 18.4334 23.65 19.4667 23.65 20.7C23.65 21.9667 24.0667 23.0167 24.9 23.85C25.7333 24.6834 26.7667 25.1 28 25.1Z" fill="currentColor"/>
</svg>
