<svg width="56" viewBox="0 0 56 56" fill="none" xmlns="http://www.w3.org/2000/svg">
<path d="M28 27.15C28.8667 27.15 29.6083 26.8417 30.225 26.225C30.8417 25.6083 31.15 24.8667 31.15 24C31.15 23.1333 30.8417 22.3917 30.225 21.775C29.6083 21.1583 28.8667 20.85 28 20.85C27.1333 20.85 26.3917 21.1583 25.775 21.775C25.1583 22.3917 24.85 23.1333 24.85 24C24.85 24.8667 25.1583 25.6083 25.775 26.225C26.3917 26.8417 27.1333 27.15 28 27.15ZM28 44.6C32.3667 40.7 35.6667 36.9917 37.9 33.475C40.1333 29.9583 41.25 26.9333 41.25 24.4C41.25 20.4 39.975 17.125 37.425 14.575C34.875 12.025 31.7333 10.75 28 10.75C24.2667 10.75 21.125 12.025 18.575 14.575C16.025 17.125 14.75 20.4 14.75 24.4C14.75 26.9333 15.8833 29.9583 18.15 33.475C20.4167 36.9917 23.7 40.7 28 44.6ZM28.05 47.05C27.8167 47.05 27.6083 47.0167 27.425 46.95C27.2417 46.8833 27.0833 46.7833 26.95 46.65C22.0833 42.35 18.4583 38.3417 16.075 34.625C13.6917 30.9083 12.5 27.5 12.5 24.4C12.5 19.5667 14.0583 15.7083 17.175 12.825C20.2917 9.94167 23.9 8.5 28 8.5C32.1 8.5 35.7083 9.94167 38.825 12.825C41.9417 15.7083 43.5 19.5667 43.5 24.4C43.5 27.5 42.3083 30.9083 39.925 34.625C37.5417 38.3417 33.9167 42.35 29.05 46.65C28.9167 46.7833 28.7667 46.8833 28.6 46.95C28.4333 47.0167 28.25 47.05 28.05 47.05Z" fill="currentColor"/>
</svg>
