<svg width="32" viewBox="0 0 32 32" fill="none" xmlns="http://www.w3.org/2000/svg">
<path d="M7.94983 24.7501C7.73317 24.7501 7.55417 24.6794 7.41283 24.5381C7.27083 24.3961 7.19983 24.2168 7.19983 24.0001C7.19983 23.7834 7.27083 23.6041 7.41283 23.4621C7.55417 23.3208 7.73317 23.2501 7.94983 23.2501H23.9498C24.1665 23.2501 24.3458 23.3208 24.4878 23.4621C24.6292 23.6041 24.6998 23.7834 24.6998 24.0001C24.6998 24.2168 24.6292 24.3961 24.4878 24.5381C24.3458 24.6794 24.1665 24.7501 23.9498 24.7501H7.94983ZM9.57483 19.5251C9.37483 19.5918 9.18317 19.5874 8.99983 19.5121C8.8165 19.4374 8.67483 19.3084 8.57483 19.1251L6.79983 16.0751C6.6665 15.8751 6.6415 15.6834 6.72483 15.5001C6.80817 15.3168 6.97483 15.2001 7.22483 15.1501C7.32483 15.1168 7.42917 15.1208 7.53783 15.1621C7.64583 15.2041 7.73317 15.2584 7.79983 15.3251L9.32483 16.6251L14.4248 15.2501L10.8998 9.27511C10.7498 9.02511 10.7205 8.78744 10.8118 8.56211C10.9038 8.33744 11.0915 8.18345 11.3748 8.10011C11.5082 8.03344 11.6665 8.02511 11.8498 8.07511C12.0332 8.12511 12.1832 8.20011 12.2998 8.30011L18.7498 14.0751L23.8498 12.7001C24.3165 12.5834 24.7332 12.6751 25.0998 12.9751C25.4665 13.2751 25.6498 13.6584 25.6498 14.1251C25.6498 14.4418 25.5582 14.7208 25.3748 14.9621C25.1915 15.2041 24.9498 15.3668 24.6498 15.4501L9.57483 19.5251Z" fill="currentColor"/>
</svg>
