<svg width="56" viewBox="0 0 56 56" fill="none" xmlns="http://www.w3.org/2000/svg">
<path d="M28 41.5C27.6667 41.5 27.3917 41.3917 27.175 41.175C26.9583 40.9583 26.85 40.6833 26.85 40.35V29.15H15.65C15.3167 29.15 15.0417 29.0417 14.825 28.825C14.6083 28.6083 14.5 28.3333 14.5 28C14.5 27.6667 14.6083 27.3917 14.825 27.175C15.0417 26.9583 15.3167 26.85 15.65 26.85H26.85V15.65C26.85 15.3167 26.9583 15.0417 27.175 14.825C27.3917 14.6083 27.6667 14.5 28 14.5C28.3333 14.5 28.6083 14.6083 28.825 14.825C29.0417 15.0417 29.15 15.3167 29.15 15.65V26.85H40.35C40.6833 26.85 40.9583 26.9583 41.175 27.175C41.3917 27.3917 41.5 27.6667 41.5 28C41.5 28.3333 41.3917 28.6083 41.175 28.825C40.9583 29.0417 40.6833 29.15 40.35 29.15H29.15V40.35C29.15 40.6833 29.0417 40.9583 28.825 41.175C28.6083 41.3917 28.3333 41.5 28 41.5Z" fill="currentColor"/>
</svg>
