<svg width="56" viewBox="0 0 56 56" fill="none" xmlns="http://www.w3.org/2000/svg">
<path d="M9.9 44.9999C9.56667 45.1666 9.25 45.1499 8.95 44.9499C8.65 44.7499 8.5 44.4333 8.5 43.9999C8.5 43.7333 8.58333 43.4916 8.75 43.2749C8.91667 43.0583 9.15 42.8999 9.45 42.7999C10.2167 42.5333 10.925 42.1833 11.575 41.7499C12.225 41.3166 13.1667 41.0999 14.4 41.0999C15.9 41.0999 17.1083 41.4583 18.025 42.1749C18.9417 42.8916 20.05 43.2499 21.35 43.2499C22.6833 43.2499 23.7583 42.8916 24.575 42.1749C25.3917 41.4583 26.5333 41.0999 28 41.0999C29.4667 41.0999 30.6667 41.4583 31.6 42.1749C32.5333 42.8916 33.6667 43.2499 35 43.2499C36.3333 43.2499 37.4 42.8916 38.2 42.1749C39 41.4583 40.1333 41.0999 41.6 41.0999C42.8667 41.0999 43.8167 41.3166 44.45 41.7499C45.0833 42.1833 45.7833 42.5333 46.55 42.7999C46.85 42.8999 47.0833 43.0583 47.25 43.2749C47.4167 43.4916 47.5 43.7333 47.5 43.9999C47.5 44.4333 47.35 44.7499 47.05 44.9499C46.75 45.1499 46.4333 45.1666 46.1 44.9999C45.4 44.6999 44.7167 44.3583 44.05 43.9749C43.3833 43.5916 42.5667 43.3999 41.6 43.3999C40.3333 43.3999 39.2667 43.7499 38.4 44.4499C37.5333 45.1499 36.4 45.4999 35 45.4999C33.5667 45.4999 32.3583 45.1499 31.375 44.4499C30.3917 43.7499 29.2667 43.3999 28 43.3999C26.7333 43.3999 25.6417 43.7499 24.725 44.4499C23.8083 45.1499 22.65 45.4999 21.25 45.4999C19.8167 45.4999 18.6333 45.1499 17.7 44.4499C16.7667 43.7499 15.6667 43.3999 14.4 43.3999C13.4667 43.3999 12.6583 43.5916 11.975 43.9749C11.2917 44.3583 10.6 44.6999 9.9 44.9999ZM9.8 35.7499C9.46667 35.9166 9.16667 35.8999 8.9 35.6999C8.63333 35.4999 8.5 35.1833 8.5 34.7499C8.5 34.5166 8.575 34.2999 8.725 34.0999C8.875 33.8999 9.08333 33.7666 9.35 33.6999C10.1833 33.4333 10.925 33.0833 11.575 32.6499C12.225 32.2166 13.1667 31.9999 14.4 31.9999C15.9 31.9999 17.0833 32.3249 17.95 32.9749C18.8167 33.6249 19.9167 33.9499 21.25 33.9499C22.55 33.9499 23.6333 33.6249 24.5 32.9749C25.3667 32.3249 26.5333 31.9999 28 31.9999C29.4667 31.9999 30.6333 32.3249 31.5 32.9749C32.3667 33.6249 33.4667 33.9499 34.8 33.9499C36.1333 33.9499 37.2333 33.6249 38.1 32.9749C38.9667 32.3249 40.1333 31.9999 41.6 31.9999C42.8667 31.9999 43.825 32.2166 44.475 32.6499C45.125 33.0833 45.85 33.4333 46.65 33.6999C46.9167 33.7666 47.125 33.8999 47.275 34.0999C47.425 34.2999 47.5 34.5166 47.5 34.7499C47.5 35.1833 47.3667 35.4999 47.1 35.6999C46.8333 35.8999 46.5333 35.9166 46.2 35.7499C45.5 35.4166 44.8 35.0666 44.1 34.6999C43.4 34.3333 42.5667 34.1499 41.6 34.1499C40.3333 34.1499 39.2667 34.4916 38.4 35.1749C37.5333 35.8583 36.4 36.1999 35 36.1999C33.5667 36.1999 32.3583 35.8583 31.375 35.1749C30.3917 34.4916 29.2667 34.1499 28 34.1499C26.7333 34.1499 25.6667 34.4916 24.8 35.1749C23.9333 35.8583 22.7833 36.1999 21.35 36.1999C19.95 36.1999 18.7583 35.8583 17.775 35.1749C16.7917 34.4916 15.6667 34.1499 14.4 34.1499C13.4333 34.1499 12.6 34.3333 11.9 34.6999C11.2 35.0666 10.5 35.4166 9.8 35.7499ZM21.2 27.0999C20.7333 27.0999 20.3167 27.0083 19.95 26.8249C19.5833 26.6416 19.3167 26.3999 19.15 26.0999L25.75 19.4999L22.7 16.4499C21.7667 15.5166 20.8333 14.8416 19.9 14.4249C18.9667 14.0083 17.85 13.7499 16.55 13.6499C16.1167 13.5833 15.7583 13.4083 15.475 13.1249C15.1917 12.8416 15.05 12.4833 15.05 12.0499C15.05 11.6166 15.2 11.2499 15.5 10.9499C15.8 10.6499 16.1833 10.5166 16.65 10.5499C18.3833 10.7166 19.875 11.0833 21.125 11.6499C22.375 12.2166 23.6 13.0999 24.8 14.2999L36.9 26.4499C36.6333 26.6833 36.3167 26.8499 35.95 26.9499C35.5833 27.0499 35.2 27.0999 34.8 27.0999C33.7333 27.0999 32.725 26.7499 31.775 26.0499C30.825 25.3499 29.5667 24.9999 28 24.9999C26.4333 24.9999 25.1833 25.3499 24.25 26.0499C23.3167 26.7499 22.3 27.0999 21.2 27.0999ZM37.15 19.6499C35.8833 19.6499 34.825 19.2249 33.975 18.3749C33.125 17.5249 32.7 16.4833 32.7 15.2499C32.7 13.9833 33.125 12.9249 33.975 12.0749C34.825 11.2249 35.8833 10.7999 37.15 10.7999C38.3833 10.7999 39.425 11.2249 40.275 12.0749C41.125 12.9249 41.55 13.9833 41.55 15.2499C41.55 16.4833 41.125 17.5249 40.275 18.3749C39.425 19.2249 38.3833 19.6499 37.15 19.6499Z" fill="currentColor"/>
</svg>
