<svg viewBox="0 0 16 16" fill="currentColor" xmlns="http://www.w3.org/2000/svg">
<path d="M8.00001 12.708C8.25001 12.708 8.45834 12.6213 8.62501 12.448C8.79167 12.2747 8.87501 12.0627 8.87501 11.812C8.87501 11.5627 8.78834 11.351 8.61501 11.177C8.44101 11.0037 8.22901 10.917 7.97901 10.917C7.72901 10.917 7.52067 11.0037 7.35401 11.177C7.18734 11.351 7.10401 11.5627 7.10401 11.812C7.10401 12.0627 7.19101 12.2747 7.36501 12.448C7.53834 12.6213 7.75001 12.708 8.00001 12.708ZM8.04201 4.47901C8.47267 4.47901 8.81967 4.59034 9.08301 4.81301C9.34701 5.03501 9.47901 5.32667 9.47901 5.68801C9.47901 5.92401 9.40967 6.16701 9.27101 6.41701C9.13167 6.66701 8.92334 6.91001 8.64601 7.14601C8.21534 7.52067 7.90634 7.86101 7.71901 8.16701C7.53167 8.47234 7.43101 8.78467 7.41701 9.10401C7.40301 9.25667 7.44801 9.38867 7.55201 9.50001C7.65601 9.61134 7.79834 9.66701 7.97901 9.66701C8.14567 9.66701 8.29167 9.61467 8.41701 9.51001C8.54167 9.40601 8.61801 9.26367 8.64601 9.08301C8.68734 8.86101 8.77767 8.64934 8.91701 8.44801C9.05567 8.24667 9.27767 7.99334 9.58301 7.68801C10.0277 7.27067 10.3263 6.90934 10.479 6.60401C10.6317 6.29867 10.708 5.95834 10.708 5.58301C10.708 4.90234 10.4687 4.35401 9.99001 3.93801C9.51067 3.52067 8.88201 3.31201 8.10401 3.31201C7.59001 3.31201 7.12467 3.42334 6.70801 3.64601C6.29134 3.86801 5.92334 4.19434 5.60401 4.62501C5.52067 4.73634 5.50001 4.86134 5.54201 5.00001C5.58334 5.13867 5.66667 5.25667 5.79201 5.35401C5.91667 5.46534 6.07267 5.50367 6.26001 5.46901C6.44801 5.43434 6.60434 5.33367 6.72901 5.16701C6.89567 4.95834 7.07967 4.79167 7.28101 4.66701C7.48234 4.54167 7.73601 4.47901 8.04201 4.47901ZM8.00001 15.917C6.90267 15.917 5.87501 15.7087 4.91701 15.292C3.95834 14.8753 3.12134 14.3127 2.40601 13.604C1.69067 12.896 1.12467 12.0593 0.708008 11.094C0.291341 10.1287 0.0830078 9.09734 0.0830078 8.00001C0.0830078 6.90267 0.291341 5.87134 0.708008 4.90601C1.12467 3.94067 1.69067 3.10401 2.40601 2.39601C3.12134 1.68734 3.95834 1.12467 4.91701 0.708008C5.87501 0.291341 6.90267 0.0830078 8.00001 0.0830078C9.11134 0.0830078 10.146 0.291341 11.104 0.708008C12.0627 1.12467 12.8997 1.68734 13.615 2.39601C14.3303 3.10401 14.8927 3.94067 15.302 4.90601C15.712 5.87134 15.917 6.90267 15.917 8.00001C15.917 9.09734 15.712 10.1287 15.302 11.094C14.8927 12.0593 14.3303 12.896 13.615 13.604C12.8997 14.3127 12.0627 14.8753 11.104 15.292C10.146 15.7087 9.11134 15.917 8.00001 15.917ZM8.00001 14.583C9.84734 14.583 11.4063 13.9407 12.677 12.656C13.9477 11.3713 14.583 9.81934 14.583 8.00001C14.583 6.18067 13.9477 4.62867 12.677 3.34401C11.4063 2.05934 9.84734 1.41701 8.00001 1.41701C6.18067 1.41701 4.62867 2.05934 3.34401 3.34401C2.05934 4.62867 1.41701 6.18067 1.41701 8.00001C1.41701 9.81934 2.05934 11.3713 3.34401 12.656C4.62867 13.9407 6.18067 14.583 8.00001 14.583Z" fill="currentColor"/>
</svg>
