<svg width="37"  viewBox="0 0 37 33" fill="none" xmlns="http://www.w3.org/2000/svg">
<path d="M0 22.6172V32.2266H12.0703V22.5C12.0703 18.9062 12.5391 15.6641 13.4766 12.7734C14.4531 9.84375 15.7422 7.07031 17.3438 4.45312L10.5469 0C8.94531 1.36719 7.5 2.94922 6.21094 4.74609C4.96094 6.54297 3.86719 8.4375 2.92969 10.4297C1.99219 12.4609 1.26953 14.5312 0.761719 16.6406C0.253906 18.7109 0 20.7031 0 22.6172ZM19.5703 22.6172V32.2266H31.6406V22.5C31.6406 18.9062 32.1094 15.6641 33.0469 12.7734C34.0234 9.84375 35.3125 7.07031 36.9141 4.45312L30.1172 0C28.5156 1.36719 27.0703 2.94922 25.7812 4.74609C24.5312 6.54297 23.4375 8.4375 22.5 10.4297C21.5625 12.4609 20.8398 14.5312 20.332 16.6406C19.8242 18.7109 19.5703 20.7031 19.5703 22.6172Z" fill="currentColor"/>
</svg>
