<svg width="56" viewBox="0 0 56 56" fill="none" xmlns="http://www.w3.org/2000/svg">
<path d="M11.25 37.6998V42.0998C11.25 42.2998 11.3083 42.4581 11.425 42.5748C11.5417 42.6915 11.7 42.7498 11.9 42.7498H44.1C44.3 42.7498 44.4583 42.6915 44.575 42.5748C44.6917 42.4581 44.75 42.2998 44.75 42.0998V37.6998H11.25ZM11.9 44.9998C11.1 44.9998 10.4167 44.7165 9.85 44.1498C9.28333 43.5831 9 42.8998 9 42.0998V19.8998C9 19.1331 9.28333 18.4665 9.85 17.8998C10.4167 17.3331 11.1 17.0498 11.9 17.0498H18.75C18.5833 16.7498 18.4417 16.3915 18.325 15.9748C18.2083 15.5581 18.15 15.1665 18.15 14.7998C18.15 13.4665 18.6167 12.3415 19.55 11.4248C20.4833 10.5081 21.6 10.0498 22.9 10.0498C23.7333 10.0498 24.5167 10.2665 25.25 10.6998C25.9833 11.1331 26.5667 11.6831 27 12.3498L28 13.8498L28.95 12.3498C29.4167 11.6498 30 11.0915 30.7 10.6748C31.4 10.2581 32.1667 10.0498 33 10.0498C34.3333 10.0498 35.4583 10.4998 36.375 11.3998C37.2917 12.2998 37.75 13.4331 37.75 14.7998C37.75 15.1331 37.7 15.4831 37.6 15.8498C37.5 16.2165 37.3667 16.6165 37.2 17.0498H44.1C44.9 17.0498 45.5833 17.3331 46.15 17.8998C46.7167 18.4665 47 19.1331 47 19.8998V42.0998C47 42.8998 46.7167 43.5831 46.15 44.1498C45.5833 44.7165 44.9 44.9998 44.1 44.9998H11.9ZM11.25 32.9998H44.75V19.8998C44.75 19.7331 44.6917 19.5915 44.575 19.4748C44.4583 19.3581 44.3 19.2998 44.1 19.2998H31.55L35.6 24.8998C35.7667 25.1665 35.8167 25.4415 35.75 25.7248C35.6833 26.0081 35.5333 26.2498 35.3 26.4498C35.0667 26.6498 34.7917 26.7415 34.475 26.7248C34.1583 26.7081 33.9167 26.5498 33.75 26.2498L27.95 18.2498L22.15 26.2998C21.95 26.5665 21.6917 26.7165 21.375 26.7498C21.0583 26.7831 20.8 26.6998 20.6 26.4998C20.3667 26.2998 20.2333 26.0498 20.2 25.7498C20.1667 25.4498 20.2333 25.1665 20.4 24.8998L24.4 19.2998H11.9C11.7 19.2998 11.5417 19.3581 11.425 19.4748C11.3083 19.5915 11.25 19.7331 11.25 19.8998V32.9998ZM22.9 17.2498C23.6 17.2498 24.1917 17.0081 24.675 16.5248C25.1583 16.0415 25.4 15.4665 25.4 14.7998C25.4 14.0998 25.1583 13.5081 24.675 13.0248C24.1917 12.5415 23.6 12.2998 22.9 12.2998C22.2333 12.2998 21.6583 12.5415 21.175 13.0248C20.6917 13.5081 20.45 14.0998 20.45 14.7998C20.45 15.4665 20.6917 16.0415 21.175 16.5248C21.6583 17.0081 22.2333 17.2498 22.9 17.2498ZM33 17.2498C33.7 17.2498 34.2917 17.0081 34.775 16.5248C35.2583 16.0415 35.5 15.4665 35.5 14.7998C35.5 14.0998 35.2583 13.5081 34.775 13.0248C34.2917 12.5415 33.7 12.2998 33 12.2998C32.3333 12.2998 31.7583 12.5415 31.275 13.0248C30.7917 13.5081 30.55 14.0998 30.55 14.7998C30.55 15.4665 30.7917 16.0415 31.275 16.5248C31.7583 17.0081 32.3333 17.2498 33 17.2498Z" fill="currentColor"/>
</svg>
