<svg width="56" viewBox="0 0 56 56" fill="none"
  xmlns="http://www.w3.org/2000/svg">
  <path d="M42.8211 29.8105C44.7158 26.5263 48 20.4631 48 17.9367C48 14.3576 45.0947 11.4526 41.5159 11.4526C37.9368 11.4526 35.0318 14.358 35.0318 17.9367C35.0318 20.4632 38.3161 26.5263 40.2107 29.8105C40.7999 30.8211 42.2316 30.8211 42.8211 29.8105ZM38.4842 17.9367C38.4842 16.2527 39.8318 14.9051 41.5158 14.9051C43.1999 14.9051 44.5474 16.2527 44.5474 17.9367C44.5474 19.6208 43.1999 20.9683 41.5158 20.9683C39.8315 20.9683 38.4842 19.5788 38.4842 17.9367ZM42.1474 33.4736H30.1052C28.4631 33.4736 27.1579 32.1684 27.1579 30.5263C27.1579 28.8841 28.4631 27.5789 30.1052 27.5789H33.3894C34.1052 27.5789 34.6946 26.9895 34.6946 26.2738C34.6946 25.558 34.1052 24.9686 33.3894 24.9686L30.1052 24.9683C27.0736 24.9683 24.5894 27.4524 24.5894 30.484C24.5894 33.5156 27.0736 36.0421 30.1052 36.0421H42.1053C43.7474 36.0421 45.0526 37.3473 45.0526 38.9894C45.0526 40.6315 43.7474 41.9367 42.1053 41.9367H20.6315C19.9157 41.9367 19.3263 42.5262 19.3263 43.2419C19.3263 43.9576 19.9157 44.5471 20.6315 44.5471H42.1474C45.179 44.5471 47.6631 42.0629 47.6631 39.0313C47.6631 35.9998 45.179 33.4736 42.1474 33.4736ZM8 31.7893C8 28.2105 10.905 25.3052 14.4841 25.3052C18.0631 25.3052 20.9686 28.1682 20.9683 31.7893C20.9683 34.3156 17.684 40.3788 15.7894 43.663C15.1999 44.6736 13.7684 44.6736 13.1789 43.663C11.2842 40.3788 8 34.3158 8 31.7893ZM11.4525 31.7473C11.4525 33.4314 12.8 34.7789 14.4841 34.7789C16.1685 34.7789 17.5157 33.4314 17.5157 31.7473C17.5157 30.0632 16.1682 28.7157 14.4841 28.7157C12.8 28.7157 11.4525 30.0632 11.4525 31.7473Z" fill="currentColor"/>
</svg>
