<svg width="56" viewBox="0 0 56 56" fill="none" xmlns="http://www.w3.org/2000/svg">
<path d="M15.9 45C15.1 45 14.4167 44.7167 13.85 44.15C13.2833 43.5834 13 42.9 13 42.1V23.95C13 23.4834 13.1 23.05 13.3 22.65C13.5 22.25 13.7833 21.9167 14.15 21.65L26.3 12.5C26.7667 12.1 27.325 11.9 27.975 11.9C28.625 11.9 29.2 12.1 29.7 12.5L41.85 21.65C42.2167 21.9167 42.5 22.25 42.7 22.65C42.9 23.05 43 23.4834 43 23.95V42.1C43 42.9 42.7167 43.5834 42.15 44.15C41.5833 44.7167 40.9 45 40.1 45H15.9ZM15.25 42.75H40.75V23.65L28 14.05L15.25 23.65V42.75ZM20.6 36.7H35.4V38.55C35.4 38.7834 35.4917 38.9917 35.675 39.175C35.8583 39.3584 36.0667 39.45 36.3 39.45C36.5667 39.45 36.7917 39.3584 36.975 39.175C37.1583 38.9917 37.25 38.7834 37.25 38.55V32.1C37.25 31.0667 36.8833 30.1917 36.15 29.475C35.4167 28.7584 34.55 28.4 33.55 28.4H27.85C27.6167 28.4 27.4333 28.4667 27.3 28.6C27.1667 28.7334 27.1 28.9 27.1 29.1V34.85H20.6V27.45C20.6 27.2167 20.5083 27.0084 20.325 26.825C20.1417 26.6417 19.9333 26.55 19.7 26.55C19.4333 26.55 19.2083 26.6417 19.025 26.825C18.8417 27.0084 18.75 27.2167 18.75 27.45V38.55C18.75 38.7834 18.8417 38.9917 19.025 39.175C19.2083 39.3584 19.4333 39.45 19.7 39.45C19.9333 39.45 20.1417 39.3584 20.325 39.175C20.5083 38.9917 20.6 38.7834 20.6 38.55V36.7ZM23.85 33.9C24.4833 33.9 25.025 33.6834 25.475 33.25C25.925 32.8167 26.15 32.2667 26.15 31.6C26.15 30.9667 25.925 30.425 25.475 29.975C25.025 29.525 24.4833 29.3 23.85 29.3C23.1833 29.3 22.6333 29.525 22.2 29.975C21.7667 30.425 21.55 30.9667 21.55 31.6C21.55 32.2667 21.775 32.8167 22.225 33.25C22.675 33.6834 23.2167 33.9 23.85 33.9Z" fill="currentColor"/>
</svg>
