<svg width="56" viewBox="0 0 56 56" fill="none" xmlns="http://www.w3.org/2000/svg">
<path d="M10.35 40.3999C10.0167 40.3999 9.75 40.2916 9.55 40.0749C9.35 39.8582 9.25 39.5832 9.25 39.2499C9.25 38.9166 9.35 38.6416 9.55 38.4249C9.75 38.2082 10.0167 38.0999 10.35 38.0999H45.65C45.9833 38.0999 46.25 38.2082 46.45 38.4249C46.65 38.6416 46.75 38.9166 46.75 39.2499C46.75 39.5832 46.65 39.8582 46.45 40.0749C46.25 40.2916 45.9833 40.3999 45.65 40.3999H10.35ZM10.65 34.9999V34.5999C10.65 29.8332 12.0917 25.9582 14.975 22.9749C17.8583 19.9916 21.45 18.1166 25.75 17.3499V15.8999C25.75 15.2666 25.9667 14.7332 26.4 14.2999C26.8333 13.8666 27.3667 13.6499 28 13.6499C28.6333 13.6499 29.1667 13.8666 29.6 14.2999C30.0333 14.7332 30.25 15.2666 30.25 15.8999V17.3499C34.5167 18.1166 38.1 19.9916 41 22.9749C43.9 25.9582 45.35 29.8332 45.35 34.5999V34.9999H10.65ZM13.05 32.7499H42.95C42.55 28.7832 40.9083 25.5916 38.025 23.1749C35.1417 20.7582 31.7833 19.5499 27.95 19.5499C24.15 19.5499 20.8167 20.7582 17.95 23.1749C15.0833 25.5916 13.45 28.7832 13.05 32.7499Z" fill="currentColor"/>
</svg>
