<svg width="24" viewBox="0 0 24 24" fill="none" xmlns="http://www.w3.org/2000/svg">
<path d="M15.8504 21.925C15.6337 21.925 15.4544 21.854 15.3124 21.712C15.1711 21.5707 15.1004 21.3917 15.1004 21.175C15.1004 20.9583 15.1711 20.7793 15.3124 20.638C15.4544 20.496 15.6337 20.425 15.8504 20.425H18.7004V19.3H15.8504C15.6337 19.3 15.4544 19.229 15.3124 19.087C15.1711 18.9457 15.1004 18.7667 15.1004 18.55C15.1004 18.35 15.1711 18.175 15.3124 18.025C15.4544 17.875 15.6337 17.8 15.8504 17.8H18.7004V16.7H15.8504C15.6337 16.7 15.4544 16.625 15.3124 16.475C15.1711 16.325 15.1004 16.15 15.1004 15.95C15.1004 15.7333 15.1711 15.554 15.3124 15.412C15.4544 15.2707 15.6337 15.2 15.8504 15.2H18.7004V14.075H15.8504C15.6337 14.075 15.4544 14.004 15.3124 13.862C15.1711 13.7207 15.1004 13.5417 15.1004 13.325C15.1004 13.1083 15.1711 12.929 15.3124 12.787C15.4544 12.6457 15.6337 12.575 15.8504 12.575H18.7004V11.45H15.8504C15.6337 11.45 15.4544 11.379 15.3124 11.237C15.1711 11.0957 15.1004 10.9167 15.1004 10.7C15.1004 10.5 15.1711 10.325 15.3124 10.175C15.4544 10.025 15.6337 9.95 15.8504 9.95H18.7004V8.85H15.8504C15.6337 8.85 15.4544 8.779 15.3124 8.637C15.1711 8.49567 15.1004 8.31667 15.1004 8.1C15.1004 7.88333 15.1711 7.704 15.3124 7.562C15.4544 7.42067 15.6337 7.35 15.8504 7.35H19.4504C19.9504 7.35 20.3671 7.53733 20.7004 7.912C21.0337 8.28733 21.2004 8.71667 21.2004 9.2V20.175C21.2004 20.6583 21.0337 21.071 20.7004 21.413C20.3671 21.7543 19.9504 21.925 19.4504 21.925H15.8504ZM8.40039 15C9.50039 15 10.4421 14.4583 11.2254 13.375C12.0087 12.2917 12.4004 11 12.4004 9.5C12.4004 8 12.0087 6.70833 11.2254 5.625C10.4421 4.54167 9.50039 4 8.40039 4C7.30039 4 6.35872 4.54167 5.57539 5.625C4.79206 6.70833 4.40039 8 4.40039 9.5C4.40039 11 4.79206 12.2917 5.57539 13.375C6.35872 14.4583 7.30039 15 8.40039 15ZM8.40039 21.925C7.75039 21.925 7.22106 21.6833 6.81239 21.2C6.40439 20.7167 6.24206 20.15 6.32539 19.5L6.70039 16.15C5.60039 15.7 4.69206 14.8707 3.97539 13.662C3.25872 12.454 2.90039 11.0667 2.90039 9.5C2.90039 7.55 3.43372 5.89567 4.50039 4.537C5.56706 3.179 6.86706 2.5 8.40039 2.5C9.93372 2.5 11.2337 3.179 12.3004 4.537C13.3671 5.89567 13.9004 7.55 13.9004 9.5C13.9004 11.0667 13.5464 12.454 12.8384 13.662C12.1297 14.8707 11.2171 15.7 10.1004 16.15L10.4754 19.5C10.5754 20.15 10.4171 20.7167 10.0004 21.2C9.58372 21.6833 9.05039 21.925 8.40039 21.925Z" fill="currentColor"/>
</svg>
