<svg width="24" viewBox="0 0 24 24" fill="none" xmlns="http://www.w3.org/2000/svg">
<path d="M8.05 17.45C7.78333 17.45 7.56667 17.3667 7.4 17.2C7.23333 17.0333 7.15 16.825 7.15 16.575C7.15 16.325 7.23767 16.1167 7.413 15.95C7.58767 15.7833 7.8 15.7 8.05 15.7C8.3 15.7 8.50833 15.7833 8.675 15.95C8.84167 16.1167 8.925 16.325 8.925 16.575C8.925 16.825 8.84167 17.0333 8.675 17.2C8.50833 17.3667 8.3 17.45 8.05 17.45ZM12 17.45C11.75 17.45 11.5417 17.3667 11.375 17.2C11.2083 17.0333 11.125 16.825 11.125 16.575C11.125 16.325 11.2083 16.1167 11.375 15.95C11.5417 15.7833 11.75 15.7 12 15.7C12.25 15.7 12.4583 15.7833 12.625 15.95C12.7917 16.1167 12.875 16.325 12.875 16.575C12.875 16.825 12.7917 17.0333 12.625 17.2C12.4583 17.3667 12.25 17.45 12 17.45ZM15.95 17.45C15.7 17.45 15.4917 17.3667 15.325 17.2C15.1583 17.0333 15.075 16.825 15.075 16.575C15.075 16.325 15.1583 16.1167 15.325 15.95C15.4917 15.7833 15.7 15.7 15.95 15.7C16.2167 15.7 16.4333 15.7833 16.6 15.95C16.7667 16.1167 16.85 16.325 16.85 16.575C16.85 16.825 16.7623 17.0333 16.587 17.2C16.4123 17.3667 16.2 17.45 15.95 17.45ZM6.4 13.5C6.15 13.5 5.93767 13.4127 5.763 13.238C5.58767 13.0627 5.5 12.85 5.5 12.6V11.975C5.5 10.3083 6.05 8.86667 7.15 7.65C8.25 6.43333 9.61667 5.73333 11.25 5.55V4.25C11.25 4.03333 11.321 3.854 11.463 3.712C11.6043 3.57067 11.7833 3.5 12 3.5C12.2167 3.5 12.396 3.57067 12.538 3.712C12.6793 3.854 12.75 4.03333 12.75 4.25V5.55C14.3833 5.73333 15.75 6.43333 16.85 7.65C17.95 8.86667 18.5 10.3083 18.5 11.975V12.6C18.5 12.85 18.4127 13.0627 18.238 13.238C18.0627 13.4127 17.85 13.5 17.6 13.5H6.4ZM7 12H17C17 10.6167 16.5127 9.43733 15.538 8.462C14.5627 7.48733 13.3833 7 12 7C10.6167 7 9.43767 7.48733 8.463 8.462C7.48767 9.43733 7 10.6167 7 12ZM8.05 20.425C7.78333 20.425 7.56667 20.3417 7.4 20.175C7.23333 20.0083 7.15 19.8 7.15 19.55C7.15 19.2833 7.23767 19.0667 7.413 18.9C7.58767 18.7333 7.8 18.65 8.05 18.65C8.3 18.65 8.50833 18.7377 8.675 18.913C8.84167 19.0877 8.925 19.3 8.925 19.55C8.925 19.8 8.84167 20.0083 8.675 20.175C8.50833 20.3417 8.3 20.425 8.05 20.425ZM12 20.425C11.75 20.425 11.5417 20.3417 11.375 20.175C11.2083 20.0083 11.125 19.8 11.125 19.55C11.125 19.2833 11.2083 19.0667 11.375 18.9C11.5417 18.7333 11.75 18.65 12 18.65C12.25 18.65 12.4583 18.7377 12.625 18.913C12.7917 19.0877 12.875 19.3 12.875 19.55C12.875 19.8 12.7917 20.0083 12.625 20.175C12.4583 20.3417 12.25 20.425 12 20.425ZM15.95 20.425C15.7 20.425 15.4917 20.3417 15.325 20.175C15.1583 20.0083 15.075 19.8 15.075 19.55C15.075 19.2833 15.1583 19.0667 15.325 18.9C15.4917 18.7333 15.7 18.65 15.95 18.65C16.2167 18.65 16.4333 18.7377 16.6 18.913C16.7667 19.0877 16.85 19.3 16.85 19.55C16.85 19.8 16.7623 20.0083 16.587 20.175C16.4123 20.3417 16.2 20.425 15.95 20.425Z" fill="currentColor"/>
</svg>
