<svg width="88" viewBox="0 0 88 36" fill="none" xmlns="http://www.w3.org/2000/svg">
<path d="M45.8425 5.34151C46.9595 5.34151 47.8677 4.4334 47.8677 3.31629C47.8677 2.19919 46.9595 1.29487 45.8425 1.29487C44.7253 1.29487 43.821 2.19919 43.8172 3.31629C43.8172 4.4334 44.7253 5.34151 45.8425 5.34151ZM53.9206 23.1961H53.9362C54.7151 23.1961 55.4066 22.9986 55.9424 22.744C56.482 22.4856 56.8619 22.1892 57.0557 21.9232C57.1735 21.7485 57.2494 21.5395 57.2494 21.3153C57.2494 21.1481 57.2115 20.9771 57.1316 20.8062C56.9341 20.4148 56.5161 20.2248 56.1475 20.2172C56.0795 20.2172 56.0108 20.225 55.9462 20.2399C55.7448 20.297 55.6042 20.3653 55.4636 20.4109C55.3193 20.4603 55.1672 20.4945 54.9051 20.4945C54.4757 20.4945 54.2173 20.3273 54.0464 20.1563C54.0163 20.1221 53.7538 19.7953 53.655 19.385C53.4954 18.7086 53.484 17.7435 53.4764 17.0672C53.488 16.8202 53.488 3.17561 53.488 2.80705C53.488 2.30169 53.2297 1.89512 52.8687 1.65575C52.5077 1.40877 52.0518 1.29858 51.5996 1.29858C51.1399 1.29858 50.6763 1.41257 50.3115 1.65575C49.943 1.89132 49.6694 2.28649 49.6732 2.78425V18.9366C49.6732 19.8371 49.9278 20.8934 50.5965 21.737C51.2615 22.5805 52.3482 23.196 53.9213 23.196M61.7296 9.89342C62.6871 8.52554 63.6902 8.36216 64.1614 8.35835C64.9327 8.36612 65.7155 8.86751 65.9396 10.0682C65.9775 10.2696 65.993 10.4672 65.993 10.6571C65.993 11.4855 65.6739 12.2036 65.1951 12.7508C64.0514 14.0198 62.4594 14.3808 60.7761 14.5594C60.7761 14.4112 60.7761 14.2592 60.7761 14.1072C60.7761 12.6254 60.9775 10.9535 61.7298 9.89342M59.203 21.262C60.4569 22.4513 62.1668 23.1771 64.306 23.1771H64.3157C65.4784 23.1771 66.5574 22.9757 67.3668 22.6413C67.7695 22.4703 68.1077 22.2689 68.3585 22.0295C68.6055 21.7902 68.7727 21.4976 68.7727 21.1708C68.7727 21.1214 68.7727 21.0682 68.7571 21.015C68.6773 20.4603 68.2213 20.0841 67.7045 20.0955C67.5753 20.0955 67.4462 20.1145 67.317 20.1563C66.6824 20.3577 66.0706 20.4679 65.3221 20.4679C65.1094 20.4679 64.8928 20.4601 64.6572 20.4413C63.0765 20.3159 62.1456 19.366 61.5833 18.3933C61.3059 17.9107 61.1235 17.4244 61.0171 17.052C60.9674 16.8886 60.9334 16.7442 60.9108 16.634C63.0727 16.5429 64.9422 16.2921 66.709 15.3574C67.6134 14.852 68.7304 14.0351 69.308 12.899C69.669 12.1618 69.859 11.3145 69.859 10.547C69.859 10.3038 69.8395 10.0682 69.8016 9.84785C69.433 7.76563 67.4989 6.18497 64.5048 6.19256C62.4225 6.19256 59.7438 7.0133 58.1099 9.54008C57.483 10.5242 56.6395 12.4126 56.6395 14.7988C56.6395 15.3688 56.6891 15.9653 56.7991 16.5846C57.16 18.4237 57.9542 20.0689 59.2042 21.262M22.1575 22.5881C22.5184 22.8351 22.9744 22.9453 23.4265 22.9453C23.8864 22.9453 24.3499 22.8313 24.7184 22.5881C25.0832 22.3525 25.3568 21.9536 25.353 21.4596C25.353 21.4596 25.353 12.6254 25.353 12.5836C25.3754 11.8997 25.5582 10.9839 25.9648 10.2658C26.3751 9.54387 26.964 9.03471 27.8912 9.03092C28.3168 9.03481 28.6093 9.1677 28.8487 9.38048C29.2058 9.70346 29.4149 10.243 29.525 10.7902C29.6314 11.3373 29.6428 11.8807 29.6428 12.1884C29.6428 12.2606 29.6428 21.1974 29.6428 21.4368C29.6428 21.9498 29.9202 22.3563 30.3001 22.5919C30.684 22.8351 31.1627 22.9453 31.6414 22.9453C32.1278 22.9453 32.6179 22.8313 33.0094 22.5919C33.3931 22.3563 33.6895 21.9612 33.6857 21.4596V12.576C33.7119 11.8959 33.8946 10.9801 34.2974 10.2658C34.7116 9.54387 35.3005 9.03471 36.2239 9.03092C36.6495 9.03481 36.9458 9.1677 37.1851 9.38048C37.5385 9.70346 37.7514 10.2468 37.8578 10.794C37.9679 11.3411 37.9794 11.8807 37.9794 12.1884C37.9794 12.2606 37.9794 20.8669 37.9794 21.4368C37.9794 21.9498 38.2605 22.3563 38.6404 22.5919C39.0205 22.8351 39.503 22.9453 39.9817 22.9453C40.468 22.9453 40.9583 22.8313 41.3458 22.5919C41.7334 22.3563 42.0297 21.9612 42.026 21.4596V12.7432C42.026 10.5356 41.5928 8.89033 40.7835 7.77703C39.9703 6.66372 38.7697 6.12038 37.3561 6.12418C35.9921 6.12418 34.951 6.78152 34.2215 7.53385C33.7198 8.0506 33.359 8.60915 33.1196 9.04992C32.7814 8.16459 32.3026 7.47306 31.6908 6.98671C30.9575 6.40535 30.0418 6.12418 29.0159 6.12418C27.268 6.12807 26.0712 7.19187 25.3378 8.17219V8.08475C25.3378 7.57559 25.0832 7.17282 24.7222 6.93345C24.3613 6.68647 23.9091 6.57628 23.457 6.57628C22.9934 6.57628 22.5298 6.69027 22.165 6.93345C21.7965 7.16903 21.5267 7.5642 21.5267 8.06195C21.5267 8.06195 21.5267 21.0682 21.5267 21.4368C21.5267 21.9421 21.7813 22.3487 22.1423 22.5881M47.1175 6.93345C46.7565 6.68647 46.3044 6.57628 45.8484 6.57628C45.3886 6.57628 44.9251 6.69027 44.5604 6.93345C44.1918 7.16903 43.922 7.5642 43.922 8.06195C43.922 8.06195 43.922 21.0682 43.922 21.4368C43.922 21.9421 44.1766 22.3487 44.5376 22.5881C44.8985 22.835 45.3545 22.9452 45.8066 22.9452C46.2664 22.9452 46.73 22.8312 47.0948 22.5881C47.4633 22.3525 47.7369 21.9535 47.7331 21.4596C47.7331 21.4596 47.7331 8.45332 47.7331 8.08475C47.7331 7.57559 47.4785 7.17282 47.1175 6.93345ZM86.7025 13.8298C86.6869 13.7387 86.6266 13.6627 86.5391 13.6361C86.4515 13.6095 86.3567 13.6322 86.2921 13.7006C86.2921 13.7006 86.2386 13.7614 86.125 13.8754C86.0148 13.9894 85.8438 14.1604 85.6196 14.3732C85.1674 14.8063 84.4873 15.4257 83.5868 16.1666C82.9484 16.6948 82.1961 17.2837 81.3336 17.9145C81.3141 17.6637 81.2762 17.4281 81.2234 17.2077C80.9954 16.2806 80.452 15.5777 79.7909 15.0153C78.7916 14.1718 77.5111 13.6171 76.4624 13.0129C75.9342 12.7089 75.4706 12.3974 75.1249 12.0478C74.7791 11.6944 74.5587 11.3145 74.4903 10.8433C74.4748 10.756 74.4709 10.6647 74.4709 10.5735C74.4709 10.0872 74.657 9.57801 75.0522 9.19424C75.265 8.98906 75.8995 8.57489 76.7962 8.57489C77.9095 8.57489 78.8519 9.06126 79.3801 9.06126C79.9765 9.07261 80.4933 8.72308 80.6491 8.14553C80.6792 8.03154 80.6948 7.91376 80.6948 7.79976C80.6948 7.14243 80.1477 6.53068 79.403 6.34449C79.403 6.34449 78.7304 6.11651 77.3094 6.11651C75.3297 6.1204 73.7072 6.60667 72.5674 7.4616C71.4275 8.31652 70.7853 9.54761 70.7853 10.9611C70.7853 11.3486 70.8349 11.7514 70.9297 12.1618C71.3591 13.9058 73.0765 14.8519 74.661 15.6993C75.4589 16.121 76.2378 16.52 76.8191 16.9494C77.4081 17.3825 77.7805 17.8309 77.8603 18.3552C77.872 18.4464 77.8788 18.5338 77.8788 18.6212C77.8788 19.1 77.6851 19.5445 77.2747 19.8903C76.8605 20.2361 76.2069 20.4792 75.2836 20.4944H75.1961C74.1891 20.4983 73.3266 20.2057 72.7605 19.9587C72.5135 19.8409 72.2589 19.7839 72.0196 19.7839C71.4192 19.7761 70.9176 20.1867 70.8378 20.7832C70.8281 20.8403 70.8262 20.8972 70.8262 20.9542C70.8262 21.3836 71.0542 21.7369 71.3657 22.0105C71.8369 22.4209 72.5057 22.6983 73.1402 22.8844C66.1412 26.3839 56.4216 29.5452 44.1297 29.5452V29.5491V29.5452C31.72 29.5452 21.9282 26.3231 14.9178 22.7818C16.3617 22.5083 17.5282 21.9269 18.3984 21.1366C19.6294 20.0233 20.2563 18.5072 20.2525 16.9342C20.2525 16.577 20.2225 16.2122 20.1572 15.8475C19.9369 14.6392 19.2795 13.6816 18.4322 12.8989C17.1631 11.721 15.4646 10.8965 14.0474 10.0682C13.3406 9.654 12.7023 9.23984 12.2311 8.79908C11.7561 8.35832 11.4522 7.89476 11.361 7.37421C11.3347 7.23362 11.3191 7.08543 11.3191 6.93724C11.3191 6.2685 11.5775 5.55417 12.1475 5.00701C12.7136 4.45986 13.599 4.0647 14.9022 4.0609C15.609 4.0609 16.4373 4.17869 17.3948 4.45606C17.6722 4.53582 17.9268 4.57765 18.1624 4.57765C18.8197 4.589 19.3099 4.22428 19.5075 3.70373C19.5794 3.51755 19.6177 3.33136 19.6177 3.15278C19.6177 2.70441 19.3821 2.32824 19.0515 2.06228C18.7209 1.7963 18.2954 1.61771 17.8469 1.52272C16.9541 1.34413 15.9852 1.22254 14.9668 1.21875C14.9571 1.21875 14.9483 1.21875 14.9406 1.21875C12.22 1.21875 10.2441 1.98248 8.95228 3.12238C7.65662 4.25848 7.05627 5.76315 7.05627 7.19943C7.05627 7.51859 7.0864 7.83396 7.14381 8.14174C7.54282 10.2392 9.27932 11.5804 11.0499 12.6671C12.8282 13.75 14.6824 14.6278 15.3853 15.6195C15.7691 16.1476 15.9515 16.786 15.9515 17.4015C15.9515 18.0285 15.7577 18.625 15.4043 19.0506C14.7356 19.8561 13.4741 20.3995 12.1176 20.3995C11.2589 20.3995 10.3697 20.1867 9.55664 19.7041C9.51088 19.6738 9.38943 19.6091 9.37804 19.6015C7.42881 18.3362 5.85954 17.1431 4.67408 16.1666C3.77354 15.4257 3.09722 14.8063 2.645 14.3732C2.4171 14.1604 2.2461 13.9894 2.13588 13.8754C2.02188 13.7614 1.96868 13.7006 1.96868 13.7006C1.90448 13.6322 1.80915 13.6095 1.7217 13.6361C1.63805 13.6628 1.57356 13.7386 1.56218 13.8298C1.5126 14.168 1.47852 14.5936 1.47852 15.0875C1.47852 15.1256 1.47852 15.1635 1.47852 15.2015V15.2357C1.50187 16.5162 1.93453 17.5042 3.10101 18.5833C3.38223 18.8682 19.0292 34.7774 44.1299 34.7812C69.2343 34.7773 84.8775 18.8682 85.1587 18.5833C86.3252 17.5042 86.7583 16.5162 86.7811 15.2357V15.0876C86.7811 14.5936 86.747 14.1681 86.7014 13.8299" fill="#EB7F02"/>
</svg>
