<svg width="56" viewBox="0 0 56 56" fill="none" xmlns="http://www.w3.org/2000/svg">
<path d="M51.9528 22.1416C51.9528 22.0944 51.9056 22.0472 51.8583 22.0236C51.8111 22 51.7639 22.0236 51.7167 22.0708C51.7167 22.0708 51.6931 22.0944 51.6223 22.1653C51.5515 22.2361 51.457 22.3305 51.339 22.4485C51.0793 22.6846 50.6986 23.0417 50.2029 23.4666C49.8458 23.7735 49.4209 24.107 48.9222 24.4611C47.5057 25.5087 46.3932 26.1697 44.3482 27.3058C40.4146 29.2977 34.9377 31.0741 28.0148 31.0741C21.0918 31.0741 15.5234 29.2475 11.5869 27.235C10.554 26.6566 9.02545 25.7418 8.5533 25.4585C8.52969 25.4349 8.45887 25.4113 8.45887 25.3877C7.36702 24.6765 6.49059 23.9889 5.80302 23.443C5.30432 23.0151 4.90299 22.6846 4.66691 22.4249C4.54887 22.3069 4.45444 22.2125 4.38362 22.1416C4.3128 22.0708 4.28329 22.0472 4.28329 22.0472C4.25968 22 4.18886 22 4.14165 22C4.09443 22.0236 4.04722 22.0472 4.04722 22.118C4.02361 22.3305 4 22.5695 4 22.8528V22.9473C4.02361 23.682 4.25968 24.228 4.92364 24.8447C5.0889 25.01 13.8827 34.0192 28.0118 34.0428C42.1409 34.0428 50.9347 25.0129 51.1 24.8447C51.7639 24.228 52 23.682 52 22.9473V22.8528C52 22.5695 51.9764 22.3305 51.9528 22.1416Z" fill="currentColor"/>
</svg>
