<svg width="24" viewBox="0 0 24 24" fill="none" xmlns="http://www.w3.org/2000/svg">
<path d="M10.75 10.2497C11.0693 10.2497 11.3437 10.1351 11.573 9.90573C11.8023 9.67639 11.917 9.40206 11.917 9.08273C11.917 8.76339 11.8023 8.48906 11.573 8.25973C11.3437 8.03106 11.0693 7.91672 10.75 7.91672C10.4307 7.91672 10.1563 8.03106 9.927 8.25973C9.69767 8.48906 9.583 8.76339 9.583 9.08273C9.583 9.40206 9.69767 9.67639 9.927 9.90573C10.1563 10.1351 10.4307 10.2497 10.75 10.2497ZM9.083 14.4167C9.40233 14.4167 9.67667 14.3021 9.906 14.0727C10.1353 13.8434 10.25 13.5691 10.25 13.2497C10.25 12.9304 10.1353 12.6561 9.906 12.4267C9.67667 12.1974 9.40233 12.0827 9.083 12.0827C8.76367 12.0827 8.48933 12.1974 8.26 12.4267C8.03133 12.6561 7.917 12.9304 7.917 13.2497C7.917 13.5691 8.03133 13.8434 8.26 14.0727C8.48933 14.3021 8.76367 14.4167 9.083 14.4167ZM14.5 15.2917C14.708 15.2917 14.892 15.2117 15.052 15.0517C15.212 14.8917 15.292 14.7077 15.292 14.4997C15.292 14.2917 15.212 14.1077 15.052 13.9477C14.892 13.7877 14.708 13.7077 14.5 13.7077C14.292 13.7077 14.108 13.7877 13.948 13.9477C13.788 14.1077 13.708 14.2917 13.708 14.4997C13.708 14.7077 13.788 14.8917 13.948 15.0517C14.108 15.2117 14.292 15.2917 14.5 15.2917ZM12 20.1247C10.8747 20.1247 9.819 19.9131 8.833 19.4897C7.847 19.0657 6.986 18.4857 6.25 17.7497C5.514 17.0137 4.934 16.1527 4.51 15.1667C4.08667 14.1807 3.875 13.1251 3.875 11.9997C3.875 10.8331 4.10067 9.74272 4.552 8.72872C5.00333 7.71473 5.60767 6.84672 6.365 6.12472C7.12167 5.40272 7.993 4.83672 8.979 4.42672C9.965 4.01672 10.979 3.81872 12.021 3.83272C12.4377 3.83272 12.778 3.93339 13.042 4.13472C13.306 4.33672 13.4727 4.63206 13.542 5.02072C13.6667 5.84006 14.0033 6.50672 14.552 7.02072C15.1007 7.53472 15.8127 7.84706 16.688 7.95773C16.9793 7.98572 17.205 8.09006 17.365 8.27072C17.5243 8.45139 17.632 8.68739 17.688 8.97872C17.7573 9.40939 17.91 9.80539 18.146 10.1667C18.382 10.5274 18.6807 10.8051 19.042 10.9997C19.4447 11.2357 19.7293 11.5031 19.896 11.8017C20.0627 12.1004 20.125 12.4581 20.083 12.8747C19.9583 13.8747 19.6667 14.8157 19.208 15.6977C18.75 16.5797 18.16 17.3471 17.438 17.9997C16.7153 18.6524 15.8957 19.1697 14.979 19.5517C14.0623 19.9337 13.0693 20.1247 12 20.1247ZM12 18.7917C13.75 18.7917 15.2813 18.1841 16.594 16.9687C17.906 15.7534 18.6317 14.2081 18.771 12.3327C18.0763 12.0414 17.5347 11.6284 17.146 11.0937C16.7567 10.5591 16.4997 9.94439 16.375 9.24972C15.3057 9.09706 14.3857 8.65606 13.615 7.92672C12.8437 7.19739 12.3887 6.28439 12.25 5.18772C11.236 5.14572 10.2987 5.30872 9.438 5.67672C8.57667 6.04472 7.83333 6.54839 7.208 7.18772C6.58333 7.82639 6.094 8.56572 5.74 9.40573C5.38533 10.2464 5.208 11.1111 5.208 11.9997C5.208 13.8884 5.868 15.4924 7.188 16.8117C8.50733 18.1317 10.1113 18.7917 12 18.7917Z" fill="currentColor"/>
</svg>
