<svg viewBox="0 0 27 34" fill="none" xmlns="http://www.w3.org/2000/svg">
<path d="M3.125 21.792L2.167 19.667L0 18.667L2.167 17.667L3.125 15.542L4.125 17.667L6.292 18.667L4.125 19.667L3.125 21.792ZM8.333 31.708L6.833 28.5L3.625 27L6.833 25.5L8.333 22.292L9.833 25.5L13.042 27L9.833 28.5L8.333 31.708ZM8.333 15.042L6.833 11.833L3.625 10.333L6.833 8.83301L8.333 5.62501L9.833 8.83301L13.042 10.333L9.833 11.833L8.333 15.042ZM26.667 33.667C23.2777 32.3057 20.5347 30.0693 18.438 26.958C16.3407 23.8473 15.292 20.528 15.292 17C15.292 14.4447 15.8683 11.9517 17.021 9.52101C18.1737 7.09034 19.736 4.95834 21.708 3.12501H15.125V0.333008H26.667V11.875H23.875V4.83301C22.097 6.47234 20.6803 8.37534 19.625 10.542C18.5697 12.7087 18.042 14.8613 18.042 17C18.042 19.8053 18.8407 22.458 20.438 24.958C22.0347 27.458 24.111 29.347 26.667 30.625V33.667Z" fill="currentColor"/>
</svg>
