<svg width="24" viewBox="0 0 24 24" fill="none" xmlns="http://www.w3.org/2000/svg">
<path d="M9.3334 15.6459L12.0004 14.0619L14.6884 15.6459L13.9794 12.6459L16.2924 10.6669L13.2294 10.3959L12.0004 7.54193L10.7714 10.3959L7.7084 10.6669L10.0424 12.6459L9.3334 15.6459ZM12.0004 15.3329L8.7924 17.2289C8.68107 17.2843 8.5734 17.3086 8.4694 17.3019C8.36474 17.2953 8.27107 17.2639 8.1884 17.2079C8.1044 17.1526 8.04174 17.0659 8.0004 16.9479C7.95907 16.8299 7.95907 16.7153 8.0004 16.6039L8.8334 13.0619L6.0214 10.6669C5.92407 10.5836 5.86507 10.4863 5.8444 10.3749C5.82307 10.2636 5.8264 10.1593 5.8544 10.0619C5.8824 9.96527 5.9414 9.88194 6.0314 9.81194C6.12207 9.7426 6.22274 9.70794 6.3334 9.70794L10.0214 9.37494L11.5004 5.97894C11.5557 5.8676 11.6251 5.78427 11.7084 5.72894C11.7917 5.6736 11.8891 5.64594 12.0004 5.64594C12.1117 5.64594 12.2091 5.6736 12.2924 5.72894C12.3757 5.78427 12.4451 5.8676 12.5004 5.97894L13.9794 9.39594L17.6674 9.70794C17.7781 9.70794 17.8787 9.74627 17.9694 9.82294C18.0594 9.8996 18.1184 9.98627 18.1464 10.0829C18.1744 10.1803 18.1744 10.2809 18.1464 10.3849C18.1184 10.4896 18.0557 10.5836 17.9584 10.6669L15.1674 13.0619L16.0004 16.6039C16.0417 16.7153 16.0417 16.8299 16.0004 16.9479C15.9591 17.0659 15.8964 17.1526 15.8124 17.2079C15.7297 17.2639 15.6361 17.2953 15.5314 17.3019C15.4274 17.3086 15.3197 17.2843 15.2084 17.2289L12.0004 15.3329Z" fill="currentColor"/>
</svg>
