<svg viewBox="0 0 34 32" fill="none" xmlns="http://www.w3.org/2000/svg">
<path d="M3.12501 25.417V29.208H30.875V25.417H3.12501ZM9.04201 7.00001V3.12501C9.04201 2.37501 9.31267 1.72234 9.85401 1.16701C10.396 0.611008 11.042 0.333008 11.792 0.333008H22.167C22.917 0.333008 23.5697 0.611008 24.125 1.16701C24.6803 1.72234 24.958 2.37501 24.958 3.12501V7.00001H30.875C31.625 7.00001 32.2777 7.27767 32.833 7.83301C33.389 8.38901 33.667 9.04201 33.667 9.79201V29.208C33.667 29.958 33.389 30.611 32.833 31.167C32.2777 31.7223 31.625 32 30.875 32H3.12501C2.37501 32 1.72234 31.7223 1.16701 31.167C0.611008 30.611 0.333008 29.958 0.333008 29.208V9.79201C0.333008 9.04201 0.611008 8.38901 1.16701 7.83301C1.72234 7.27767 2.37501 7.00001 3.12501 7.00001H9.04201ZM3.12501 20.75H30.875V9.79201H24.958V12.958H22.167V9.79201H11.792V12.958H9.04201V9.79201H3.12501V20.75ZM11.792 7.00001H22.167V3.12501H11.792V7.00001ZM3.12501 29.208V9.79201V12.958V9.79201V12.958V9.79201V29.208Z" fill="currentColor"/>
</svg>
