<svg width="24" viewBox="0 0 24 24" fill="none" xmlns="http://www.w3.org/2000/svg">
<path d="M5.375 19.292C5.19434 19.292 5.038 19.226 4.906 19.094C4.774 18.962 4.708 18.8057 4.708 18.625C4.708 18.4444 4.774 18.288 4.906 18.156C5.038 18.024 5.19434 17.958 5.375 17.958H18.583C18.7637 17.958 18.92 18.024 19.052 18.156C19.184 18.288 19.25 18.4444 19.25 18.625C19.25 18.8057 19.184 18.962 19.052 19.094C18.92 19.226 18.7637 19.292 18.583 19.292H5.375ZM6.708 14.958C6.528 15.014 6.358 15.0037 6.198 14.927C6.038 14.8504 5.90934 14.7357 5.812 14.583L4.396 12.167C4.27067 11.9724 4.24634 11.7847 4.323 11.604C4.39967 11.4234 4.556 11.3124 4.792 11.271C4.87534 11.243 4.962 11.243 5.052 11.271C5.14267 11.2984 5.21567 11.34 5.271 11.396L6.5 12.458L10.625 11.354L7.75 6.50002C7.61134 6.27802 7.58367 6.05935 7.667 5.84402C7.75034 5.62869 7.92401 5.48635 8.188 5.41702C8.29867 5.36102 8.43034 5.35402 8.583 5.39602C8.73567 5.43735 8.86067 5.49969 8.958 5.58302L14.312 10.354L18.479 9.20802C18.8817 9.09735 19.2427 9.17402 19.562 9.43802C19.882 9.70135 20.042 10.0347 20.042 10.438C20.042 10.7154 19.9653 10.9584 19.812 11.167C19.6593 11.375 19.4513 11.5137 19.188 11.583L6.708 14.958Z" fill="currentColor"/>
</svg>
