<svg width="20"  viewBox="0 0 20 20" fill="none" xmlns="http://www.w3.org/2000/svg">
<path d="M12.25 19.4127C11.8667 19.796 11.3917 19.9877 10.825 19.9877C10.2583 19.9877 9.78333 19.796 9.4 19.4127L0.6 10.6127C0.416667 10.4294 0.271 10.2127 0.163 9.9627C0.0543334 9.7127 0 9.44603 0 9.16269V2.0127C0 1.4627 0.196 0.991695 0.588 0.599695C0.979333 0.208362 1.45 0.0126953 2 0.0126953H9.15C9.43333 0.0126953 9.7 0.0666953 9.95 0.174695C10.2 0.283362 10.4167 0.429362 10.6 0.612695L19.4 9.4377C19.7833 9.82103 19.975 10.2917 19.975 10.8497C19.975 11.4084 19.7833 11.8794 19.4 12.2627L12.25 19.4127ZM10.825 18.0127L17.975 10.8627L9.15 2.0127H2V9.16269L10.825 18.0127ZM4.5 6.0127C4.91667 6.0127 5.27067 5.86669 5.562 5.5747C5.854 5.28336 6 4.92936 6 4.5127C6 4.09603 5.854 3.74203 5.562 3.4507C5.27067 3.1587 4.91667 3.0127 4.5 3.0127C4.08333 3.0127 3.72933 3.1587 3.438 3.4507C3.146 3.74203 3 4.09603 3 4.5127C3 4.92936 3.146 5.28336 3.438 5.5747C3.72933 5.86669 4.08333 6.0127 4.5 6.0127Z" fill="currentColor"/>
</svg>
