<svg width="56" viewBox="0 0 56 56" fill="none" xmlns="http://www.w3.org/2000/svg">
<path d="M17.9 45C17.1333 45 16.4667 44.7167 15.9 44.15C15.3333 43.5833 15.05 42.9 15.05 42.1V14.9H14.15C13.8167 14.9 13.5417 14.7917 13.325 14.575C13.1083 14.3583 13 14.0833 13 13.75C13 13.4167 13.1083 13.15 13.325 12.95C13.5417 12.75 13.8167 12.65 14.15 12.65H21.55C21.55 12.2167 21.6917 11.875 21.975 11.625C22.2583 11.375 22.6 11.25 23 11.25H33C33.4 11.25 33.7417 11.3833 34.025 11.65C34.3083 11.9167 34.45 12.25 34.45 12.65H41.85C42.1833 12.65 42.4583 12.7583 42.675 12.975C42.8917 13.1917 43 13.4667 43 13.8C43 14.1 42.8917 14.3583 42.675 14.575C42.4583 14.7917 42.1833 14.9 41.85 14.9H40.95V42.1C40.95 42.9 40.6667 43.5833 40.1 44.15C39.5333 44.7167 38.8667 45 38.1 45H17.9ZM23.05 37.35C23.05 37.6833 23.1583 37.9583 23.375 38.175C23.5917 38.3917 23.8667 38.5 24.2 38.5C24.5333 38.5 24.8083 38.3917 25.025 38.175C25.2417 37.9583 25.35 37.6833 25.35 37.35V20.2C25.35 19.9 25.2333 19.6417 25 19.425C24.7667 19.2083 24.5 19.1 24.2 19.1C23.8667 19.1 23.5917 19.2083 23.375 19.425C23.1583 19.6417 23.05 19.9 23.05 20.2V37.35ZM30.65 37.35C30.65 37.6833 30.7667 37.9583 31 38.175C31.2333 38.3917 31.5 38.5 31.8 38.5C32.1333 38.5 32.4083 38.3917 32.625 38.175C32.8417 37.9583 32.95 37.6833 32.95 37.35V20.2C32.95 19.9 32.8417 19.6417 32.625 19.425C32.4083 19.2083 32.1333 19.1 31.8 19.1C31.4667 19.1 31.1917 19.2083 30.975 19.425C30.7583 19.6417 30.65 19.9 30.65 20.2V37.35Z" fill="currentColor"/>
</svg>
