<svg viewBox="0 0 30 36" fill="none" xmlns="http://www.w3.org/2000/svg">
<path d="M15 35.333L9.958 30.292H2.792C2.042 30.292 1.389 30.021 0.833 29.479C0.277667 28.9377 0 28.292 0 27.542V3.08299C0 2.30566 0.277667 1.64599 0.833 1.10399C1.389 0.562659 2.042 0.291992 2.792 0.291992H27.208C27.958 0.291992 28.611 0.562659 29.167 1.10399C29.7223 1.64599 30 2.30566 30 3.08299V27.542C30 28.292 29.7223 28.9377 29.167 29.479C28.611 30.021 27.958 30.292 27.208 30.292H20.042L15 35.333ZM2.792 25.833C4.40267 24.333 6.24267 23.118 8.312 22.188C10.382 21.2573 12.6113 20.792 15 20.792C17.3887 20.792 19.618 21.2573 21.688 22.188C23.7573 23.118 25.5973 24.333 27.208 25.833V3.08299H2.792V25.833ZM15.042 17.5C16.6527 17.5 18.0207 16.9373 19.146 15.812C20.2707 14.6873 20.833 13.3193 20.833 11.708C20.833 10.0973 20.2707 8.73633 19.146 7.62499C18.0207 6.51366 16.6527 5.95799 15.042 5.95799C13.4307 5.95799 12.0693 6.51366 10.958 7.62499C9.84733 8.73633 9.292 10.0973 9.292 11.708C9.292 13.3193 9.84733 14.6873 10.958 15.812C12.0693 16.9373 13.4307 17.5 15.042 17.5ZM15.042 14.708C14.2087 14.708 13.5003 14.4163 12.917 13.833C12.3337 13.2497 12.042 12.5413 12.042 11.708C12.042 10.8747 12.3337 10.1663 12.917 9.58299C13.5003 8.99966 14.2087 8.70799 15.042 8.70799C15.8753 8.70799 16.5837 8.99966 17.167 9.58299C17.7503 10.1663 18.042 10.8747 18.042 11.708C18.042 12.5413 17.7503 13.2497 17.167 13.833C16.5837 14.4163 15.8753 14.708 15.042 14.708ZM15 31.292L18.792 27.542H24.583V27.125C23.1943 25.9583 21.6943 25.0763 20.083 24.479C18.4723 23.8817 16.778 23.583 15 23.583C13.25 23.583 11.5627 23.8817 9.938 24.479C8.31267 25.0763 6.80567 25.9583 5.417 27.125V27.542H11.208L15 31.292Z" fill="currentColor"/>
</svg>
