<svg width="32" viewBox="0 0 32 32" fill="none" xmlns="http://www.w3.org/2000/svg">
<path d="M15.9997 7.99992C17.4663 7.99992 18.6663 9.19992 18.6663 10.6666C18.6663 12.1333 17.4663 13.3333 15.9997 13.3333C14.533 13.3333 13.333 12.1333 13.333 10.6666C13.333 9.19992 14.533 7.99992 15.9997 7.99992ZM15.9997 19.9999C19.5997 19.9999 23.733 21.7199 23.9997 22.6666V23.9999H7.99967V22.6799C8.26634 21.7199 12.3997 19.9999 15.9997 19.9999ZM15.9997 5.33325C13.053 5.33325 10.6663 7.71992 10.6663 10.6666C10.6663 13.6133 13.053 15.9999 15.9997 15.9999C18.9463 15.9999 21.333 13.6133 21.333 10.6666C21.333 7.71992 18.9463 5.33325 15.9997 5.33325ZM15.9997 17.3333C12.4397 17.3333 5.33301 19.1199 5.33301 22.6666V26.6666H26.6663V22.6666C26.6663 19.1199 19.5597 17.3333 15.9997 17.3333Z" fill="currentColor"/>
</svg>
