<svg width="24" viewBox="0 0 24 24" fill="none" xmlns="http://www.w3.org/2000/svg">
<path d="M11.354 14.625L14.417 12.667C14.667 12.4863 14.792 12.264 14.792 12C14.792 11.736 14.667 11.5137 14.417 11.333L11.354 9.375C11.09 9.19433 10.8193 9.184 10.542 9.344C10.264 9.50333 10.125 9.74267 10.125 10.062V13.958C10.125 14.278 10.264 14.5143 10.542 14.667C10.8193 14.8197 11.09 14.8057 11.354 14.625ZM5.66701 18.25C5.22234 18.25 4.84734 18.0973 4.54201 17.792C4.23601 17.486 4.08301 17.111 4.08301 16.667V7.333C4.08301 6.889 4.23601 6.514 4.54201 6.208C4.84734 5.90267 5.22234 5.75 5.66701 5.75H18.333C18.7777 5.75 19.1527 5.90267 19.458 6.208C19.764 6.514 19.917 6.889 19.917 7.333V16.667C19.917 17.111 19.764 17.486 19.458 17.792C19.1527 18.0973 18.7777 18.25 18.333 18.25H5.66701ZM5.66701 16.917H18.333C18.403 16.917 18.462 16.8927 18.51 16.844C18.5587 16.7953 18.583 16.7363 18.583 16.667V7.333C18.583 7.26367 18.5587 7.20467 18.51 7.156C18.462 7.10733 18.403 7.083 18.333 7.083H5.66701C5.59701 7.083 5.53801 7.10733 5.49001 7.156C5.44134 7.20467 5.41701 7.26367 5.41701 7.333V16.667C5.41701 16.7363 5.44134 16.7953 5.49001 16.844C5.53801 16.8927 5.59701 16.917 5.66701 16.917Z" fill="currentColor"/>
</svg>
