<svg width="24" viewBox="0 0 24 24" fill="none" xmlns="http://www.w3.org/2000/svg">
<path d="M6.875 14.292C6.66634 14.0973 6.569 13.861 6.583 13.583C6.597 13.3057 6.70834 13.0973 6.917 12.958C7.625 12.4167 8.406 11.9933 9.26 11.688C10.1147 11.382 11.028 11.229 12 11.229C12.972 11.229 13.8853 11.382 14.74 11.688C15.594 11.9933 16.375 12.41 17.083 12.938C17.2917 13.0907 17.4063 13.2987 17.427 13.562C17.4477 13.826 17.347 14.0693 17.125 14.292C16.9443 14.472 16.7153 14.569 16.438 14.583C16.16 14.597 15.903 14.5277 15.667 14.375C15.153 13.9863 14.587 13.6947 13.969 13.5C13.351 13.3053 12.6947 13.208 12 13.208C11.3053 13.208 10.649 13.3053 10.031 13.5C9.413 13.6947 8.847 13.9863 8.333 14.375C8.097 14.5277 7.84 14.597 7.562 14.583C7.28467 14.569 7.05567 14.472 6.875 14.292ZM3.146 10.604C2.95134 10.4093 2.854 10.1733 2.854 9.896C2.854 9.618 2.95134 9.40267 3.146 9.25C4.32667 8.222 5.667 7.42 7.167 6.844C8.667 6.26734 10.278 5.979 12 5.979C13.722 5.979 15.333 6.26734 16.833 6.844C18.333 7.42 19.6733 8.222 20.854 9.25C21.0487 9.40267 21.1493 9.61434 21.156 9.885C21.1633 10.1563 21.0627 10.396 20.854 10.604C20.6733 10.7847 20.4443 10.8783 20.167 10.885C19.889 10.8923 19.6527 10.8127 19.458 10.646C18.4447 9.78467 17.3093 9.12134 16.052 8.656C14.7953 8.19067 13.4447 7.958 12 7.958C10.5553 7.958 9.20467 8.19067 7.948 8.656C6.69067 9.12134 5.55534 9.78467 4.542 10.646C4.34734 10.8127 4.111 10.8923 3.833 10.885C3.55567 10.8783 3.32667 10.7847 3.146 10.604ZM12 19.583C11.472 19.583 11.0277 19.399 10.667 19.031C10.3057 18.663 10.125 18.2153 10.125 17.688C10.125 17.16 10.3057 16.7153 10.667 16.354C11.0277 15.9927 11.472 15.812 12 15.812C12.528 15.812 12.9723 15.9927 13.333 16.354C13.6943 16.7153 13.875 17.16 13.875 17.688C13.875 18.2153 13.6943 18.663 13.333 19.031C12.9723 19.399 12.528 19.583 12 19.583Z" fill="currentColor"/>
</svg>
