<svg width="24" viewBox="0 0 24 15" fill="none" xmlns="http://www.w3.org/2000/svg">
<path d="M23.8273 0.500408C21.8975 0.754802 19.1733 1.95453 17.1891 4.70598C17.209 4.60683 17.4151 3.26723 17.4159 3.26723C17.8656 1.19442 17.3048 1.02687 17.0428 1.05531C16.9309 1.06991 16.8045 1.10142 16.6612 1.15368C15.984 1.39655 14.5506 2.28731 12.0899 6.76418C12.1099 6.66504 12.5864 4.148 12.5871 4.14723C13.0368 2.07442 12.5274 1.89227 12.214 1.93531C12.1022 1.94991 12.0003 1.95453 11.8325 2.03369C11.1821 2.34034 9.82228 2.84683 6.99078 8.82162C7.0107 8.72248 7.66418 5.54909 7.66495 5.54909C8.11465 3.47628 7.55386 3.30873 7.29186 3.33717C7.18001 3.35177 7.0536 3.38328 6.91034 3.43554C6.23311 3.67841 4.72313 4.90503 1.89163 10.8798C1.91154 10.7807 2.56503 7.60729 2.56579 7.60729C3.01549 5.53448 2.61942 5.31698 2.31758 5.3262C1.96134 5.33696 1.70546 5.40306 1.42124 7.13309C1.35765 7.51814 0.554783 11.3732 0.286649 12.3532C-0.161519 13.994 -0.051967 14.1985 0.39237 14.3153C0.982266 14.4705 1.42047 13.207 2.0096 11.8029C2.97182 9.51102 5.69914 4.63296 6.36028 4.85661C6.43919 4.88274 6.50584 4.91118 6.53648 5.03031C6.6445 5.4607 5.63632 9.28814 5.38504 10.2957C4.97364 11.9466 5.04642 12.141 5.49076 12.2579C6.08065 12.4131 6.51886 11.1496 7.10799 9.74543C8.07021 7.45358 10.6198 3.23187 11.2809 3.45553C11.3598 3.48166 11.4265 3.51009 11.4571 3.62922C11.5652 4.05961 10.7056 7.22378 10.4834 8.23828C10.3149 9.00992 10.3716 9.37498 10.8197 9.47336C11.3146 9.58173 11.6939 8.85313 12.2064 7.68799C13.2061 5.41305 15.4477 2.35187 16.1089 2.57552C16.1878 2.60165 16.2544 2.63009 16.2851 2.74922C16.3318 3.8229 15.866 5.204 15.6301 6.21543C15.5175 6.69885 15.5305 7.30064 15.9802 7.20918C16.2782 7.14923 16.7831 6.21389 17.3867 5.23013C19.1143 2.41336 21.6493 1.1998 23.92 0.734819C24.0533 0.707151 24.0189 0.476582 23.825 0.501945L23.8273 0.500408Z" fill="currentColor"/>
</svg>
